<svg width="24" height="24" xmlns="http://www.w3.org/2000/svg"><defs><symbol id="icon-agency-category-placeholder" viewBox="0 0 24 24"><g><path d="M12 0A12 12 0 1 0 24 12 12 12 0 0 0 12 0m0 21.8A9.8 9.8 0 1 1 21.8 12 9.8 9.8 0 0 1 12 21.8"></path><path d="M16.07,7.76a1.44,1.44,0,1,1-1.44-1.44,1.45,1.45,0,0,1,1.44,1.44"></path><path d="M15.92,11.44a.83.83,0,0,0-1.34,0L14,12.2a.28.28,0,0,1-.45,0L11.19,8.89a.83.83,0,0,0-1.34,0l-4,5.71a.82.82,0,0,0,.66,1.29h11a.81.81,0,0,0,.66-1.29l-2.25-3.16"></path></g></symbol></defs><use href="#icon-agency-category-placeholder"></use></svg>