<svg width="24" height="17" xmlns="http://www.w3.org/2000/svg"><defs><symbol id="icon-external-link" viewBox="0 0 511.6 511.6"><g><path d="m392.9 292.4h-18.3c-2.7 0-4.9.9-6.6 2.6-1.7 1.7-2.6 3.9-2.6 6.6v91.4c0 12.6-4.5 23.3-13.4 32.3-8.9 8.9-19.7 13.4-32.3 13.4h-237.5c-12.6 0-23.3-4.5-32.3-13.4-8.9-8.9-13.4-19.7-13.4-32.3v-237.7c0-12.6 4.5-23.3 13.4-32.3 8.9-8.9 19.7-13.4 32.3-13.4h201c2.7 0 4.9-.9 6.6-2.6 1.7-1.7 2.6-3.9 2.6-6.6v-18.2c0-2.7-.9-4.9-2.6-6.6-1.7-1.7-3.9-2.6-6.6-2.6h-201c-22.6 0-42 8-58.1 24.1-16.1 16.2-24.1 35.6-24.1 58.2v237.5c0 22.6 8 42 24.1 58.1 16.1 16.1 35.5 24.1 58.1 24.1h237.5c22.6 0 42-8 58.1-24.1 16.1-16.1 24.1-35.4 24.1-58.1v-91.4c0-2.7-.9-4.9-2.6-6.6-1.6-1.6-3.8-2.4-6.4-2.4"></path><path d="m506.2 42c-3.6-3.6-7.9-5.4-12.9-5.4h-146.1c-4.9 0-9.2 1.8-12.8 5.4-3.6 3.6-5.4 7.9-5.4 12.8s1.8 9.2 5.4 12.8l50.2 50.2-186.2 186.3c-1.9 1.9-2.9 4.1-2.9 6.6 0 2.5 1 4.7 2.9 6.6l32.5 32.5c1.9 1.9 4.1 2.9 6.6 2.9s4.7-.9 6.6-2.9l186.1-186.1 50.3 50.2c3.6 3.6 7.9 5.4 12.8 5.4s9.2-1.8 12.9-5.4c3.6-3.6 5.4-7.9 5.4-12.8v-146.3c0-4.9-1.8-9.2-5.4-12.8"></path></g></symbol></defs><use href="#icon-external-link"></use></svg>