<svg class="icon fl-shrink" width="41" height="71" xmlns="http://www.w3.org/2000/svg"><defs><symbol id="icon-filled-logo" viewBox="0 0 40.31 70"><g fill="currentColor"><path d="M23.21,8.56c0,5.62-9.29,8.56-9.29,14.56a7.89,7.89,0,0,0,.85,4.09s-3.54-3.58-3.54-7.41,3.42-9.58,3.42-9.58c0,2.55,1,3.32,2,3.45h.12c1.1,0,1.71-.9,1.71-2.17s-1.35-2.56-1.35-5.11S20,0,20,0A13.44,13.44,0,0,1,23.21,8.56Z"></path><path d="M20.65,29a5.21,5.21,0,0,1-5.14-5.37V23.5c0-6.51,8.68-7.15,8.68-16,.25.38,2.57,3.7,2.57,7.28,0,4.47-4,5.62-4,7.79,0,.89.37,1.53,1.59,1.53a.43.43,0,0,0,.37-.13,6.84,6.84,0,0,0,4-6C28.71,18.14,29.94,29,20.65,29Z"></path><path d="M18.32,66.68l-2.69-1.92h3.3L20,61.31l1,3.45h3.3l-2.69,1.92,1,3.32-2.69-2L17.1,70Z"></path><path d="M32.38,66.68l-2.69-1.92H33l1.1-3.45,1,3.45h3.3l-2.69,1.92,1,3.32L34,68l-2.81,2Z"></path><path d="M4.39,66.68,1.7,64.76H5l1.1-3.45,1,3.45h3.3L7.69,66.68l1,3.32L6,68,3.29,70Z"></path><polygon points="20.77 31.81 20.16 31.93 20.16 31.93 20.15 31.93 19.54 31.81 14.89 30.66 19.54 37.88 20.15 38.83 20.16 38.82 20.16 38.83 20.77 37.88 25.42 30.66 20.77 31.81"></polygon><path d="M40.3,28.89l-6,.87L32,30.15a6.64,6.64,0,0,0-4.64,2.93L20.29,43.67h0l-.05.07h0l-.06.11-.07-.11h0L20,43.68h0L12.94,33.08A6.64,6.64,0,0,0,8.3,30.15L6,29.76l-6-.87H0L.1,29l0,0L19.57,57.51l.21.31.38.55.37-.55.21-.31L40.2,29.06v0l.1-.15Z"></path></g></symbol></defs><use href="#icon-filled-logo"></use></svg>