<svg width="25" height="25" fill="#26AC7C" xmlns="http://www.w3.org/2000/svg"><defs><symbol id="icon-website-design-cluster" viewBox="0 0 34 35"><path d="M30.6142 28.0114C30.9815 28.0114 31.2792 27.7033 31.2792 27.3231C31.2792 26.9429 30.9815 26.6348 30.6142 26.6348C30.247 26.6348 29.9492 26.9429 29.9492 27.3231C29.9492 27.7033 30.247 28.0114 30.6142 28.0114Z"></path><path d="M16.7763 7.91036C17.1436 7.91036 17.4413 7.60218 17.4413 7.22202C17.4413 6.84187 17.1436 6.53369 16.7763 6.53369C16.4091 6.53369 16.1113 6.84187 16.1113 7.22202C16.1113 7.60218 16.4091 7.91036 16.7763 7.91036Z"></path><path d="M19.0741 23.6129V19.5062C19.0741 19.1329 18.7825 18.8179 18.4091 18.8179C18.0475 18.8179 17.7441 19.1212 17.7441 19.5062V23.6129C17.7441 23.9862 18.0358 24.3012 18.4091 24.3012C18.7825 24.2895 19.0741 23.9862 19.0741 23.6129Z"></path><path d="M8.60974 13.2888C8.97141 13.2888 9.27474 12.9854 9.27474 12.6004C9.27474 12.2271 8.98307 11.9121 8.60974 11.9121H5.85641C5.49474 11.9121 5.19141 12.2154 5.19141 12.6004V27.2071C5.19141 27.5804 5.48307 27.8954 5.85641 27.8954H27.9297C28.2914 27.8954 28.5947 27.5921 28.5947 27.2071V12.6004C28.5947 12.2271 28.3031 11.9121 27.9297 11.9121H24.6047C24.2431 11.9121 23.9397 12.2154 23.9397 12.6004C23.9397 12.9738 24.2314 13.2888 24.6047 13.2888H27.2647V26.5304H6.50974V13.2888H8.60974Z"></path><path d="M15.7148 22.4469V19.6585C15.7148 19.2852 15.4231 18.9702 15.0498 18.9702C14.6764 18.9702 14.3848 19.2735 14.3848 19.6585V22.4469C14.3848 22.8202 14.6764 23.1352 15.0498 23.1352C15.4231 23.1352 15.7148 22.8202 15.7148 22.4469Z"></path><path d="M3.745 35H29.82C31.885 35 33.5533 33.2617 33.5533 31.1267V30.065C33.5533 29.6917 33.2617 29.3767 32.8883 29.3767H19.6233C19.2617 29.3767 18.9583 29.68 18.9583 30.065C18.9583 30.695 18.4683 31.2083 17.8617 31.2083H15.6683C15.0617 31.2083 14.5717 30.695 14.5717 30.065C14.5717 29.6917 14.28 29.3767 13.9067 29.3767H3.605V11.8183C3.605 11.0367 4.22333 10.395 4.98167 10.395H13.2183L13.23 10.4533L11.8533 11.795L11.8417 11.8067C10.64 13.0433 9.975 14.7 9.975 16.45V19.5067C9.975 19.775 10.1267 20.02 10.3717 20.1367C10.4533 20.1717 10.5467 20.195 10.64 20.195C10.8033 20.195 10.955 20.1367 11.0833 20.02L13.9767 17.325C14.0583 17.4767 14.1983 17.5817 14.3617 17.64C15.1317 17.8733 15.9367 18.0017 16.7533 18.0017H16.7883C17.605 18.0017 18.4217 17.885 19.2033 17.64C19.3783 17.5933 19.5067 17.465 19.5883 17.3133L22.4933 20.0317C22.6217 20.1483 22.7733 20.2067 22.9367 20.2067C23.03 20.2067 23.1233 20.1833 23.205 20.1483C23.4383 20.0433 23.6017 19.7983 23.6017 19.5183V16.45C23.6017 14.7 22.9367 13.0433 21.7467 11.8067L20.475 10.4883L20.4867 10.3833H28.595C29.3533 10.3833 29.9717 11.025 29.9717 11.8067V24.3367C29.9717 24.71 30.2633 25.025 30.6367 25.025C30.9983 25.025 31.3017 24.7217 31.3017 24.3367V11.8183C31.3017 10.2783 30.0883 9.03 28.6067 9.03H20.65C20.8833 5.915 19.8683 2.84667 17.8383 0.525L17.7217 0.396667C17.4767 0.14 17.1733 0 16.8467 0H16.835C16.52 0 16.205 0.151667 15.995 0.396667L15.7733 0.653333C13.825 2.95167 12.845 5.985 13.0667 9.01833H4.98167C3.5 9.01833 2.28667 10.2667 2.28667 11.8067V29.3767H0.665C0.303333 29.3767 0 29.68 0 30.065V31.1267C0 33.2617 1.68 35 3.745 35ZM16.7767 1.55167L16.8583 1.45833C18.7367 3.61667 19.6117 6.51 19.2617 9.39167L19.11 10.64L18.48 15.855L18.41 16.415C17.8733 16.5433 17.325 16.6133 16.7767 16.6133H16.7533C16.2167 16.6133 15.68 16.5433 15.155 16.4267L14.63 11.2233L14.5717 10.64L14.4317 9.19333C14.14 6.42833 15.0033 3.64 16.7767 1.55167Z"></path></symbol></defs><use href="#icon-website-design-cluster"></use></svg>