<svg class="icon" width="55" height="55" xmlns="http://www.w3.org/2000/svg"><defs><symbol id="icon-category-marketing" viewBox="0 0 24 24"><g><path d="M20.64,5.65h-.47V1.27a.87.87,0,0,0-.11-.41.81.81,0,0,0-.29-.29.77.77,0,0,0-.39-.11.8.8,0,0,0-.4.11C17.06,1.7,11.47,4.64,8.86,4.64H2a1.94,1.94,0,0,0-1.39.59A2,2,0,0,0,0,6.64v6A2,2,0,0,0,.47,13.9a1.88,1.88,0,0,0,1.18.68L4.1,22.35a1.63,1.63,0,0,0,.53.85,1.58,1.58,0,0,0,.93.34l.21,0a6.76,6.76,0,0,0,3-.93,2.4,2.4,0,0,0,.53-.37l.08-.1A2.06,2.06,0,0,0,9.73,21a2,2,0,0,0-.36-1.14A12.1,12.1,0,0,1,8.22,14.6h.63c3.37,0,10.06,4,10.13,4.07a.77.77,0,0,0,.39.11.81.81,0,0,0,.8-.8V12.51h.47a3.38,3.38,0,0,0,1.29-.26A3.66,3.66,0,0,0,23,11.5a3.18,3.18,0,0,0,.72-1.11,3.43,3.43,0,0,0,0-2.62A3.18,3.18,0,0,0,23,6.66a3.66,3.66,0,0,0-1.09-.75A3.38,3.38,0,0,0,20.64,5.65Zm-19.06,7v-6a.39.39,0,0,1,.11-.27A.36.36,0,0,1,2,6.25H8.07V13H2a.38.38,0,0,1-.38-.38Zm6.53,8.5-.1.06-.08,0a5.14,5.14,0,0,1-2.31.7v0l-2.3-7.27H6.65a13.42,13.42,0,0,0,1.4,6.1l0,0a.28.28,0,0,1,.07.17A.31.31,0,0,1,8.11,21.11ZM18.59,5.65v11c-2-1.11-6.06-3.2-9-3.55V6.2c2.81-.38,6.95-2.47,9-3.57Zm2,5.24h-.46V7.27h.47a1.76,1.76,0,0,1,1.26.53,1.84,1.84,0,0,1,0,2.56,1.76,1.76,0,0,1-1.26.53Z"></path></g></symbol></defs><use href="#icon-category-marketing"></use></svg>