<svg class="icon" width="55" height="55" xmlns="http://www.w3.org/2000/svg"><defs><symbol id="icon-category-technology" viewBox="0 0 24 24"><g><path d="M6.64,24a2,2,0,0,1-1.51-.64,2.12,2.12,0,0,1-.63-1.54V2.18A2.12,2.12,0,0,1,5.13.64,2,2,0,0,1,6.64,0H17.36a2,2,0,0,1,1.51.64,2.12,2.12,0,0,1,.63,1.54V21.82a2.12,2.12,0,0,1-.63,1.54,2,2,0,0,1-1.51.64Zm0-5.45v3.27H17.36V18.55ZM12,21.27a1,1,0,0,0,.76-.31,1.07,1.07,0,1,0-1.52,0A1,1,0,0,0,12,21.27ZM6.64,16.36H17.36V5.45H6.64Zm0-13.09H17.36V2.18H6.64Z"></path></g></symbol></defs><use href="#icon-category-technology"></use></svg>