<svg width="60px" height="60px" xmlns="http://www.w3.org/2000/svg"><defs><symbol id="agencies-web-app" viewBox="0 0 56 55"><g opacity="0.5"><path d="M34.1502 52.1184C34.1302 51.9417 34.08 51.7678 33.9809 51.6064C33.6168 51.0186 32.8467 50.8349 32.2608 51.1976C31.2549 51.8171 30.2179 52.2081 29.166 52.3858V40.0001H31.1787C31.8692 40.0001 32.4287 39.4402 32.4287 38.7501C32.4287 38.06 31.8692 37.5001 31.1787 37.5001H29.166V28.7501H32.1032C32.7938 28.7501 33.3532 28.1902 33.3532 27.5001C33.3532 26.81 32.7938 26.2501 32.1032 26.2501H29.166V17.5001H40.51C41.2494 20.5655 41.666 23.944 41.666 27.5001C41.666 28.1902 42.2255 28.7501 42.916 28.7501H52.8519C52.7872 30.0369 52.6552 31.3147 52.3924 32.554C52.2497 33.2292 52.6817 33.8928 53.3569 34.036C54.0321 34.1806 54.6962 33.7472 54.8389 33.0715C55.2221 31.2617 55.416 29.3862 55.416 27.5C55.416 12.3369 43.0791 0 27.916 0C12.7529 0 0.416016 12.3357 0.416016 27.5C0.416016 42.6643 12.7529 55 27.916 55C29.9022 55 31.8567 54.788 33.7266 54.3699C34.3995 54.2192 34.8241 53.5505 34.6725 52.8771C34.5999 52.5525 34.4051 52.2912 34.1498 52.1191L34.1502 52.1184ZM26.666 52.3844C22.1176 51.6343 18.2109 46.8389 16.0266 39.9999H26.666V52.3844ZM26.666 37.4999H15.3221C14.6706 34.7981 14.2856 31.8465 14.2009 28.7499H26.6664L26.666 37.4999ZM2.97912 28.7494H11.7017C11.7803 31.8386 12.1417 34.7776 12.7532 37.4994H5.01781C3.83292 34.7976 3.13305 31.8461 2.97912 28.7494ZM5.01781 17.4994H12.7532C12.1417 20.2212 11.7803 23.1602 11.7017 26.2494H2.97912C3.13305 23.1527 3.83292 20.2012 5.01781 17.4994ZM26.6654 26.2494H14.2C14.2846 23.1527 14.6701 20.2012 15.3211 17.4994H26.6651L26.6654 26.2494ZM26.6654 2.61487V14.9994H16.026C18.2098 8.16023 22.1175 3.36392 26.6654 2.61487ZM29.1654 14.9994V2.61487C33.7139 3.36496 37.6206 8.16034 39.8048 14.9994H29.1654ZM43.0785 17.4994H50.8134C51.9983 20.2012 52.6982 23.1527 52.8521 26.2494H44.1495C44.0714 23.1561 43.69 20.224 43.079 17.4994H43.0785ZM49.5327 14.9994H42.4298C41.0886 10.4588 39.0351 6.67725 36.4933 4.04749C42.0117 6.07368 46.6175 9.97796 49.5326 14.9994H49.5327ZM19.3506 4.04285C16.8032 6.67356 14.7426 10.4514 13.3991 14.9994H6.29769C9.21484 9.97427 13.8256 6.06665 19.3501 4.04285H19.3506ZM6.29817 40H13.3996C14.7431 44.548 16.8036 48.3259 19.351 50.9565C13.8265 48.9327 9.21567 45.0251 6.29865 40H6.29817Z" fill="#093C98"></path><path d="M53.997 37.1555L37.8387 29.3988C37.0282 29.0101 36.0628 29.0882 35.3238 29.6044C34.584 30.121 34.1799 31.0005 34.2677 31.8984L36.0302 49.7353C36.1274 50.7305 36.778 51.5452 37.7281 51.8619C38.6786 52.1786 39.6858 51.9154 40.3616 51.1787L42.6062 48.7261L45.5368 52.9101C46.1106 53.7308 46.97 54.2786 47.9573 54.4526C48.1772 54.4921 48.3967 54.5107 48.6153 54.5107C49.3779 54.5107 50.122 54.2782 50.7586 53.8322L52.8071 52.398C54.5003 51.2122 54.9136 48.8694 53.7283 47.1753L50.7977 42.9905L53.8692 41.7205C54.7947 41.3378 55.3866 40.4794 55.4132 39.4786C55.4411 38.4779 54.8979 37.5892 53.9958 37.1558L53.997 37.1555ZM48.4037 41.2748C48.0531 41.4203 47.7871 41.7161 47.6811 42.0802C47.575 42.4448 47.6397 42.8368 47.8568 43.1475L51.6817 48.6083C52.077 49.1728 51.9389 49.9541 51.3753 50.3489L49.3268 51.783C49.0534 51.9742 48.72 52.0509 48.3916 51.9895C48.0629 51.9314 47.7778 51.7496 47.5862 51.4757L43.7613 46.0148C43.5442 45.7042 43.1973 45.5093 42.8187 45.4842C42.7908 45.4824 42.7638 45.4814 42.7369 45.4814C42.3876 45.4814 42.0523 45.6279 41.8156 45.8874L38.5181 49.4896L36.7556 31.6515L52.9152 39.4081L48.403 41.2743L48.4037 41.2748Z" fill="#093C98"></path></g></symbol></defs><use href="#agencies-web-app"></use></svg>