<svg width="60px" height="60px" xmlns="http://www.w3.org/2000/svg"><defs><symbol id="agencies-marketing" viewBox="0 0 71 60"><g opacity="0.5"><path d="M6.51005 47.2853C6.0627 47.3776 5.61049 47.3955 5.17434 47.346C4.64781 47.2858 4.13732 47.1265 3.67734 46.8836C3.19211 46.6276 2.75301 46.274 2.3946 45.8432C2.04827 45.4279 1.77627 44.9368 1.60773 44.3933L0.603741 41.1511C0.436161 40.6076 0.384198 40.0524 0.434222 39.5152C0.48668 38.9567 0.649885 38.4175 0.905377 37.9313C1.14824 37.4714 1.4795 37.0512 1.87973 36.7034C2.21343 36.4149 2.59714 36.1745 3.01778 35.9977C3.03575 35.8398 3.06538 35.6853 3.1057 35.5362C3.16593 35.3118 3.25287 35.0923 3.36216 34.8849C3.55305 34.522 3.81874 34.1922 4.14174 33.9236C4.45357 33.6647 4.82126 33.4598 5.22831 33.334L16.0157 29.9955L38.0684 12.4106C38.3175 12.2149 38.5881 12.074 38.862 11.9895C39.338 11.8423 39.8393 11.854 40.294 11.9987C40.7486 12.1401 41.1615 12.4189 41.466 12.8031C41.6453 13.0285 41.7866 13.2917 41.8775 13.5827L41.8813 13.5968C42.3831 15.4537 42.9169 17.2902 43.4696 19.1102C43.9986 20.8521 44.5537 22.6055 45.1187 24.361C45.8516 24.3061 46.5662 24.4926 47.1665 24.8617C47.8451 25.2814 48.3813 25.9401 48.6304 26.7503L49.3746 29.1541C49.6165 29.9381 49.5582 30.7579 49.2585 31.4721C48.9942 32.1006 48.544 32.6524 47.9441 33.0312C48.5183 34.8046 49.0832 36.5736 49.6203 38.3202C50.1876 40.1635 50.737 42.017 51.2514 43.8774C51.3305 44.162 51.3572 44.4457 51.3383 44.7152C51.3028 45.2204 51.1095 45.6896 50.806 46.0655C50.5 46.4414 50.0788 46.7275 49.5912 46.8631C49.3313 46.9354 49.051 46.9665 48.7596 46.9471L20.6265 44.8949L18.1959 45.6473L22.5548 56.8417C22.6578 57.1089 22.6418 57.3945 22.5359 57.6368C22.4256 57.8821 22.225 58.0866 21.9579 58.1886L16.2574 59.9552C15.9893 60.0358 15.7105 60.0047 15.4793 59.8867C15.2505 59.7716 15.065 59.569 14.9717 59.3116L10.5701 48.0079L9.8367 48.2347C9.43064 48.3595 9.0134 48.3974 8.61219 48.3615C8.1935 48.3221 7.78889 48.1992 7.42605 48.0089C7.21961 47.9 7.0229 47.766 6.8456 47.6159C6.72563 47.5129 6.61391 47.4022 6.50997 47.2837L6.51005 47.2853ZM16.2012 46.2652L12.5641 47.392L16.5694 57.6782L20.207 56.5523L16.2012 46.2652ZM45.8153 26.5117L47.2355 30.8584C47.2904 30.7695 47.3361 30.6758 47.3686 30.5782C47.4551 30.3222 47.4648 30.038 47.3808 29.7665L46.6366 27.3627C46.5502 27.0805 46.3709 26.8439 46.1397 26.6807C46.0402 26.6098 45.9314 26.553 45.8153 26.5117ZM39.8836 14.2005L39.8268 14.0927C39.7865 14.0427 39.7297 14.0028 39.6689 13.9834C39.6097 13.9645 39.5422 13.962 39.4824 13.9795L39.3649 14.0427L17.7176 31.3042L21.2921 42.8528L48.9054 44.8671L49.022 44.8564C49.0875 44.8399 49.1463 44.802 49.1866 44.7529C49.2284 44.7034 49.2551 44.6393 49.259 44.5693L49.2459 44.4435L39.8836 14.2005ZM3.40199 38.1531L3.17079 38.343C3.0003 38.5043 2.85653 38.6952 2.74821 38.9016C2.61755 39.1498 2.53352 39.4262 2.50729 39.7074C2.48252 39.979 2.50875 40.2616 2.59424 40.539L3.59822 43.7812C3.68371 44.0576 3.82118 44.3053 3.99458 44.5122C4.17623 44.7293 4.40064 44.9095 4.6469 45.0392C4.85431 45.148 5.08017 45.2252 5.31235 45.2622L5.60912 45.2884L3.40199 38.1531ZM15.8248 32.2355L5.83928 35.3258C5.70182 35.3675 5.57699 35.4375 5.47256 35.5249C5.3623 35.6172 5.27099 35.7304 5.20542 35.8557C5.13985 35.9815 5.09613 36.1204 5.08351 36.2627C5.07136 36.3992 5.08448 36.5425 5.12771 36.6824L7.86579 45.5318C7.90756 45.6693 7.97848 45.7951 8.06542 45.8995C8.15674 46.0097 8.27039 46.102 8.39377 46.1666C8.52102 46.2332 8.66091 46.2759 8.80324 46.289C8.93973 46.3012 9.0835 46.2876 9.22339 46.2448L19.2036 43.1542L15.8248 32.2355Z" fill="#093C98"></path><path d="M45.6016 10.6767C45.8474 10.7768 46.1335 10.7826 46.3967 10.6733L50.7294 8.83539C50.9931 8.72416 51.1899 8.51433 51.2885 8.26855C51.389 8.02278 51.3948 7.73669 51.2846 7.47246C51.1733 7.20871 50.9635 7.01199 50.7177 6.91339C50.472 6.81284 50.1859 6.80701 49.9216 6.91727L45.5899 8.75472C45.3272 8.86498 45.1295 9.07578 45.0309 9.32156C44.9303 9.56733 44.9245 9.85342 45.0348 10.1177C45.145 10.3804 45.3558 10.5781 45.6016 10.6767Z" fill="#093C98"></path><path d="M44.5238 6.30033C44.788 6.32316 45.0644 6.24496 45.2839 6.06086L50.3097 1.84233C50.5312 1.65727 50.657 1.39838 50.6798 1.13415C50.7027 0.869914 50.6245 0.593531 50.4404 0.373987C50.2553 0.152491 49.9964 0.0266907 49.7322 0.00386215C49.468 -0.0189676 49.1916 0.0592326 48.972 0.243326L43.9463 4.46186C43.7248 4.64692 43.599 4.90581 43.5761 5.17004C43.5533 5.43428 43.6315 5.71066 43.8156 5.9302C44.0007 6.1517 44.2595 6.2775 44.5238 6.30033Z" fill="#093C98"></path><path d="M55.6549 42.6179C55.8521 42.4403 56.1192 42.3377 56.4039 42.351L61.1033 42.6079C61.3891 42.6229 61.6454 42.7535 61.8217 42.9511C61.9997 43.1481 62.1024 43.4152 62.0884 43.7012C62.0734 43.9871 61.9429 44.2434 61.7452 44.4196C61.5482 44.5976 61.2811 44.7003 60.9951 44.6864L56.2969 44.4296C56.0123 44.4152 55.7547 44.284 55.5785 44.0864C55.4004 43.8894 55.2978 43.6223 55.3117 43.3363C55.3262 43.0517 55.4573 42.7941 55.6549 42.6179Z" fill="#093C98"></path><path d="M56.1278 47.1002C56.3686 46.989 56.6551 46.9686 56.9241 47.0672L63.0841 49.3277C63.3552 49.4265 63.5615 49.6273 63.6727 49.868C63.784 50.1088 63.8043 50.3953 63.7057 50.6643C63.6069 50.9355 63.4062 51.1418 63.1654 51.253C62.9246 51.3643 62.6381 51.3846 62.3691 51.286L56.2091 49.0255C55.938 48.9267 55.7317 48.726 55.6205 48.4852C55.5092 48.2444 55.4889 47.9579 55.5875 47.6889C55.6863 47.4177 55.8871 47.2114 56.1278 47.1002Z" fill="#093C98"></path><path d="M56.0164 13.0929L56.2836 13.9605C52.8927 15.1885 51.1127 18.0653 52.0004 20.9481C52.9053 23.8868 55.1985 24.866 59.6423 24.5701L61.8055 31.5951C59.8053 31.9659 58.0161 31.6282 56.1449 30.8255C55.9705 30.7566 55.7121 30.7136 55.4322 30.7998C54.8725 30.9722 54.5346 31.5665 54.7069 32.1262C54.8276 32.5181 55.0817 32.7463 55.4585 32.8754C57.7172 33.7426 59.9436 34.007 62.2989 33.4962L62.928 35.5393C63.0745 36.0151 63.6236 36.3057 64.0994 36.1592C64.5752 36.0127 64.8658 35.4636 64.7193 34.9878L64.1074 33.0006C67.5369 31.6995 69.3622 28.87 68.44 25.8752C67.5696 23.0484 65.2699 21.9487 60.7227 22.307L58.5941 15.394C59.9139 15.2021 61.2811 15.3633 62.7884 15.8797C63.064 15.9787 63.2685 15.9464 63.4644 15.886C64.0522 15.7051 64.3987 15.1387 64.2177 14.551C64.0884 14.1312 63.7504 13.9288 63.3736 13.7997C61.6445 13.2597 59.9996 13.0921 58.092 13.4649L57.8076 12.5413C57.6611 12.0655 57.112 11.775 56.6362 11.9215C56.1604 12.068 55.8699 12.6171 56.0164 13.0929ZM66.328 26.6788C66.8968 28.526 65.8185 30.2982 63.4546 31.1793L61.3777 24.4341C64.6697 24.2784 65.8196 25.0275 66.328 26.6788ZM54.1124 20.1446C53.5867 18.4373 54.6004 16.6543 56.9449 15.8099L58.9788 22.415C55.6781 22.5428 54.6122 21.7679 54.1124 20.1446Z" fill="#093C98"></path></g></symbol></defs><use href="#agencies-marketing"></use></svg>