<svg width="60px" height="60px" xmlns="http://www.w3.org/2000/svg"><defs><symbol id="agencies-it-services" viewBox="0 0 53 48"><path opacity="0.5" fill-rule="evenodd" clip-rule="evenodd" d="M9.42205 0C6.98413 0 4.99512 1.96003 4.99512 4.3581V6.77686H3.83714C1.95563 6.77686 0.416016 8.29826 0.416016 10.1495V36.1136C0.416016 37.9652 1.95563 39.4863 3.83714 39.4863H19.9377V46.2361H12.6446V46.237C12.4068 46.237 12.1784 46.3298 12.0102 46.4951C11.8426 46.6604 11.7477 46.8845 11.7477 47.1183C11.7477 47.352 11.8425 47.5761 12.0102 47.7415C12.1784 47.9068 12.4068 48 12.6446 48H40.1879H40.1874C40.4252 48 40.6536 47.9068 40.8218 47.7415C40.9895 47.5761 41.0843 47.352 41.0843 47.1183C41.0843 46.8845 40.9895 46.6604 40.8218 46.4951C40.6536 46.3298 40.4252 46.237 40.1874 46.237H32.8944V39.4872H48.9949C50.8764 39.4872 52.416 37.9658 52.416 36.1145V10.1505C52.416 8.29883 50.8764 6.77778 48.9949 6.77778H47.8369V4.35902C47.8369 1.96048 45.8479 0.00091847 43.41 0.00091847L9.42205 0ZM9.42205 1.76299H43.4108C44.8846 1.76299 46.0444 2.90419 46.0444 4.3581V7.64578L46.0449 7.64624C46.0444 7.64991 46.0435 7.65405 46.043 7.65772C46.0435 7.66185 46.0444 7.66553 46.0449 7.66966V26.3576C46.0449 27.8116 44.885 28.9528 43.4113 28.9528H42.0604L42.0599 28.9532C42.1991 28.7939 42.2753 28.5909 42.2757 28.381V24.4371C42.2757 23.9503 41.874 23.5558 41.3793 23.5558H39.4464C39.2838 23.1099 39.097 22.6727 38.8868 22.246L40.2405 20.9358H40.24C40.411 20.77 40.5077 20.5436 40.5077 20.3075C40.5077 20.0715 40.411 19.8451 40.24 19.6793L35.0102 14.6181C34.6613 14.2805 34.1012 14.2805 33.7522 14.6181L32.3849 15.9416C31.9374 15.734 31.4792 15.5494 31.0111 15.3896V13.5348V13.5352C31.0111 13.0485 30.6099 12.6535 30.1147 12.6535H22.7184C22.2232 12.6535 21.822 13.0485 21.822 13.5352V15.3938C21.3558 15.5541 20.8989 15.7387 20.4529 15.9463L19.0809 14.6186L19.0804 14.6182C18.7315 14.2806 18.1714 14.2806 17.8224 14.6182L12.5926 19.6794H12.5931C12.4217 19.8452 12.3254 20.0716 12.3254 20.3076C12.3254 20.5437 12.4217 20.7701 12.5931 20.9359L13.9514 22.2503C13.7412 22.6755 13.5539 23.1113 13.3909 23.5558H11.4538C10.9586 23.5558 10.5574 23.9503 10.5574 24.4371V28.381C10.5597 28.5918 10.6387 28.7948 10.7797 28.9532H9.42188C7.94815 28.9532 6.78832 27.812 6.78832 26.3581V7.66776C6.78879 7.66362 6.78926 7.65995 6.78973 7.65582C6.78973 7.64434 6.78926 7.63286 6.78832 7.62092V4.35393C6.78832 2.90001 7.94817 1.75882 9.42188 1.75882L9.42205 1.76299ZM3.83721 8.53997H4.99519V26.3592C4.99519 28.7577 6.9842 30.7173 9.42212 30.7173H43.4109C45.8488 30.7173 47.8378 28.7572 47.8378 26.3592V8.53997H48.9958C49.9114 8.53997 50.6237 9.24076 50.6237 10.15V36.114C50.6237 37.0229 49.9113 37.7241 48.9958 37.7241H3.83687C2.92133 37.7241 2.209 37.0233 2.209 36.114V10.15C2.209 9.24118 2.92135 8.53997 3.83687 8.53997H3.83721ZM23.6149 14.4186H29.2179V16.0337H29.2184C29.2184 16.4246 29.4804 16.769 29.8616 16.8792C30.6501 17.1074 31.4124 17.4128 32.1364 17.7912V17.7917C32.4825 17.9722 32.9076 17.9115 33.1865 17.6415L34.3813 16.4852L38.3332 20.3097L37.1584 21.4467C36.8725 21.7232 36.808 22.153 37.0014 22.4988C37.3919 23.1982 37.7068 23.9339 37.9417 24.6949C38.0562 25.0665 38.4046 25.3204 38.7994 25.3204H40.4824V28.3831C40.4847 28.5939 40.5636 28.7968 40.7052 28.9548H32.4727C32.596 28.8134 32.6707 28.6366 32.6857 28.4506C32.6973 28.3068 32.7016 28.1631 32.7016 28.0184L32.7011 28.0189V28.0184C32.7011 24.6541 29.8689 21.9217 26.416 21.9217C22.963 21.9217 20.1309 24.6541 20.1309 28.0184C20.1309 28.1626 20.1346 28.3064 20.1467 28.4506C20.1612 28.6366 20.236 28.8134 20.3593 28.9548H12.1343C12.2731 28.7955 12.3497 28.5929 12.3497 28.3831V25.3204H14.0355C14.4298 25.3204 14.7778 25.0674 14.8932 24.6968C15.1291 23.9372 15.4453 23.2029 15.8358 22.5052C16.0296 22.1594 15.9656 21.7287 15.6798 21.4518L14.4998 20.3097L18.4517 16.4852L19.6517 17.6466H19.6512C19.9305 17.9171 20.3565 17.9777 20.7027 17.7963C21.4249 17.4174 22.1853 17.1107 22.9723 16.8815C23.3531 16.7708 23.6142 16.4269 23.6142 16.0365L23.6149 14.4186ZM26.4162 23.6846C28.9152 23.6846 30.9084 25.622 30.9084 28.0183C30.9084 28.1203 30.9047 28.2222 30.8967 28.3237V28.3233C30.8809 28.5529 30.9575 28.7798 31.1097 28.9552H21.7258C21.8767 28.7793 21.9519 28.5524 21.935 28.3233C21.9271 28.2218 21.9234 28.1198 21.9234 28.0179V28.0174C21.9234 25.6211 23.9166 23.6837 26.4156 23.6837L26.4162 23.6846ZM21.731 39.4875H31.1018V46.2374H21.731V39.4875Z" fill="#093C98"></path></symbol></defs><use href="#agencies-it-services"></use></svg>