<svg width="20" height="20" class="fl-shrink icon" xmlns="http://www.w3.org/2000/svg"><defs><symbol id="icon-bd-packaging" viewBox="0 0 22 22"><g><path xmlns="http://www.w3.org/2000/svg" d="M9.89,21.7,2.14,17.27a2.25,2.25,0,0,1-.82-.8A2.15,2.15,0,0,1,1,15.37V6.63a2.15,2.15,0,0,1,.29-1.1,2.25,2.25,0,0,1,.82-.8L9.89.3a2.2,2.2,0,0,1,2.22,0l7.75,4.43a2.25,2.25,0,0,1,.82.8A2.15,2.15,0,0,1,21,6.63v8.74a2.15,2.15,0,0,1-.29,1.1,2.25,2.25,0,0,1-.82.8L12.11,21.7a2.2,2.2,0,0,1-2.22,0Zm0-10.07v7.54L11,19.8l1.11-.63V11.63l6.64-3.82V6.66L17.56,6,11,9.73,4.44,6l-1.19.69V7.81Z"></path></g></symbol></defs><use href="#icon-bd-packaging"></use></svg>