<svg width="60px" height="60px" xmlns="http://www.w3.org/2000/svg"><defs><symbol id="agencies-software-development" viewBox="0 0 60 50"><path opacity="0.5" d="M9.44648 0C8.8845 0.000912367 8.4288 0.455693 8.42652 1.01767V4.12495H1.43598C1.16458 4.12541 0.904563 4.23397 0.712981 4.42647C0.521855 4.61851 0.415111 4.87943 0.416021 5.15084V40.8655C0.416021 41.0712 0.477602 41.2719 0.593462 41.442C0.631323 41.4986 0.675113 41.5515 0.723468 41.5999C0.747644 41.6236 0.772733 41.6464 0.79919 41.6678C0.85256 41.7098 0.910035 41.7467 0.970709 41.7773C1.02408 41.8047 1.07927 41.8275 1.1363 41.8453C1.14451 41.848 1.15226 41.8503 1.16047 41.853H1.1623C1.19468 41.8622 1.22707 41.8699 1.26037 41.8763C1.3183 41.8863 1.37715 41.8913 1.43599 41.8918H19.1777L16.5033 47.9569L10.7576 47.9564C10.2025 47.9687 9.75816 48.4226 9.75816 48.9782C9.75816 49.5338 10.2025 49.9877 10.7576 50H49.332C49.8872 49.9877 50.331 49.5338 50.331 48.9782C50.331 48.4226 49.8872 47.9688 49.332 47.9564H43.5863L40.9119 41.8913H58.6536V41.8918C59.0017 41.8936 59.3265 41.718 59.5158 41.4265V41.4247C59.5532 41.3681 59.5847 41.3079 59.6097 41.245V41.2431C59.6567 41.1227 59.6805 40.995 59.6795 40.8659V5.15129C59.6809 4.87851 59.5728 4.61713 59.3803 4.42463C59.1878 4.23214 58.926 4.12402 58.6536 4.12539H51.6626V1.01811H51.6631C51.6608 0.45613 51.2051 0.00134829 50.6431 0.000437445L9.44648 0ZM10.4724 2.04357H49.6167V8.09266L10.4724 8.0922V2.04357ZM36.8835 3.85359C36.2253 3.85359 35.6719 4.41055 35.6719 5.07284C35.6719 5.73514 36.2253 6.28439 36.8835 6.28439C37.5417 6.28439 38.095 5.73564 38.095 5.07284C38.095 4.4105 37.5417 3.85359 36.8835 3.85359ZM41.3497 3.85359C40.6915 3.85359 40.1381 4.41055 40.1381 5.07284C40.1381 5.73514 40.6915 6.28439 41.3497 6.28439C42.0079 6.28439 42.5589 5.73564 42.5589 5.07284C42.5589 4.4105 42.0079 3.85359 41.3497 3.85359ZM45.814 3.85359C45.1558 3.85359 44.6025 4.41055 44.6025 5.07284C44.6025 5.73514 45.1558 6.28439 45.814 6.28439C46.4722 6.28439 47.0256 5.73564 47.0256 5.07284C47.0256 4.4105 46.4722 3.85359 45.814 3.85359ZM2.4541 6.16855H8.42694V32.8786H2.4541V6.16855ZM51.6633 6.16855H57.6361V32.8786H51.6633V6.16855ZM10.4731 10.1358H49.6174V32.879H10.4731V10.1358ZM31.6884 14.0276C31.24 14.0532 30.8609 14.3693 30.7546 14.8058L27.36 27.6955C27.2838 27.9596 27.3171 28.2438 27.453 28.4828C27.589 28.7223 27.8152 28.8966 28.0812 28.9668C28.3471 29.0371 28.6304 28.9969 28.8662 28.8555C29.1025 28.7146 29.2717 28.4838 29.3356 28.2164L32.7303 15.3268C32.8206 15.0084 32.7512 14.6663 32.5446 14.4085C32.3375 14.1503 32.0186 14.0085 31.6884 14.0276ZM24.0989 15.7697C24.0971 15.7706 24.0948 15.7711 24.093 15.7715C23.8289 15.7916 23.5826 15.9134 23.4065 16.1114L19.026 20.8171C18.6629 21.2089 18.6629 21.8142 19.026 22.2061L23.4065 26.9118C23.5912 27.1116 23.8476 27.2293 24.1194 27.2393C24.3909 27.2494 24.6554 27.1504 24.8543 26.9652C25.0532 26.7795 25.17 26.5222 25.1786 26.2508C25.1873 25.979 25.0874 25.7149 24.9013 25.5169L21.1672 21.5114L24.9013 17.4981C25.1937 17.1943 25.2694 16.7418 25.0915 16.3596C24.9141 15.9769 24.52 15.7428 24.0989 15.7697ZM35.9633 15.7697C35.9291 15.7688 35.8944 15.7692 35.8598 15.7715C35.4638 15.798 35.1185 16.0511 34.9748 16.4215C34.8311 16.7915 34.9146 17.2111 35.1892 17.4981L38.9233 21.5113L35.1892 25.5168C34.9949 25.713 34.8886 25.9793 34.8941 26.2553C34.8996 26.5313 35.0163 26.7936 35.218 26.982C35.4196 27.1704 35.6892 27.2694 35.9647 27.2561C36.2406 27.2429 36.4993 27.1184 36.6817 26.9117L41.064 22.2038H41.0644C41.4262 21.8124 41.4262 21.2085 41.0644 20.8166L36.6822 16.1109H36.6817C36.4984 15.9048 36.2393 15.7816 35.9633 15.7697ZM2.46205 34.9228H57.6361V39.8479H2.46205V34.9228ZM21.4089 41.8914H38.6811L41.3514 47.9565H18.739L21.4089 41.8914Z" fill="#093C98"></path></symbol></defs><use href="#agencies-software-development"></use></svg>