<svg width="25" height="25" fill="#0B3480" xmlns="http://www.w3.org/2000/svg"><defs><symbol id="icon-digital-marketing-cluster" viewBox="0 0 40 40"><g><path d="m22.8 30.6v.4c0 .2-.2.4-.4.4h-4.8c-.2 0-.4-.2-.4-.4v-.4h-17.2v.8c0 0 0 1.2 1.2 1.2h37.6c1.2 0 1.2-1.2 1.2-1.2v-.8h-17.2"></path><path d="m36 6.9h-32.1c-.8 0-1.4.6-1.4 1.4v.5 18.8c0 .8.6 1.4 1.4 1.4h.5 31.2.4c.8 0 1.4-.6 1.4-1.4v-18.8-.5c0-.7-.6-1.4-1.4-1.4m-.4 20.2h-31.2v-18.3h31.2v18.3"></path><path d="m36 6.9h-32v20.7h32v-20.7m-10.4 11.1v-3.2c.7.2 1.1.9 1.1 1.6.1.8-.4 1.4-1.1 1.6m-1.2-6.8c-.1 0-.3 0-.4.1l-4.8 3.1c-.2.1-.3.4-.3.6v2.9c0 .2.1.5.3.6l4.8 3.1c.1.1.2.1.4.1.4 0 .7-.3.7-.7v-9.1c0-.4-.3-.7-.7-.7m-6.1 7.2h-.5l.7 4.5c0 .1 0 .3-.1.4-.1.1-.2.2-.4.2h-1.9c-.2 0-.4-.2-.5-.4l-.6-4.7h-.8c-.5 0-.9-.4-.9-.9v-2.1c0-.5.4-.9.9-.9h4.2v.5 2.9l-.1.5m-3.6-1.1c.2 0 .3-.1.3-.3v-1.1c0-.2-.1-.3-.3-.3-.2 0-.3.1-.3.3v1.1c0 .2.1.3.3.3m1.1 0c.2 0 .3-.1.3-.3v-1.1c0-.2-.1-.3-.3-.3s-.3.1-.3.3v1.1c0 .2.1.3.3.3" fill-rule="evenodd"></path></g></symbol></defs><use href="#icon-digital-marketing-cluster"></use></svg>