<svg width="14" height="14" class="icon" xmlns="http://www.w3.org/2000/svg"><defs><symbol id="icon-no-auth" viewBox="0 0 15 14"><g fill="currentColor"><path d="M4.89238 6.81348C5.53537 7.28464 6.31253 7.53838 7.11137 7.53838C7.91021 7.53838 8.68735 7.28462 9.33036 6.81348C10.3209 6.11213 10.9084 4.97736 10.9057 3.76913C10.9057 2.4223 10.1827 1.17847 9.00843 0.504743C7.83424 -0.168329 6.38842 -0.168329 5.21414 0.504743C4.03994 1.1785 3.3169 2.42237 3.3169 3.76913C3.31419 4.97731 3.90181 6.11218 4.89238 6.81348Z"></path><path d="M14.1 12.5858C13.8168 10.337 12.4536 8.36428 10.4426 7.29407C10.1479 7.5781 9.81451 7.81975 9.45271 8.01225C7.99393 8.80649 6.22821 8.80649 4.76947 8.01225C4.40766 7.81975 4.0743 7.57812 3.77957 7.29407C1.76855 8.36426 0.405379 10.337 0.12213 12.5858C0.0740244 12.9419 0.184466 13.3013 0.425673 13.5692C0.666878 13.8425 1.01446 13.9993 1.37967 14H12.8425C13.2077 13.9993 13.5553 13.8425 13.7965 13.5692C14.0377 13.3013 14.1481 12.9419 14.1 12.5858Z"></path></g></symbol></defs><use href="#icon-no-auth"></use></svg>