<svg width="20" height="20" class="fl-shrink icon" xmlns="http://www.w3.org/2000/svg"><defs><symbol id="icon-bd-apps" viewBox="0 0 22 22"><g><path xmlns="http://www.w3.org/2000/svg" d="M4.43,22A2,2,0,0,1,3,21.41,1.89,1.89,0,0,1,2.41,20V2A1.89,1.89,0,0,1,3,.59,2,2,0,0,1,4.43,0H14.54A2,2,0,0,1,16,.59,1.93,1.93,0,0,1,16.56,2V8H11.45l-.8,3.17A6.61,6.61,0,0,0,9,13.35,6.31,6.31,0,0,0,8.47,16a6.34,6.34,0,0,0,2.18,4.82L11,22ZM13,22l-.58-2.3A4.69,4.69,0,0,1,11,18.09a4.46,4.46,0,0,1,0-4.18,4.69,4.69,0,0,1,1.43-1.61L13,10h4.05l.58,2.3a4.8,4.8,0,0,1,1.43,1.61,4.54,4.54,0,0,1,0,4.18,4.8,4.8,0,0,1-1.43,1.61L17.07,22Zm2-3.5a2.44,2.44,0,0,0,1.8-.73A2.38,2.38,0,0,0,17.57,16a2.41,2.41,0,0,0-.73-1.78,2.6,2.6,0,0,0-3.59,0A2.41,2.41,0,0,0,12.52,16a2.38,2.38,0,0,0,.73,1.77A2.44,2.44,0,0,0,15,18.5ZM9.48,5a1,1,0,0,0,.72-.29A.94.94,0,0,0,10.49,4a.94.94,0,0,0-.29-.71A1,1,0,0,0,9.48,3a1,1,0,0,0-.72.29,1,1,0,0,0,0,1.42A1,1,0,0,0,9.48,5Z"></path></g></symbol></defs><use href="#icon-bd-apps"></use></svg>