<svg width="20" height="20" class="icon icon-ig" xmlns="http://www.w3.org/2000/svg"><defs><symbol id="share-instagram" viewBox="0 0 24 24"><g><path d="M12,5.8c-3.4,0-6.2,2.8-6.2,6.2s2.8,6.2,6.2,6.2s6.2-2.8,6.2-6.2S15.4,5.8,12,5.8 M12,15.9c-2.2,0-4-1.8-4-4s1.8-4,4-4 s4,1.8,4,4S14.2,15.9,12,15.9"></path><circle cx="18.4" cy="5.6" r="1.4"></circle><path d="M22.1,2c-1.3-1.3-3-2-5.1-2H7C2.8,0,0,2.8,0,7v9.9c0,2.1,0.7,3.9,2,5.2c1.3,1.3,3,1.9,5,1.9h9.9c2.1,0,3.8-0.7,5.1-1.9 c1.3-1.3,2-3,2-5.1V7C24,5,23.3,3.2,22.1,2 M21.9,17c0,1.5-0.5,2.7-1.4,3.5c-0.9,0.8-2.1,1.3-3.5,1.3H7.1c-1.5,0-2.7-0.4-3.5-1.3 c-0.9-0.9-1.3-2.1-1.3-3.6V7c0-1.5,0.4-2.7,1.3-3.5c0.8-0.8,2.1-1.3,3.5-1.3h10c1.5,0,2.7,0.4,3.5,1.3c0.8,0.9,1.3,2.1,1.3,3.5V17"></path></g></symbol></defs><use href="#share-instagram"></use></svg>