<svg width="60px" height="60px" xmlns="http://www.w3.org/2000/svg"><defs><symbol id="agencies-business-services" viewBox="0 0 64 50"><path opacity="0.5" d="M62.9763 34.0604L55.6557 14.9859C55.5704 14.763 55.3998 14.5838 55.1819 14.4869C54.9641 14.3891 54.7156 14.383 54.4938 14.4689L46.6774 17.4689C46.2136 17.6466 45.9817 18.1676 46.1599 18.6313L46.3512 19.1298L36.0337 15.5712C33.6972 14.7646 31.1007 15.142 29.0891 16.58L26.4108 18.4953L17.1981 18.8768L17.2924 18.6314C17.4706 18.1676 17.2387 17.6471 16.775 17.4689L8.95856 14.4689C8.7367 14.3826 8.48877 14.3896 8.27042 14.487C8.05209 14.5838 7.88194 14.763 7.79661 14.9859L0.476052 34.0604C0.297873 34.5242 0.529758 35.0447 0.993526 35.2229L8.80993 38.2229C8.91332 38.2631 9.02274 38.2826 9.13216 38.2826C9.25714 38.2826 9.38161 38.2565 9.49807 38.2049C9.7164 38.108 9.88655 37.9288 9.97188 37.7059L10.6304 35.9899L15.735 39.6896C16.4869 40.2347 17.3648 40.8872 18.1753 41.5883C19.2569 42.5234 20.4144 43.3893 21.6169 44.1621L29.2156 49.0458C30.2139 49.6873 31.3528 50 32.4866 50C33.8362 50 35.1799 49.5568 36.27 48.695C37.5183 49.2778 39.0521 49.0529 40.0816 48.0235C40.6277 47.4774 40.9835 46.7918 41.116 46.0474C41.5226 46.2331 41.9678 46.3305 42.4276 46.3305C43.2713 46.3305 44.0648 46.0017 44.6611 45.4049C45.2007 44.8654 45.539 44.1782 45.6384 43.4339C46.8104 43.7641 48.1253 43.4695 49.046 42.548C49.8726 41.7218 50.1793 40.5855 49.9625 39.5279C50.0182 39.5068 50.0719 39.4792 50.1241 39.4466L53.3585 37.3882L53.4804 37.7059C53.5658 37.9287 53.7364 38.1079 53.9543 38.2048C54.0707 38.257 54.1952 38.2826 54.3202 38.2826C54.4296 38.2826 54.5385 38.263 54.6424 38.2229L62.4588 35.2228C62.9226 35.0452 63.1545 34.5242 62.9763 34.0604L62.9763 34.0604ZM8.61535 36.2206L2.47833 33.8662L9.15437 16.471L15.2914 18.8254L15.0264 19.5156C15.0264 19.5161 15.0259 19.5166 15.0259 19.5166L8.61535 36.2206ZM47.7757 41.276C47.1207 41.931 46.0546 41.931 45.4002 41.276L38.5896 34.4654C38.2383 34.1141 37.6691 34.1141 37.3178 34.4654C36.9664 34.8168 36.9664 35.386 37.3178 35.7373L43.4106 41.8301C43.7077 42.1378 43.8713 42.5418 43.8713 42.9715C43.8713 43.4107 43.7007 43.8232 43.39 44.1329C42.8775 44.6464 41.9816 44.6479 41.4676 44.1329L35.8166 38.4819C35.4652 38.1305 34.896 38.1305 34.5447 38.4819C34.1934 38.8332 34.1934 39.4024 34.5447 39.7537L38.811 44.0206C39.5634 44.7729 39.5634 45.9987 38.811 46.751C38.2037 47.3588 37.2199 47.3653 36.604 46.7706L31.0478 41.2143C30.6965 40.863 30.1273 40.863 29.7759 41.2143C29.4246 41.5657 29.4246 42.1349 29.7759 42.4862L34.8153 47.526C33.4324 48.4134 31.609 48.445 30.189 47.5316L22.5904 42.6478C21.4591 41.9211 20.37 41.1059 19.3531 40.2271C18.4908 39.4817 17.5748 38.8005 16.7912 38.2329L11.4643 34.3721C11.4081 34.3314 11.3444 34.3154 11.2831 34.2888L16.496 20.7046L23.8598 20.4C23.2198 20.9787 22.6627 21.6397 22.2054 22.381L20.0066 25.9441C19.6427 26.5344 19.5363 27.2295 19.7079 27.901C19.8791 28.5726 20.3047 29.1322 20.9065 29.4751C23.2259 30.8001 26.121 30.494 28.1121 28.7131L30.3075 26.7492L34.7655 25.4547L47.801 39.1327C48.3797 39.74 48.3681 40.6806 47.7749 41.2738L47.7757 41.276ZM52.675 35.6911L49.1601 37.9287C49.1551 37.9322 49.1501 37.9352 49.1456 37.9387C49.132 37.9242 49.1179 37.9091 49.1039 37.8945L35.6919 23.8196C35.5198 23.6389 35.2834 23.5405 35.0409 23.5405C34.9571 23.5405 34.8728 23.5525 34.79 23.5761L29.6106 25.0799C29.4811 25.117 29.3622 25.1833 29.2618 25.2731L26.9139 27.3737C25.501 28.6385 23.4466 28.8558 21.7998 27.9143C21.6251 27.8154 21.5016 27.6528 21.4524 27.458C21.4028 27.2628 21.4334 27.061 21.5393 26.8893L23.7382 23.3263C24.2561 22.4865 24.9262 21.7693 25.7298 21.1941L30.1377 18.042C31.677 16.9423 33.6627 16.6547 35.4495 17.2706L47.1955 21.3221L48.7564 25.3891L52.6764 35.691L52.675 35.6911ZM54.8388 36.2211L50.4385 24.7553L48.741 20.2947C48.7334 20.2747 48.7154 20.2616 48.7063 20.242L48.1628 18.8252L54.2998 16.4707L60.9758 33.8659L54.8388 36.2204L54.8388 36.2211ZM30.8276 9.48076V0.899441C30.8276 0.402539 31.2301 0 31.727 0C32.2239 0 32.6264 0.402539 32.6264 0.899441V9.48076C32.6264 9.97766 32.2239 10.3802 31.727 10.3802C31.2301 10.3802 30.8276 9.97766 30.8276 9.48076ZM16.8284 7.88515C16.5328 7.48612 16.6161 6.92246 17.0151 6.62683C17.4136 6.33119 17.9773 6.41452 18.2734 6.81304L21.9902 11.8232C22.2858 12.2222 22.2025 12.7859 21.8035 13.0815C21.6424 13.201 21.4546 13.2587 21.2684 13.2587C20.9934 13.2587 20.7218 13.1327 20.5451 12.8953L16.8284 7.88515ZM41.6504 13.0815C41.2514 12.7858 41.1681 12.2222 41.4637 11.8232L45.1805 6.81301C45.4766 6.41448 46.0407 6.33117 46.4388 6.6268C46.8378 6.92243 46.9211 7.48609 46.6255 7.88512L42.9087 12.8953C42.7326 13.1327 42.4605 13.2587 42.1855 13.2587C41.9993 13.2587 41.811 13.2009 41.6504 13.0815Z" fill="#093C98"></path></symbol></defs><use href="#agencies-business-services"></use></svg>