<svg width="60px" height="60px" xmlns="http://www.w3.org/2000/svg"><defs><symbol id="agencies-branding-creative" viewBox="0 0 44 60"><path opacity="0.5" d="M22.0159 0C10.1062 0 0.416016 9.55075 0.416016 21.2902C0.416016 28.0903 3.7581 34.5378 9.35758 38.5348C11.3085 39.9272 12.6024 42.0921 13.0206 44.5162H11.2161V46.4517H13.1797V48.3871H11.2161V50.3226H13.1797V53.2258C13.1797 53.7598 13.6198 54.1936 14.1615 54.1936H15.2218C15.7008 57.4714 18.5608 60 22.016 60C25.4712 60 28.3311 57.4714 28.8103 54.1936H29.8705C30.4123 54.1936 30.8523 53.7598 30.8523 53.2258V50.3226H32.816V48.3871H30.8523V46.4517H32.816V44.5162H31.0115C31.4296 42.0921 32.724 39.9272 34.6745 38.5348C40.2738 34.5376 43.616 28.0905 43.616 21.2902C43.616 9.5513 33.9264 0 22.0162 0H22.0159ZM22.0159 58.0643C19.646 58.0643 17.6626 56.3988 17.2059 54.1933H26.8259C26.3691 56.3988 24.3858 58.0643 22.0159 58.0643ZM28.8886 52.2579H15.1432V50.3224H28.8886V52.2579ZM28.8886 48.3869H15.1432V46.4514H28.8886V48.3869ZM24.9613 23.2257V44.516H22.9977V23.2257H24.9613ZM19.677 21.2902L22.0159 16.68L24.3547 21.2902H19.677ZM19.0704 23.2257H21.034V44.516H19.0704V23.2257ZM33.5227 36.9665C31.0664 38.7209 29.4609 41.4665 29.0222 44.5157H26.9249V22.2578C26.9249 22.1078 26.8894 21.9588 26.8219 21.8253L22.8947 14.0834C22.562 13.4271 21.471 13.4271 21.1384 14.0834L17.2112 21.8253C17.1423 21.9588 17.1068 22.1078 17.1068 22.2578V44.5157H15.0096C14.5708 41.4665 12.9653 38.7201 10.5091 36.9665C5.41856 33.3328 2.37977 27.4718 2.37977 21.2902C2.37977 10.6179 11.1885 1.93548 22.016 1.93548C32.8435 1.93548 41.6523 10.6179 41.6523 21.2902C41.6523 27.4722 38.6135 33.3333 33.523 36.9665H33.5227Z" fill="#093C98"></path></symbol></defs><use href="#agencies-branding-creative"></use></svg>