<svg class="icon" width="39" height="39" fill="#0F4CC0" xmlns="http://www.w3.org/2000/svg"><defs><symbol id="icon-blaze" viewBox="0 0 39 39"><g><path d="M32.1656 23.4092C23.1279 26.3951 20.1184 29.4052 17.1324 38.4425C16.8867 39.1854 15.8361 39.1854 15.5905 38.4425C12.6046 29.4047 9.59446 26.3952 0.557228 23.4092C-0.185743 23.1636 -0.185743 22.113 0.557228 21.8673C9.59497 18.8814 12.6045 15.8713 15.5905 6.83408C15.8361 6.09111 16.8867 6.09111 17.1324 6.83408C20.1182 15.8718 23.1284 18.8813 32.1656 21.8673C32.9086 22.113 32.9086 23.1636 32.1656 23.4092Z"></path><path d="M38.7216 8.56721C34.2038 10.0592 32.6979 11.5651 31.2039 16.0849C31.0821 16.4563 30.5568 16.4563 30.433 16.0849C28.941 11.5671 27.4351 10.0612 22.9153 8.56721C22.5438 8.44537 22.5438 7.9201 22.9153 7.79627C27.4331 6.30429 28.939 4.79836 30.433 0.278618C30.5548 -0.0928726 31.0801 -0.0928726 31.2039 0.278618C32.6959 4.79642 34.2018 6.30225 38.7216 7.79627C39.0931 7.9181 39.0931 8.44337 38.7216 8.56721Z"></path></g></symbol></defs><use href="#icon-blaze"></use></svg>