<svg width="24" height="24" data-icon-id="#icon-dashboard-design" data-placeholder-id="#icon-agency-category-placeholder" xmlns="http://www.w3.org/2000/svg"><defs><symbol id="icon-dashboard-design" viewBox="0 0 24 24"><g><path d="M20.54,3.44a.86.86,0,0,1,.85.86V6.87a.85.85,0,0,1-.85.85H11.12a.85.85,0,0,1-.85-.85V4.3a.86.86,0,0,1,.85-.86Z"></path><path d="M7.7,11.14a.87.87,0,0,1,.86.86v2.57a.86.86,0,0,1-.86.85H3.42a.85.85,0,0,1-.85-.85V12a.86.86,0,0,1,.85-.86Z"></path><path d="M21.39,9.43a.85.85,0,0,0-.85-.85H11.12a.86.86,0,0,0,0,1.71h9.42A.85.85,0,0,0,21.39,9.43Z"></path><path d="M7.7,8.58a.86.86,0,1,1,0,1.71H3.42a.86.86,0,0,1,0-1.71Z"></path><path d="M8.56,6.86A.86.86,0,0,0,7.7,6H3.42a.86.86,0,0,0,0,1.71H7.7A.86.86,0,0,0,8.56,6.86Z"></path><path d="M7.7,3.44a.86.86,0,1,1,0,1.72H3.42a.86.86,0,0,1,0-1.72Z"></path><path d="M21.39,12a.86.86,0,0,0-.85-.86H11.12a.86.86,0,0,0,0,1.72h9.42A.86.86,0,0,0,21.39,12Z"></path><path d="M20.54,13.71a.86.86,0,0,1,0,1.71H11.12a.86.86,0,0,1,0-1.71Z"></path><path d="M24,3.44A2.57,2.57,0,0,0,21.39.88H2.57A2.57,2.57,0,0,0,0,3.44v12A2.57,2.57,0,0,0,2.57,18H7.7v.86a2.56,2.56,0,0,0-2.57,2.56v.86a.86.86,0,0,0,.86.85H18a.85.85,0,0,0,.85-.85v-.86a2.55,2.55,0,0,0-2.56-2.56V18h5.13A2.57,2.57,0,0,0,24,15.42ZM21.39,16.28H2.57a.85.85,0,0,1-.86-.86v-12a.85.85,0,0,1,.86-.85H21.39a.86.86,0,0,1,.86.85v12A.86.86,0,0,1,21.39,16.28Z"></path></g></symbol></defs><use href="#icon-dashboard-design"></use></svg>