<svg width="20" height="20" xmlns="http://www.w3.org/2000/svg"><defs><symbol id="icon-view" viewBox="0 0 24.59 14"><g><path d="M12.29,14C5.82,14,.73,7.89.52,7.63L0,7l.52-.63C.73,6.11,5.82,0,12.29,0S23.85,6.11,24.07,6.37l.52.63-.52.63C23.85,7.89,18.77,14,12.29,14ZM2.64,7c1.41,1.47,5.26,5,9.65,5s8.24-3.53,9.65-5c-1.41-1.47-5.26-5-9.65-5S4.05,5.52,2.64,7Z"></path><path d="M12.29 14a7 7 0 1 1 7 -7A7 7 0 0 1 12.29 14m0-12a5 5 0 1 0 5 5A5 5 0 0 0 12.29 2"></path><path d="M12.29 9a2 2 0 1 1 2 -2A2 2 0 0 1 12.29 9m0-2"></path></g></symbol></defs><use href="#icon-view"></use></svg>