<svg width="20" height="20" class="icon icon-yt" xmlns="http://www.w3.org/2000/svg"><defs><symbol id="share-youtube" viewBox="0 0 24 24"><g><path d="M23.8,7c0-2.1-1.6-3.8-3.5-3.8C17.8,3,15.1,3,12.4,3h-0.8c-2.7,0-5.4,0-8,0.2C1.7,3.2,0.2,4.9,0.2,7C0,8.7,0,10.3,0,12 c0,1.7,0,3.3,0.2,5c0,2.1,1.6,3.8,3.5,3.8C6.4,20.9,9.2,21,12,21c2.9,0,5.6-0.1,8.4-0.2c1.9,0,3.5-1.7,3.5-3.8 c0.1-1.7,0.2-3.3,0.2-5C24,10.3,24,8.6,23.8,7z M9.7,16.6V7.4l6.8,4.6L9.7,16.6z"></path></g></symbol></defs><use href="#share-youtube"></use></svg>