<svg width="21" height="19" xmlns="http://www.w3.org/2000/svg"><defs><symbol id="featured-agency-category" viewBox="0 0 23 20"><path d="M18.8888 3.33333H15.5554C15.5554 1.44438 14.111 0 12.2221 0H9.99981C8.11105 0 6.66667 1.44438 6.66667 3.33333H3.33333C1.44438 3.33333 0 4.77771 0 6.66667V16.6667C0 18.5556 1.44438 20 3.33333 20H18.889C20.778 20 22.2224 18.5556 22.2224 16.6667L22.2222 6.66667C22.2222 4.77771 20.7778 3.33333 18.8889 3.33333H18.8888ZM10.0002 2.22229H12.2225C12.8891 2.22229 13.3335 2.66667 13.3335 3.33333H8.88914C8.88896 2.66667 9.33353 2.22229 10.0002 2.22229ZM3.33352 5.55562H18.8892C19.5559 5.55562 20.0003 6 20.0003 6.66667C20.0003 7.88895 19.0003 8.88895 17.778 8.88895H4.44467C3.22238 8.88895 2.22238 7.88895 2.22238 6.66667C2.22238 6 2.66695 5.55562 3.33362 5.55562H3.33352ZM18.8888 17.7775H3.33352C2.66686 17.7775 2.22248 17.3331 2.22248 16.6665V10.4441C2.88895 10.8887 3.66686 11.1108 4.44457 11.1108H17.7779C18.5556 11.1108 19.3335 10.8885 20.0002 10.4441V16.6665C20.0002 17.3331 19.5556 17.7775 18.889 17.7775H18.8888Z" fill="#0181dd"></path></symbol></defs><use href="#featured-agency-category"></use></svg>