<svg xmlns="http://www.w3.org/2000/svg" xmlns:xlink="http://www.w3.org/1999/xlink"><symbol id="icon-logout" viewBox="0 0 20 22"><g><path d="M3.72626 12.3725V10.5422H8.36516V8.30932H3.72626V6.47908L0 9.40753L3.72626 12.3725ZM7.03426 17.8997H9.69585V5.19784C9.69585 4.83169 9.92395 4.46581 10.3043 4.31926L18.1372 1.06144H7.03425V7.57709H5.9317L5.93143 0.548968C5.93143 0.256096 6.19773 0 6.50168 0H19.4298C19.734 0 20 0.256358 20 0.548968V18.4487C20 18.7416 19.7337 18.9977 19.4298 18.9977H18.137L11.0646 21.9261C10.4182 22.1825 9.69574 21.7431 9.69574 21.0476V18.9978H6.46359C6.15937 18.9978 5.89334 18.7414 5.89334 18.4488L5.89361 11.2742H6.99616L6.99642 17.8997H7.03426Z"></path></g></symbol><symbol id="icon-no-auth" viewBox="0 0 15 14"><g fill="currentColor"><path d="M4.89238 6.81348C5.53537 7.28464 6.31253 7.53838 7.11137 7.53838C7.91021 7.53838 8.68735 7.28462 9.33036 6.81348C10.3209 6.11213 10.9084 4.97736 10.9057 3.76913C10.9057 2.4223 10.1827 1.17847 9.00843 0.504743C7.83424 -0.168329 6.38842 -0.168329 5.21414 0.504743C4.03994 1.1785 3.3169 2.42237 3.3169 3.76913C3.31419 4.97731 3.90181 6.11218 4.89238 6.81348Z"></path><path d="M14.1 12.5858C13.8168 10.337 12.4536 8.36428 10.4426 7.29407C10.1479 7.5781 9.81451 7.81975 9.45271 8.01225C7.99393 8.80649 6.22821 8.80649 4.76947 8.01225C4.40766 7.81975 4.0743 7.57812 3.77957 7.29407C1.76855 8.36426 0.405379 10.337 0.12213 12.5858C0.0740244 12.9419 0.184466 13.3013 0.425673 13.5692C0.666878 13.8425 1.01446 13.9993 1.37967 14H12.8425C13.2077 13.9993 13.5553 13.8425 13.7965 13.5692C14.0377 13.3013 14.1481 12.9419 14.1 12.5858Z"></path></g></symbol><symbol id="icon-loading" viewBox="0 0 100 100"><g fill="currentColor"><circle cx="50" cy="50" r="30" stroke="transparent" stroke-width="10" fill="none"></circle><circle cx="50" cy="50" r="30" stroke="currentColor" stroke-width="8" stroke-linecap="round" fill="none"><animateTransform attributeName="transform" type="rotate" repeatCount="indefinite" dur="1s" values="0 50 50;180 50 50;720 50 50" keyTimes="0;0.5;1"></animateTransform><animate attributeName="stroke-dasharray" repeatCount="indefinite" dur="1s" values="18.84955592153876 169.64600329384882;94.2477796076938 94.24777960769377;18.84955592153876 169.64600329384882" keyTimes="0;0.5;1"></animate></circle></g></symbol><symbol id="agencies-branding-creative" viewBox="0 0 44 60"><path opacity="0.5" d="M22.0159 0C10.1062 0 0.416016 9.55075 0.416016 21.2902C0.416016 28.0903 3.7581 34.5378 9.35758 38.5348C11.3085 39.9272 12.6024 42.0921 13.0206 44.5162H11.2161V46.4517H13.1797V48.3871H11.2161V50.3226H13.1797V53.2258C13.1797 53.7598 13.6198 54.1936 14.1615 54.1936H15.2218C15.7008 57.4714 18.5608 60 22.016 60C25.4712 60 28.3311 57.4714 28.8103 54.1936H29.8705C30.4123 54.1936 30.8523 53.7598 30.8523 53.2258V50.3226H32.816V48.3871H30.8523V46.4517H32.816V44.5162H31.0115C31.4296 42.0921 32.724 39.9272 34.6745 38.5348C40.2738 34.5376 43.616 28.0905 43.616 21.2902C43.616 9.5513 33.9264 0 22.0162 0H22.0159ZM22.0159 58.0643C19.646 58.0643 17.6626 56.3988 17.2059 54.1933H26.8259C26.3691 56.3988 24.3858 58.0643 22.0159 58.0643ZM28.8886 52.2579H15.1432V50.3224H28.8886V52.2579ZM28.8886 48.3869H15.1432V46.4514H28.8886V48.3869ZM24.9613 23.2257V44.516H22.9977V23.2257H24.9613ZM19.677 21.2902L22.0159 16.68L24.3547 21.2902H19.677ZM19.0704 23.2257H21.034V44.516H19.0704V23.2257ZM33.5227 36.9665C31.0664 38.7209 29.4609 41.4665 29.0222 44.5157H26.9249V22.2578C26.9249 22.1078 26.8894 21.9588 26.8219 21.8253L22.8947 14.0834C22.562 13.4271 21.471 13.4271 21.1384 14.0834L17.2112 21.8253C17.1423 21.9588 17.1068 22.1078 17.1068 22.2578V44.5157H15.0096C14.5708 41.4665 12.9653 38.7201 10.5091 36.9665C5.41856 33.3328 2.37977 27.4718 2.37977 21.2902C2.37977 10.6179 11.1885 1.93548 22.016 1.93548C32.8435 1.93548 41.6523 10.6179 41.6523 21.2902C41.6523 27.4722 38.6135 33.3333 33.523 36.9665H33.5227Z" fill="#093C98"></path></symbol><symbol id="agencies-web-app" viewBox="0 0 56 55"><g opacity="0.5"><path d="M34.1502 52.1184C34.1302 51.9417 34.08 51.7678 33.9809 51.6064C33.6168 51.0186 32.8467 50.8349 32.2608 51.1976C31.2549 51.8171 30.2179 52.2081 29.166 52.3858V40.0001H31.1787C31.8692 40.0001 32.4287 39.4402 32.4287 38.7501C32.4287 38.06 31.8692 37.5001 31.1787 37.5001H29.166V28.7501H32.1032C32.7938 28.7501 33.3532 28.1902 33.3532 27.5001C33.3532 26.81 32.7938 26.2501 32.1032 26.2501H29.166V17.5001H40.51C41.2494 20.5655 41.666 23.944 41.666 27.5001C41.666 28.1902 42.2255 28.7501 42.916 28.7501H52.8519C52.7872 30.0369 52.6552 31.3147 52.3924 32.554C52.2497 33.2292 52.6817 33.8928 53.3569 34.036C54.0321 34.1806 54.6962 33.7472 54.8389 33.0715C55.2221 31.2617 55.416 29.3862 55.416 27.5C55.416 12.3369 43.0791 0 27.916 0C12.7529 0 0.416016 12.3357 0.416016 27.5C0.416016 42.6643 12.7529 55 27.916 55C29.9022 55 31.8567 54.788 33.7266 54.3699C34.3995 54.2192 34.8241 53.5505 34.6725 52.8771C34.5999 52.5525 34.4051 52.2912 34.1498 52.1191L34.1502 52.1184ZM26.666 52.3844C22.1176 51.6343 18.2109 46.8389 16.0266 39.9999H26.666V52.3844ZM26.666 37.4999H15.3221C14.6706 34.7981 14.2856 31.8465 14.2009 28.7499H26.6664L26.666 37.4999ZM2.97912 28.7494H11.7017C11.7803 31.8386 12.1417 34.7776 12.7532 37.4994H5.01781C3.83292 34.7976 3.13305 31.8461 2.97912 28.7494ZM5.01781 17.4994H12.7532C12.1417 20.2212 11.7803 23.1602 11.7017 26.2494H2.97912C3.13305 23.1527 3.83292 20.2012 5.01781 17.4994ZM26.6654 26.2494H14.2C14.2846 23.1527 14.6701 20.2012 15.3211 17.4994H26.6651L26.6654 26.2494ZM26.6654 2.61487V14.9994H16.026C18.2098 8.16023 22.1175 3.36392 26.6654 2.61487ZM29.1654 14.9994V2.61487C33.7139 3.36496 37.6206 8.16034 39.8048 14.9994H29.1654ZM43.0785 17.4994H50.8134C51.9983 20.2012 52.6982 23.1527 52.8521 26.2494H44.1495C44.0714 23.1561 43.69 20.224 43.079 17.4994H43.0785ZM49.5327 14.9994H42.4298C41.0886 10.4588 39.0351 6.67725 36.4933 4.04749C42.0117 6.07368 46.6175 9.97796 49.5326 14.9994H49.5327ZM19.3506 4.04285C16.8032 6.67356 14.7426 10.4514 13.3991 14.9994H6.29769C9.21484 9.97427 13.8256 6.06665 19.3501 4.04285H19.3506ZM6.29817 40H13.3996C14.7431 44.548 16.8036 48.3259 19.351 50.9565C13.8265 48.9327 9.21567 45.0251 6.29865 40H6.29817Z" fill="#093C98"></path><path d="M53.997 37.1555L37.8387 29.3988C37.0282 29.0101 36.0628 29.0882 35.3238 29.6044C34.584 30.121 34.1799 31.0005 34.2677 31.8984L36.0302 49.7353C36.1274 50.7305 36.778 51.5452 37.7281 51.8619C38.6786 52.1786 39.6858 51.9154 40.3616 51.1787L42.6062 48.7261L45.5368 52.9101C46.1106 53.7308 46.97 54.2786 47.9573 54.4526C48.1772 54.4921 48.3967 54.5107 48.6153 54.5107C49.3779 54.5107 50.122 54.2782 50.7586 53.8322L52.8071 52.398C54.5003 51.2122 54.9136 48.8694 53.7283 47.1753L50.7977 42.9905L53.8692 41.7205C54.7947 41.3378 55.3866 40.4794 55.4132 39.4786C55.4411 38.4779 54.8979 37.5892 53.9958 37.1558L53.997 37.1555ZM48.4037 41.2748C48.0531 41.4203 47.7871 41.7161 47.6811 42.0802C47.575 42.4448 47.6397 42.8368 47.8568 43.1475L51.6817 48.6083C52.077 49.1728 51.9389 49.9541 51.3753 50.3489L49.3268 51.783C49.0534 51.9742 48.72 52.0509 48.3916 51.9895C48.0629 51.9314 47.7778 51.7496 47.5862 51.4757L43.7613 46.0148C43.5442 45.7042 43.1973 45.5093 42.8187 45.4842C42.7908 45.4824 42.7638 45.4814 42.7369 45.4814C42.3876 45.4814 42.0523 45.6279 41.8156 45.8874L38.5181 49.4896L36.7556 31.6515L52.9152 39.4081L48.403 41.2743L48.4037 41.2748Z" fill="#093C98"></path></g></symbol><symbol id="agencies-website-app" viewBox="0 0 56 55"><g opacity="0.5"><path d="M34.1502 52.1184C34.1302 51.9417 34.08 51.7678 33.9809 51.6064C33.6168 51.0186 32.8467 50.8349 32.2608 51.1976C31.2549 51.8171 30.2179 52.2081 29.166 52.3858V40.0001H31.1787C31.8692 40.0001 32.4287 39.4402 32.4287 38.7501C32.4287 38.06 31.8692 37.5001 31.1787 37.5001H29.166V28.7501H32.1032C32.7938 28.7501 33.3532 28.1902 33.3532 27.5001C33.3532 26.81 32.7938 26.2501 32.1032 26.2501H29.166V17.5001H40.51C41.2494 20.5655 41.666 23.944 41.666 27.5001C41.666 28.1902 42.2255 28.7501 42.916 28.7501H52.8519C52.7872 30.0369 52.6552 31.3147 52.3924 32.554C52.2497 33.2292 52.6817 33.8928 53.3569 34.036C54.0321 34.1806 54.6962 33.7472 54.8389 33.0715C55.2221 31.2617 55.416 29.3862 55.416 27.5C55.416 12.3369 43.0791 0 27.916 0C12.7529 0 0.416016 12.3357 0.416016 27.5C0.416016 42.6643 12.7529 55 27.916 55C29.9022 55 31.8567 54.788 33.7266 54.3699C34.3995 54.2192 34.8241 53.5505 34.6725 52.8771C34.5999 52.5525 34.4051 52.2912 34.1498 52.1191L34.1502 52.1184ZM26.666 52.3844C22.1176 51.6343 18.2109 46.8389 16.0266 39.9999H26.666V52.3844ZM26.666 37.4999H15.3221C14.6706 34.7981 14.2856 31.8465 14.2009 28.7499H26.6664L26.666 37.4999ZM2.97912 28.7494H11.7017C11.7803 31.8386 12.1417 34.7776 12.7532 37.4994H5.01781C3.83292 34.7976 3.13305 31.8461 2.97912 28.7494ZM5.01781 17.4994H12.7532C12.1417 20.2212 11.7803 23.1602 11.7017 26.2494H2.97912C3.13305 23.1527 3.83292 20.2012 5.01781 17.4994ZM26.6654 26.2494H14.2C14.2846 23.1527 14.6701 20.2012 15.3211 17.4994H26.6651L26.6654 26.2494ZM26.6654 2.61487V14.9994H16.026C18.2098 8.16023 22.1175 3.36392 26.6654 2.61487ZM29.1654 14.9994V2.61487C33.7139 3.36496 37.6206 8.16034 39.8048 14.9994H29.1654ZM43.0785 17.4994H50.8134C51.9983 20.2012 52.6982 23.1527 52.8521 26.2494H44.1495C44.0714 23.1561 43.69 20.224 43.079 17.4994H43.0785ZM49.5327 14.9994H42.4298C41.0886 10.4588 39.0351 6.67725 36.4933 4.04749C42.0117 6.07368 46.6175 9.97796 49.5326 14.9994H49.5327ZM19.3506 4.04285C16.8032 6.67356 14.7426 10.4514 13.3991 14.9994H6.29769C9.21484 9.97427 13.8256 6.06665 19.3501 4.04285H19.3506ZM6.29817 40H13.3996C14.7431 44.548 16.8036 48.3259 19.351 50.9565C13.8265 48.9327 9.21567 45.0251 6.29865 40H6.29817Z" fill="#093C98"></path><path d="M53.997 37.1555L37.8387 29.3988C37.0282 29.0101 36.0628 29.0882 35.3238 29.6044C34.584 30.121 34.1799 31.0005 34.2677 31.8984L36.0302 49.7353C36.1274 50.7305 36.778 51.5452 37.7281 51.8619C38.6786 52.1786 39.6858 51.9154 40.3616 51.1787L42.6062 48.7261L45.5368 52.9101C46.1106 53.7308 46.97 54.2786 47.9573 54.4526C48.1772 54.4921 48.3967 54.5107 48.6153 54.5107C49.3779 54.5107 50.122 54.2782 50.7586 53.8322L52.8071 52.398C54.5003 51.2122 54.9136 48.8694 53.7283 47.1753L50.7977 42.9905L53.8692 41.7205C54.7947 41.3378 55.3866 40.4794 55.4132 39.4786C55.4411 38.4779 54.8979 37.5892 53.9958 37.1558L53.997 37.1555ZM48.4037 41.2748C48.0531 41.4203 47.7871 41.7161 47.6811 42.0802C47.575 42.4448 47.6397 42.8368 47.8568 43.1475L51.6817 48.6083C52.077 49.1728 51.9389 49.9541 51.3753 50.3489L49.3268 51.783C49.0534 51.9742 48.72 52.0509 48.3916 51.9895C48.0629 51.9314 47.7778 51.7496 47.5862 51.4757L43.7613 46.0148C43.5442 45.7042 43.1973 45.5093 42.8187 45.4842C42.7908 45.4824 42.7638 45.4814 42.7369 45.4814C42.3876 45.4814 42.0523 45.6279 41.8156 45.8874L38.5181 49.4896L36.7556 31.6515L52.9152 39.4081L48.403 41.2743L48.4037 41.2748Z" fill="#093C98"></path></g></symbol><symbol id="agencies-marketing" viewBox="0 0 71 60"><g opacity="0.5"><path d="M6.51005 47.2853C6.0627 47.3776 5.61049 47.3955 5.17434 47.346C4.64781 47.2858 4.13732 47.1265 3.67734 46.8836C3.19211 46.6276 2.75301 46.274 2.3946 45.8432C2.04827 45.4279 1.77627 44.9368 1.60773 44.3933L0.603741 41.1511C0.436161 40.6076 0.384198 40.0524 0.434222 39.5152C0.48668 38.9567 0.649885 38.4175 0.905377 37.9313C1.14824 37.4714 1.4795 37.0512 1.87973 36.7034C2.21343 36.4149 2.59714 36.1745 3.01778 35.9977C3.03575 35.8398 3.06538 35.6853 3.1057 35.5362C3.16593 35.3118 3.25287 35.0923 3.36216 34.8849C3.55305 34.522 3.81874 34.1922 4.14174 33.9236C4.45357 33.6647 4.82126 33.4598 5.22831 33.334L16.0157 29.9955L38.0684 12.4106C38.3175 12.2149 38.5881 12.074 38.862 11.9895C39.338 11.8423 39.8393 11.854 40.294 11.9987C40.7486 12.1401 41.1615 12.4189 41.466 12.8031C41.6453 13.0285 41.7866 13.2917 41.8775 13.5827L41.8813 13.5968C42.3831 15.4537 42.9169 17.2902 43.4696 19.1102C43.9986 20.8521 44.5537 22.6055 45.1187 24.361C45.8516 24.3061 46.5662 24.4926 47.1665 24.8617C47.8451 25.2814 48.3813 25.9401 48.6304 26.7503L49.3746 29.1541C49.6165 29.9381 49.5582 30.7579 49.2585 31.4721C48.9942 32.1006 48.544 32.6524 47.9441 33.0312C48.5183 34.8046 49.0832 36.5736 49.6203 38.3202C50.1876 40.1635 50.737 42.017 51.2514 43.8774C51.3305 44.162 51.3572 44.4457 51.3383 44.7152C51.3028 45.2204 51.1095 45.6896 50.806 46.0655C50.5 46.4414 50.0788 46.7275 49.5912 46.8631C49.3313 46.9354 49.051 46.9665 48.7596 46.9471L20.6265 44.8949L18.1959 45.6473L22.5548 56.8417C22.6578 57.1089 22.6418 57.3945 22.5359 57.6368C22.4256 57.8821 22.225 58.0866 21.9579 58.1886L16.2574 59.9552C15.9893 60.0358 15.7105 60.0047 15.4793 59.8867C15.2505 59.7716 15.065 59.569 14.9717 59.3116L10.5701 48.0079L9.8367 48.2347C9.43064 48.3595 9.0134 48.3974 8.61219 48.3615C8.1935 48.3221 7.78889 48.1992 7.42605 48.0089C7.21961 47.9 7.0229 47.766 6.8456 47.6159C6.72563 47.5129 6.61391 47.4022 6.50997 47.2837L6.51005 47.2853ZM16.2012 46.2652L12.5641 47.392L16.5694 57.6782L20.207 56.5523L16.2012 46.2652ZM45.8153 26.5117L47.2355 30.8584C47.2904 30.7695 47.3361 30.6758 47.3686 30.5782C47.4551 30.3222 47.4648 30.038 47.3808 29.7665L46.6366 27.3627C46.5502 27.0805 46.3709 26.8439 46.1397 26.6807C46.0402 26.6098 45.9314 26.553 45.8153 26.5117ZM39.8836 14.2005L39.8268 14.0927C39.7865 14.0427 39.7297 14.0028 39.6689 13.9834C39.6097 13.9645 39.5422 13.962 39.4824 13.9795L39.3649 14.0427L17.7176 31.3042L21.2921 42.8528L48.9054 44.8671L49.022 44.8564C49.0875 44.8399 49.1463 44.802 49.1866 44.7529C49.2284 44.7034 49.2551 44.6393 49.259 44.5693L49.2459 44.4435L39.8836 14.2005ZM3.40199 38.1531L3.17079 38.343C3.0003 38.5043 2.85653 38.6952 2.74821 38.9016C2.61755 39.1498 2.53352 39.4262 2.50729 39.7074C2.48252 39.979 2.50875 40.2616 2.59424 40.539L3.59822 43.7812C3.68371 44.0576 3.82118 44.3053 3.99458 44.5122C4.17623 44.7293 4.40064 44.9095 4.6469 45.0392C4.85431 45.148 5.08017 45.2252 5.31235 45.2622L5.60912 45.2884L3.40199 38.1531ZM15.8248 32.2355L5.83928 35.3258C5.70182 35.3675 5.57699 35.4375 5.47256 35.5249C5.3623 35.6172 5.27099 35.7304 5.20542 35.8557C5.13985 35.9815 5.09613 36.1204 5.08351 36.2627C5.07136 36.3992 5.08448 36.5425 5.12771 36.6824L7.86579 45.5318C7.90756 45.6693 7.97848 45.7951 8.06542 45.8995C8.15674 46.0097 8.27039 46.102 8.39377 46.1666C8.52102 46.2332 8.66091 46.2759 8.80324 46.289C8.93973 46.3012 9.0835 46.2876 9.22339 46.2448L19.2036 43.1542L15.8248 32.2355Z" fill="#093C98"></path><path d="M45.6016 10.6767C45.8474 10.7768 46.1335 10.7826 46.3967 10.6733L50.7294 8.83539C50.9931 8.72416 51.1899 8.51433 51.2885 8.26855C51.389 8.02278 51.3948 7.73669 51.2846 7.47246C51.1733 7.20871 50.9635 7.01199 50.7177 6.91339C50.472 6.81284 50.1859 6.80701 49.9216 6.91727L45.5899 8.75472C45.3272 8.86498 45.1295 9.07578 45.0309 9.32156C44.9303 9.56733 44.9245 9.85342 45.0348 10.1177C45.145 10.3804 45.3558 10.5781 45.6016 10.6767Z" fill="#093C98"></path><path d="M44.5238 6.30033C44.788 6.32316 45.0644 6.24496 45.2839 6.06086L50.3097 1.84233C50.5312 1.65727 50.657 1.39838 50.6798 1.13415C50.7027 0.869914 50.6245 0.593531 50.4404 0.373987C50.2553 0.152491 49.9964 0.0266907 49.7322 0.00386215C49.468 -0.0189676 49.1916 0.0592326 48.972 0.243326L43.9463 4.46186C43.7248 4.64692 43.599 4.90581 43.5761 5.17004C43.5533 5.43428 43.6315 5.71066 43.8156 5.9302C44.0007 6.1517 44.2595 6.2775 44.5238 6.30033Z" fill="#093C98"></path><path d="M55.6549 42.6179C55.8521 42.4403 56.1192 42.3377 56.4039 42.351L61.1033 42.6079C61.3891 42.6229 61.6454 42.7535 61.8217 42.9511C61.9997 43.1481 62.1024 43.4152 62.0884 43.7012C62.0734 43.9871 61.9429 44.2434 61.7452 44.4196C61.5482 44.5976 61.2811 44.7003 60.9951 44.6864L56.2969 44.4296C56.0123 44.4152 55.7547 44.284 55.5785 44.0864C55.4004 43.8894 55.2978 43.6223 55.3117 43.3363C55.3262 43.0517 55.4573 42.7941 55.6549 42.6179Z" fill="#093C98"></path><path d="M56.1278 47.1002C56.3686 46.989 56.6551 46.9686 56.9241 47.0672L63.0841 49.3277C63.3552 49.4265 63.5615 49.6273 63.6727 49.868C63.784 50.1088 63.8043 50.3953 63.7057 50.6643C63.6069 50.9355 63.4062 51.1418 63.1654 51.253C62.9246 51.3643 62.6381 51.3846 62.3691 51.286L56.2091 49.0255C55.938 48.9267 55.7317 48.726 55.6205 48.4852C55.5092 48.2444 55.4889 47.9579 55.5875 47.6889C55.6863 47.4177 55.8871 47.2114 56.1278 47.1002Z" fill="#093C98"></path><path d="M56.0164 13.0929L56.2836 13.9605C52.8927 15.1885 51.1127 18.0653 52.0004 20.9481C52.9053 23.8868 55.1985 24.866 59.6423 24.5701L61.8055 31.5951C59.8053 31.9659 58.0161 31.6282 56.1449 30.8255C55.9705 30.7566 55.7121 30.7136 55.4322 30.7998C54.8725 30.9722 54.5346 31.5665 54.7069 32.1262C54.8276 32.5181 55.0817 32.7463 55.4585 32.8754C57.7172 33.7426 59.9436 34.007 62.2989 33.4962L62.928 35.5393C63.0745 36.0151 63.6236 36.3057 64.0994 36.1592C64.5752 36.0127 64.8658 35.4636 64.7193 34.9878L64.1074 33.0006C67.5369 31.6995 69.3622 28.87 68.44 25.8752C67.5696 23.0484 65.2699 21.9487 60.7227 22.307L58.5941 15.394C59.9139 15.2021 61.2811 15.3633 62.7884 15.8797C63.064 15.9787 63.2685 15.9464 63.4644 15.886C64.0522 15.7051 64.3987 15.1387 64.2177 14.551C64.0884 14.1312 63.7504 13.9288 63.3736 13.7997C61.6445 13.2597 59.9996 13.0921 58.092 13.4649L57.8076 12.5413C57.6611 12.0655 57.112 11.775 56.6362 11.9215C56.1604 12.068 55.8699 12.6171 56.0164 13.0929ZM66.328 26.6788C66.8968 28.526 65.8185 30.2982 63.4546 31.1793L61.3777 24.4341C64.6697 24.2784 65.8196 25.0275 66.328 26.6788ZM54.1124 20.1446C53.5867 18.4373 54.6004 16.6543 56.9449 15.8099L58.9788 22.415C55.6781 22.5428 54.6122 21.7679 54.1124 20.1446Z" fill="#093C98"></path></g></symbol><symbol id="agencies-business-services" viewBox="0 0 64 50"><path opacity="0.5" d="M62.9763 34.0604L55.6557 14.9859C55.5704 14.763 55.3998 14.5838 55.1819 14.4869C54.9641 14.3891 54.7156 14.383 54.4938 14.4689L46.6774 17.4689C46.2136 17.6466 45.9817 18.1676 46.1599 18.6313L46.3512 19.1298L36.0337 15.5712C33.6972 14.7646 31.1007 15.142 29.0891 16.58L26.4108 18.4953L17.1981 18.8768L17.2924 18.6314C17.4706 18.1676 17.2387 17.6471 16.775 17.4689L8.95856 14.4689C8.7367 14.3826 8.48877 14.3896 8.27042 14.487C8.05209 14.5838 7.88194 14.763 7.79661 14.9859L0.476052 34.0604C0.297873 34.5242 0.529758 35.0447 0.993526 35.2229L8.80993 38.2229C8.91332 38.2631 9.02274 38.2826 9.13216 38.2826C9.25714 38.2826 9.38161 38.2565 9.49807 38.2049C9.7164 38.108 9.88655 37.9288 9.97188 37.7059L10.6304 35.9899L15.735 39.6896C16.4869 40.2347 17.3648 40.8872 18.1753 41.5883C19.2569 42.5234 20.4144 43.3893 21.6169 44.1621L29.2156 49.0458C30.2139 49.6873 31.3528 50 32.4866 50C33.8362 50 35.1799 49.5568 36.27 48.695C37.5183 49.2778 39.0521 49.0529 40.0816 48.0235C40.6277 47.4774 40.9835 46.7918 41.116 46.0474C41.5226 46.2331 41.9678 46.3305 42.4276 46.3305C43.2713 46.3305 44.0648 46.0017 44.6611 45.4049C45.2007 44.8654 45.539 44.1782 45.6384 43.4339C46.8104 43.7641 48.1253 43.4695 49.046 42.548C49.8726 41.7218 50.1793 40.5855 49.9625 39.5279C50.0182 39.5068 50.0719 39.4792 50.1241 39.4466L53.3585 37.3882L53.4804 37.7059C53.5658 37.9287 53.7364 38.1079 53.9543 38.2048C54.0707 38.257 54.1952 38.2826 54.3202 38.2826C54.4296 38.2826 54.5385 38.263 54.6424 38.2229L62.4588 35.2228C62.9226 35.0452 63.1545 34.5242 62.9763 34.0604L62.9763 34.0604ZM8.61535 36.2206L2.47833 33.8662L9.15437 16.471L15.2914 18.8254L15.0264 19.5156C15.0264 19.5161 15.0259 19.5166 15.0259 19.5166L8.61535 36.2206ZM47.7757 41.276C47.1207 41.931 46.0546 41.931 45.4002 41.276L38.5896 34.4654C38.2383 34.1141 37.6691 34.1141 37.3178 34.4654C36.9664 34.8168 36.9664 35.386 37.3178 35.7373L43.4106 41.8301C43.7077 42.1378 43.8713 42.5418 43.8713 42.9715C43.8713 43.4107 43.7007 43.8232 43.39 44.1329C42.8775 44.6464 41.9816 44.6479 41.4676 44.1329L35.8166 38.4819C35.4652 38.1305 34.896 38.1305 34.5447 38.4819C34.1934 38.8332 34.1934 39.4024 34.5447 39.7537L38.811 44.0206C39.5634 44.7729 39.5634 45.9987 38.811 46.751C38.2037 47.3588 37.2199 47.3653 36.604 46.7706L31.0478 41.2143C30.6965 40.863 30.1273 40.863 29.7759 41.2143C29.4246 41.5657 29.4246 42.1349 29.7759 42.4862L34.8153 47.526C33.4324 48.4134 31.609 48.445 30.189 47.5316L22.5904 42.6478C21.4591 41.9211 20.37 41.1059 19.3531 40.2271C18.4908 39.4817 17.5748 38.8005 16.7912 38.2329L11.4643 34.3721C11.4081 34.3314 11.3444 34.3154 11.2831 34.2888L16.496 20.7046L23.8598 20.4C23.2198 20.9787 22.6627 21.6397 22.2054 22.381L20.0066 25.9441C19.6427 26.5344 19.5363 27.2295 19.7079 27.901C19.8791 28.5726 20.3047 29.1322 20.9065 29.4751C23.2259 30.8001 26.121 30.494 28.1121 28.7131L30.3075 26.7492L34.7655 25.4547L47.801 39.1327C48.3797 39.74 48.3681 40.6806 47.7749 41.2738L47.7757 41.276ZM52.675 35.6911L49.1601 37.9287C49.1551 37.9322 49.1501 37.9352 49.1456 37.9387C49.132 37.9242 49.1179 37.9091 49.1039 37.8945L35.6919 23.8196C35.5198 23.6389 35.2834 23.5405 35.0409 23.5405C34.9571 23.5405 34.8728 23.5525 34.79 23.5761L29.6106 25.0799C29.4811 25.117 29.3622 25.1833 29.2618 25.2731L26.9139 27.3737C25.501 28.6385 23.4466 28.8558 21.7998 27.9143C21.6251 27.8154 21.5016 27.6528 21.4524 27.458C21.4028 27.2628 21.4334 27.061 21.5393 26.8893L23.7382 23.3263C24.2561 22.4865 24.9262 21.7693 25.7298 21.1941L30.1377 18.042C31.677 16.9423 33.6627 16.6547 35.4495 17.2706L47.1955 21.3221L48.7564 25.3891L52.6764 35.691L52.675 35.6911ZM54.8388 36.2211L50.4385 24.7553L48.741 20.2947C48.7334 20.2747 48.7154 20.2616 48.7063 20.242L48.1628 18.8252L54.2998 16.4707L60.9758 33.8659L54.8388 36.2204L54.8388 36.2211ZM30.8276 9.48076V0.899441C30.8276 0.402539 31.2301 0 31.727 0C32.2239 0 32.6264 0.402539 32.6264 0.899441V9.48076C32.6264 9.97766 32.2239 10.3802 31.727 10.3802C31.2301 10.3802 30.8276 9.97766 30.8276 9.48076ZM16.8284 7.88515C16.5328 7.48612 16.6161 6.92246 17.0151 6.62683C17.4136 6.33119 17.9773 6.41452 18.2734 6.81304L21.9902 11.8232C22.2858 12.2222 22.2025 12.7859 21.8035 13.0815C21.6424 13.201 21.4546 13.2587 21.2684 13.2587C20.9934 13.2587 20.7218 13.1327 20.5451 12.8953L16.8284 7.88515ZM41.6504 13.0815C41.2514 12.7858 41.1681 12.2222 41.4637 11.8232L45.1805 6.81301C45.4766 6.41448 46.0407 6.33117 46.4388 6.6268C46.8378 6.92243 46.9211 7.48609 46.6255 7.88512L42.9087 12.8953C42.7326 13.1327 42.4605 13.2587 42.1855 13.2587C41.9993 13.2587 41.811 13.2009 41.6504 13.0815Z" fill="#093C98"></path></symbol><symbol id="agencies-it-services" viewBox="0 0 53 48"><path opacity="0.5" fill-rule="evenodd" clip-rule="evenodd" d="M9.42205 0C6.98413 0 4.99512 1.96003 4.99512 4.3581V6.77686H3.83714C1.95563 6.77686 0.416016 8.29826 0.416016 10.1495V36.1136C0.416016 37.9652 1.95563 39.4863 3.83714 39.4863H19.9377V46.2361H12.6446V46.237C12.4068 46.237 12.1784 46.3298 12.0102 46.4951C11.8426 46.6604 11.7477 46.8845 11.7477 47.1183C11.7477 47.352 11.8425 47.5761 12.0102 47.7415C12.1784 47.9068 12.4068 48 12.6446 48H40.1879H40.1874C40.4252 48 40.6536 47.9068 40.8218 47.7415C40.9895 47.5761 41.0843 47.352 41.0843 47.1183C41.0843 46.8845 40.9895 46.6604 40.8218 46.4951C40.6536 46.3298 40.4252 46.237 40.1874 46.237H32.8944V39.4872H48.9949C50.8764 39.4872 52.416 37.9658 52.416 36.1145V10.1505C52.416 8.29883 50.8764 6.77778 48.9949 6.77778H47.8369V4.35902C47.8369 1.96048 45.8479 0.00091847 43.41 0.00091847L9.42205 0ZM9.42205 1.76299H43.4108C44.8846 1.76299 46.0444 2.90419 46.0444 4.3581V7.64578L46.0449 7.64624C46.0444 7.64991 46.0435 7.65405 46.043 7.65772C46.0435 7.66185 46.0444 7.66553 46.0449 7.66966V26.3576C46.0449 27.8116 44.885 28.9528 43.4113 28.9528H42.0604L42.0599 28.9532C42.1991 28.7939 42.2753 28.5909 42.2757 28.381V24.4371C42.2757 23.9503 41.874 23.5558 41.3793 23.5558H39.4464C39.2838 23.1099 39.097 22.6727 38.8868 22.246L40.2405 20.9358H40.24C40.411 20.77 40.5077 20.5436 40.5077 20.3075C40.5077 20.0715 40.411 19.8451 40.24 19.6793L35.0102 14.6181C34.6613 14.2805 34.1012 14.2805 33.7522 14.6181L32.3849 15.9416C31.9374 15.734 31.4792 15.5494 31.0111 15.3896V13.5348V13.5352C31.0111 13.0485 30.6099 12.6535 30.1147 12.6535H22.7184C22.2232 12.6535 21.822 13.0485 21.822 13.5352V15.3938C21.3558 15.5541 20.8989 15.7387 20.4529 15.9463L19.0809 14.6186L19.0804 14.6182C18.7315 14.2806 18.1714 14.2806 17.8224 14.6182L12.5926 19.6794H12.5931C12.4217 19.8452 12.3254 20.0716 12.3254 20.3076C12.3254 20.5437 12.4217 20.7701 12.5931 20.9359L13.9514 22.2503C13.7412 22.6755 13.5539 23.1113 13.3909 23.5558H11.4538C10.9586 23.5558 10.5574 23.9503 10.5574 24.4371V28.381C10.5597 28.5918 10.6387 28.7948 10.7797 28.9532H9.42188C7.94815 28.9532 6.78832 27.812 6.78832 26.3581V7.66776C6.78879 7.66362 6.78926 7.65995 6.78973 7.65582C6.78973 7.64434 6.78926 7.63286 6.78832 7.62092V4.35393C6.78832 2.90001 7.94817 1.75882 9.42188 1.75882L9.42205 1.76299ZM3.83721 8.53997H4.99519V26.3592C4.99519 28.7577 6.9842 30.7173 9.42212 30.7173H43.4109C45.8488 30.7173 47.8378 28.7572 47.8378 26.3592V8.53997H48.9958C49.9114 8.53997 50.6237 9.24076 50.6237 10.15V36.114C50.6237 37.0229 49.9113 37.7241 48.9958 37.7241H3.83687C2.92133 37.7241 2.209 37.0233 2.209 36.114V10.15C2.209 9.24118 2.92135 8.53997 3.83687 8.53997H3.83721ZM23.6149 14.4186H29.2179V16.0337H29.2184C29.2184 16.4246 29.4804 16.769 29.8616 16.8792C30.6501 17.1074 31.4124 17.4128 32.1364 17.7912V17.7917C32.4825 17.9722 32.9076 17.9115 33.1865 17.6415L34.3813 16.4852L38.3332 20.3097L37.1584 21.4467C36.8725 21.7232 36.808 22.153 37.0014 22.4988C37.3919 23.1982 37.7068 23.9339 37.9417 24.6949C38.0562 25.0665 38.4046 25.3204 38.7994 25.3204H40.4824V28.3831C40.4847 28.5939 40.5636 28.7968 40.7052 28.9548H32.4727C32.596 28.8134 32.6707 28.6366 32.6857 28.4506C32.6973 28.3068 32.7016 28.1631 32.7016 28.0184L32.7011 28.0189V28.0184C32.7011 24.6541 29.8689 21.9217 26.416 21.9217C22.963 21.9217 20.1309 24.6541 20.1309 28.0184C20.1309 28.1626 20.1346 28.3064 20.1467 28.4506C20.1612 28.6366 20.236 28.8134 20.3593 28.9548H12.1343C12.2731 28.7955 12.3497 28.5929 12.3497 28.3831V25.3204H14.0355C14.4298 25.3204 14.7778 25.0674 14.8932 24.6968C15.1291 23.9372 15.4453 23.2029 15.8358 22.5052C16.0296 22.1594 15.9656 21.7287 15.6798 21.4518L14.4998 20.3097L18.4517 16.4852L19.6517 17.6466H19.6512C19.9305 17.9171 20.3565 17.9777 20.7027 17.7963C21.4249 17.4174 22.1853 17.1107 22.9723 16.8815C23.3531 16.7708 23.6142 16.4269 23.6142 16.0365L23.6149 14.4186ZM26.4162 23.6846C28.9152 23.6846 30.9084 25.622 30.9084 28.0183C30.9084 28.1203 30.9047 28.2222 30.8967 28.3237V28.3233C30.8809 28.5529 30.9575 28.7798 31.1097 28.9552H21.7258C21.8767 28.7793 21.9519 28.5524 21.935 28.3233C21.9271 28.2218 21.9234 28.1198 21.9234 28.0179V28.0174C21.9234 25.6211 23.9166 23.6837 26.4156 23.6837L26.4162 23.6846ZM21.731 39.4875H31.1018V46.2374H21.731V39.4875Z" fill="#093C98"></path></symbol><symbol id="agencies-technology" viewBox="0 0 60 50"><path opacity="0.5" d="M9.44648 0C8.8845 0.000912367 8.4288 0.455693 8.42652 1.01767V4.12495H1.43598C1.16458 4.12541 0.904563 4.23397 0.712981 4.42647C0.521855 4.61851 0.415111 4.87943 0.416021 5.15084V40.8655C0.416021 41.0712 0.477602 41.2719 0.593462 41.442C0.631323 41.4986 0.675113 41.5515 0.723468 41.5999C0.747644 41.6236 0.772733 41.6464 0.79919 41.6678C0.85256 41.7098 0.910035 41.7467 0.970709 41.7773C1.02408 41.8047 1.07927 41.8275 1.1363 41.8453C1.14451 41.848 1.15226 41.8503 1.16047 41.853H1.1623C1.19468 41.8622 1.22707 41.8699 1.26037 41.8763C1.3183 41.8863 1.37715 41.8913 1.43599 41.8918H19.1777L16.5033 47.9569L10.7576 47.9564C10.2025 47.9687 9.75816 48.4226 9.75816 48.9782C9.75816 49.5338 10.2025 49.9877 10.7576 50H49.332C49.8872 49.9877 50.331 49.5338 50.331 48.9782C50.331 48.4226 49.8872 47.9688 49.332 47.9564H43.5863L40.9119 41.8913H58.6536V41.8918C59.0017 41.8936 59.3265 41.718 59.5158 41.4265V41.4247C59.5532 41.3681 59.5847 41.3079 59.6097 41.245V41.2431C59.6567 41.1227 59.6805 40.995 59.6795 40.8659V5.15129C59.6809 4.87851 59.5728 4.61713 59.3803 4.42463C59.1878 4.23214 58.926 4.12402 58.6536 4.12539H51.6626V1.01811H51.6631C51.6608 0.45613 51.2051 0.00134829 50.6431 0.000437445L9.44648 0ZM10.4724 2.04357H49.6167V8.09266L10.4724 8.0922V2.04357ZM36.8835 3.85359C36.2253 3.85359 35.6719 4.41055 35.6719 5.07284C35.6719 5.73514 36.2253 6.28439 36.8835 6.28439C37.5417 6.28439 38.095 5.73564 38.095 5.07284C38.095 4.4105 37.5417 3.85359 36.8835 3.85359ZM41.3497 3.85359C40.6915 3.85359 40.1381 4.41055 40.1381 5.07284C40.1381 5.73514 40.6915 6.28439 41.3497 6.28439C42.0079 6.28439 42.5589 5.73564 42.5589 5.07284C42.5589 4.4105 42.0079 3.85359 41.3497 3.85359ZM45.814 3.85359C45.1558 3.85359 44.6025 4.41055 44.6025 5.07284C44.6025 5.73514 45.1558 6.28439 45.814 6.28439C46.4722 6.28439 47.0256 5.73564 47.0256 5.07284C47.0256 4.4105 46.4722 3.85359 45.814 3.85359ZM2.4541 6.16855H8.42694V32.8786H2.4541V6.16855ZM51.6633 6.16855H57.6361V32.8786H51.6633V6.16855ZM10.4731 10.1358H49.6174V32.879H10.4731V10.1358ZM31.6884 14.0276C31.24 14.0532 30.8609 14.3693 30.7546 14.8058L27.36 27.6955C27.2838 27.9596 27.3171 28.2438 27.453 28.4828C27.589 28.7223 27.8152 28.8966 28.0812 28.9668C28.3471 29.0371 28.6304 28.9969 28.8662 28.8555C29.1025 28.7146 29.2717 28.4838 29.3356 28.2164L32.7303 15.3268C32.8206 15.0084 32.7512 14.6663 32.5446 14.4085C32.3375 14.1503 32.0186 14.0085 31.6884 14.0276ZM24.0989 15.7697C24.0971 15.7706 24.0948 15.7711 24.093 15.7715C23.8289 15.7916 23.5826 15.9134 23.4065 16.1114L19.026 20.8171C18.6629 21.2089 18.6629 21.8142 19.026 22.2061L23.4065 26.9118C23.5912 27.1116 23.8476 27.2293 24.1194 27.2393C24.3909 27.2494 24.6554 27.1504 24.8543 26.9652C25.0532 26.7795 25.17 26.5222 25.1786 26.2508C25.1873 25.979 25.0874 25.7149 24.9013 25.5169L21.1672 21.5114L24.9013 17.4981C25.1937 17.1943 25.2694 16.7418 25.0915 16.3596C24.9141 15.9769 24.52 15.7428 24.0989 15.7697ZM35.9633 15.7697C35.9291 15.7688 35.8944 15.7692 35.8598 15.7715C35.4638 15.798 35.1185 16.0511 34.9748 16.4215C34.8311 16.7915 34.9146 17.2111 35.1892 17.4981L38.9233 21.5113L35.1892 25.5168C34.9949 25.713 34.8886 25.9793 34.8941 26.2553C34.8996 26.5313 35.0163 26.7936 35.218 26.982C35.4196 27.1704 35.6892 27.2694 35.9647 27.2561C36.2406 27.2429 36.4993 27.1184 36.6817 26.9117L41.064 22.2038H41.0644C41.4262 21.8124 41.4262 21.2085 41.0644 20.8166L36.6822 16.1109H36.6817C36.4984 15.9048 36.2393 15.7816 35.9633 15.7697ZM2.46205 34.9228H57.6361V39.8479H2.46205V34.9228ZM21.4089 41.8914H38.6811L41.3514 47.9565H18.739L21.4089 41.8914Z" fill="#093C98"></path></symbol><symbol id="agencies-software-development" viewBox="0 0 60 50"><path opacity="0.5" d="M9.44648 0C8.8845 0.000912367 8.4288 0.455693 8.42652 1.01767V4.12495H1.43598C1.16458 4.12541 0.904563 4.23397 0.712981 4.42647C0.521855 4.61851 0.415111 4.87943 0.416021 5.15084V40.8655C0.416021 41.0712 0.477602 41.2719 0.593462 41.442C0.631323 41.4986 0.675113 41.5515 0.723468 41.5999C0.747644 41.6236 0.772733 41.6464 0.79919 41.6678C0.85256 41.7098 0.910035 41.7467 0.970709 41.7773C1.02408 41.8047 1.07927 41.8275 1.1363 41.8453C1.14451 41.848 1.15226 41.8503 1.16047 41.853H1.1623C1.19468 41.8622 1.22707 41.8699 1.26037 41.8763C1.3183 41.8863 1.37715 41.8913 1.43599 41.8918H19.1777L16.5033 47.9569L10.7576 47.9564C10.2025 47.9687 9.75816 48.4226 9.75816 48.9782C9.75816 49.5338 10.2025 49.9877 10.7576 50H49.332C49.8872 49.9877 50.331 49.5338 50.331 48.9782C50.331 48.4226 49.8872 47.9688 49.332 47.9564H43.5863L40.9119 41.8913H58.6536V41.8918C59.0017 41.8936 59.3265 41.718 59.5158 41.4265V41.4247C59.5532 41.3681 59.5847 41.3079 59.6097 41.245V41.2431C59.6567 41.1227 59.6805 40.995 59.6795 40.8659V5.15129C59.6809 4.87851 59.5728 4.61713 59.3803 4.42463C59.1878 4.23214 58.926 4.12402 58.6536 4.12539H51.6626V1.01811H51.6631C51.6608 0.45613 51.2051 0.00134829 50.6431 0.000437445L9.44648 0ZM10.4724 2.04357H49.6167V8.09266L10.4724 8.0922V2.04357ZM36.8835 3.85359C36.2253 3.85359 35.6719 4.41055 35.6719 5.07284C35.6719 5.73514 36.2253 6.28439 36.8835 6.28439C37.5417 6.28439 38.095 5.73564 38.095 5.07284C38.095 4.4105 37.5417 3.85359 36.8835 3.85359ZM41.3497 3.85359C40.6915 3.85359 40.1381 4.41055 40.1381 5.07284C40.1381 5.73514 40.6915 6.28439 41.3497 6.28439C42.0079 6.28439 42.5589 5.73564 42.5589 5.07284C42.5589 4.4105 42.0079 3.85359 41.3497 3.85359ZM45.814 3.85359C45.1558 3.85359 44.6025 4.41055 44.6025 5.07284C44.6025 5.73514 45.1558 6.28439 45.814 6.28439C46.4722 6.28439 47.0256 5.73564 47.0256 5.07284C47.0256 4.4105 46.4722 3.85359 45.814 3.85359ZM2.4541 6.16855H8.42694V32.8786H2.4541V6.16855ZM51.6633 6.16855H57.6361V32.8786H51.6633V6.16855ZM10.4731 10.1358H49.6174V32.879H10.4731V10.1358ZM31.6884 14.0276C31.24 14.0532 30.8609 14.3693 30.7546 14.8058L27.36 27.6955C27.2838 27.9596 27.3171 28.2438 27.453 28.4828C27.589 28.7223 27.8152 28.8966 28.0812 28.9668C28.3471 29.0371 28.6304 28.9969 28.8662 28.8555C29.1025 28.7146 29.2717 28.4838 29.3356 28.2164L32.7303 15.3268C32.8206 15.0084 32.7512 14.6663 32.5446 14.4085C32.3375 14.1503 32.0186 14.0085 31.6884 14.0276ZM24.0989 15.7697C24.0971 15.7706 24.0948 15.7711 24.093 15.7715C23.8289 15.7916 23.5826 15.9134 23.4065 16.1114L19.026 20.8171C18.6629 21.2089 18.6629 21.8142 19.026 22.2061L23.4065 26.9118C23.5912 27.1116 23.8476 27.2293 24.1194 27.2393C24.3909 27.2494 24.6554 27.1504 24.8543 26.9652C25.0532 26.7795 25.17 26.5222 25.1786 26.2508C25.1873 25.979 25.0874 25.7149 24.9013 25.5169L21.1672 21.5114L24.9013 17.4981C25.1937 17.1943 25.2694 16.7418 25.0915 16.3596C24.9141 15.9769 24.52 15.7428 24.0989 15.7697ZM35.9633 15.7697C35.9291 15.7688 35.8944 15.7692 35.8598 15.7715C35.4638 15.798 35.1185 16.0511 34.9748 16.4215C34.8311 16.7915 34.9146 17.2111 35.1892 17.4981L38.9233 21.5113L35.1892 25.5168C34.9949 25.713 34.8886 25.9793 34.8941 26.2553C34.8996 26.5313 35.0163 26.7936 35.218 26.982C35.4196 27.1704 35.6892 27.2694 35.9647 27.2561C36.2406 27.2429 36.4993 27.1184 36.6817 26.9117L41.064 22.2038H41.0644C41.4262 21.8124 41.4262 21.2085 41.0644 20.8166L36.6822 16.1109H36.6817C36.4984 15.9048 36.2393 15.7816 35.9633 15.7697ZM2.46205 34.9228H57.6361V39.8479H2.46205V34.9228ZM21.4089 41.8914H38.6811L41.3514 47.9565H18.739L21.4089 41.8914Z" fill="#093C98"></path></symbol><symbol id="icon-agency-category-placeholder" viewBox="0 0 24 24"><g><path d="M12 0A12 12 0 1 0 24 12 12 12 0 0 0 12 0m0 21.8A9.8 9.8 0 1 1 21.8 12 9.8 9.8 0 0 1 12 21.8"></path><path d="M16.07,7.76a1.44,1.44,0,1,1-1.44-1.44,1.45,1.45,0,0,1,1.44,1.44"></path><path d="M15.92,11.44a.83.83,0,0,0-1.34,0L14,12.2a.28.28,0,0,1-.45,0L11.19,8.89a.83.83,0,0,0-1.34,0l-4,5.71a.82.82,0,0,0,.66,1.29h11a.81.81,0,0,0,.66-1.29l-2.25-3.16"></path></g></symbol><symbol id="icon-dashboard-design" viewBox="0 0 24 24"><g><path d="M20.54,3.44a.86.86,0,0,1,.85.86V6.87a.85.85,0,0,1-.85.85H11.12a.85.85,0,0,1-.85-.85V4.3a.86.86,0,0,1,.85-.86Z"></path><path d="M7.7,11.14a.87.87,0,0,1,.86.86v2.57a.86.86,0,0,1-.86.85H3.42a.85.85,0,0,1-.85-.85V12a.86.86,0,0,1,.85-.86Z"></path><path d="M21.39,9.43a.85.85,0,0,0-.85-.85H11.12a.86.86,0,0,0,0,1.71h9.42A.85.85,0,0,0,21.39,9.43Z"></path><path d="M7.7,8.58a.86.86,0,1,1,0,1.71H3.42a.86.86,0,0,1,0-1.71Z"></path><path d="M8.56,6.86A.86.86,0,0,0,7.7,6H3.42a.86.86,0,0,0,0,1.71H7.7A.86.86,0,0,0,8.56,6.86Z"></path><path d="M7.7,3.44a.86.86,0,1,1,0,1.72H3.42a.86.86,0,0,1,0-1.72Z"></path><path d="M21.39,12a.86.86,0,0,0-.85-.86H11.12a.86.86,0,0,0,0,1.72h9.42A.86.86,0,0,0,21.39,12Z"></path><path d="M20.54,13.71a.86.86,0,0,1,0,1.71H11.12a.86.86,0,0,1,0-1.71Z"></path><path d="M24,3.44A2.57,2.57,0,0,0,21.39.88H2.57A2.57,2.57,0,0,0,0,3.44v12A2.57,2.57,0,0,0,2.57,18H7.7v.86a2.56,2.56,0,0,0-2.57,2.56v.86a.86.86,0,0,0,.86.85H18a.85.85,0,0,0,.85-.85v-.86a2.55,2.55,0,0,0-2.56-2.56V18h5.13A2.57,2.57,0,0,0,24,15.42ZM21.39,16.28H2.57a.85.85,0,0,1-.86-.86v-12a.85.85,0,0,1,.86-.85H21.39a.86.86,0,0,1,.86.85v12A.86.86,0,0,1,21.39,16.28Z"></path></g></symbol><symbol id="icon-category-branding-creative" viewBox="0 0 24 24"><g><path d="M10.71,24h2.58A1.72,1.72,0,0,0,15,22.29v-.86h.43a.86.86,0,0,0,0-1.72H8.57a.86.86,0,0,0,0,1.72H9v.86A1.72,1.72,0,0,0,10.71,24Zm0-2.57h2.58v.86H10.71Z"></path><path d="M15.43,17.14H8.57a.86.86,0,0,0,0,1.72h6.86a.86.86,0,0,0,0-1.72Z"></path><path d="M16.71,15.43v-.66A8.14,8.14,0,1,0,3.86,8.14a8.08,8.08,0,0,0,3.43,6.63v.66a.86.86,0,0,0,.85.86h7.72a.86.86,0,0,0,.85-.86ZM15.4,13.59a.86.86,0,0,0-.4.73v.25H9v-.25a.86.86,0,0,0-.4-.73,6.43,6.43,0,1,1,6.8,0Z"></path></g></symbol><symbol id="icon-category-marketing" viewBox="0 0 24 24"><g><path d="M20.64,5.65h-.47V1.27a.87.87,0,0,0-.11-.41.81.81,0,0,0-.29-.29.77.77,0,0,0-.39-.11.8.8,0,0,0-.4.11C17.06,1.7,11.47,4.64,8.86,4.64H2a1.94,1.94,0,0,0-1.39.59A2,2,0,0,0,0,6.64v6A2,2,0,0,0,.47,13.9a1.88,1.88,0,0,0,1.18.68L4.1,22.35a1.63,1.63,0,0,0,.53.85,1.58,1.58,0,0,0,.93.34l.21,0a6.76,6.76,0,0,0,3-.93,2.4,2.4,0,0,0,.53-.37l.08-.1A2.06,2.06,0,0,0,9.73,21a2,2,0,0,0-.36-1.14A12.1,12.1,0,0,1,8.22,14.6h.63c3.37,0,10.06,4,10.13,4.07a.77.77,0,0,0,.39.11.81.81,0,0,0,.8-.8V12.51h.47a3.38,3.38,0,0,0,1.29-.26A3.66,3.66,0,0,0,23,11.5a3.18,3.18,0,0,0,.72-1.11,3.43,3.43,0,0,0,0-2.62A3.18,3.18,0,0,0,23,6.66a3.66,3.66,0,0,0-1.09-.75A3.38,3.38,0,0,0,20.64,5.65Zm-19.06,7v-6a.39.39,0,0,1,.11-.27A.36.36,0,0,1,2,6.25H8.07V13H2a.38.38,0,0,1-.38-.38Zm6.53,8.5-.1.06-.08,0a5.14,5.14,0,0,1-2.31.7v0l-2.3-7.27H6.65a13.42,13.42,0,0,0,1.4,6.1l0,0a.28.28,0,0,1,.07.17A.31.31,0,0,1,8.11,21.11ZM18.59,5.65v11c-2-1.11-6.06-3.2-9-3.55V6.2c2.81-.38,6.95-2.47,9-3.57Zm2,5.24h-.46V7.27h.47a1.76,1.76,0,0,1,1.26.53,1.84,1.84,0,0,1,0,2.56,1.76,1.76,0,0,1-1.26.53Z"></path></g></symbol><symbol id="icon-digital-design-agencies" viewBox="0 0 24 24"><g><path d="M1.46,4.38H19.28V7.15h1.49V3.8a1,1,0,0,0-.94-.94H.94a1,1,0,0,0-.94,1V16.67a.93.93,0,0,0,.94.94H8.55v1.71H6.87a.46.46,0,0,0-.45.45v.88a.46.46,0,0,0,.45.46H14a.47.47,0,0,0,.46-.46v-.88a.47.47,0,0,0-.46-.45h-1.7V17.61h3.5V14.33H1.46V4.38M10.4,15.3a.67.67,0,0,1,0,1.34.67.67,0,0,1,0-1.34"></path><path d="M23,8.24H17.79a1,1,0,0,0-1,1V20.14a1,1,0,0,0,1,1H23a1,1,0,0,0,1-1V9.22a1,1,0,0,0-1-1M19.59,9h1.64a.21.21,0,0,1,.21.22.23.23,0,0,1-.21.24H19.59a.21.21,0,0,1-.21-.21c0-.12.06-.25.21-.25m.82,11.41a.67.67,0,1,1,0-1.34.67.67,0,1,1,0,1.34m2.52-2.07H17.88V10.16H23l0,8.15"></path></g></symbol><symbol id="icon-category-technology" viewBox="0 0 24 24"><g><path d="M6.64,24a2,2,0,0,1-1.51-.64,2.12,2.12,0,0,1-.63-1.54V2.18A2.12,2.12,0,0,1,5.13.64,2,2,0,0,1,6.64,0H17.36a2,2,0,0,1,1.51.64,2.12,2.12,0,0,1,.63,1.54V21.82a2.12,2.12,0,0,1-.63,1.54,2,2,0,0,1-1.51.64Zm0-5.45v3.27H17.36V18.55ZM12,21.27a1,1,0,0,0,.76-.31,1.07,1.07,0,1,0-1.52,0A1,1,0,0,0,12,21.27ZM6.64,16.36H17.36V5.45H6.64Zm0-13.09H17.36V2.18H6.64Z"></path></g></symbol><symbol id="icon-category-business-services" viewBox="0 0 23 23"><g><path d="M23 8.78a3.79 3.79 0 0 0 -3.77 -3.41h-2V4.68c0-.13 0-.25 0-.38A3.79 3.79 0 0 0 13.38 .88H9.64A3.79 3.79 0 0 0 5.87 4.3c0 .12 0 .25 0 .38v.69h-2A3.79 3.79 0 0 0 0 8.78C0 8.91 0 9 0 9.17v9.15a3.8 3.8 0 0 0 3.79 3.8H19.22A3.8 3.8 0 0 0 23 18.32V9.17c0-.13 0-.26 0-.39M7.84 4.4a1.82 1.82 0 0 1 1.8 -1.54h3.74a1.82 1.82 0 0 1 1.8 1.54v1H7.84M19.22 20.14H3.8A1.82 1.82 0 0 1 2 18.32V8.89A1.83 1.83 0 0 1 3.8 7.34H19.22A1.82 1.82 0 0 1 21 8.89v9.43a1.81 1.81 0 0 1 -1.82 1.82"></path></g></symbol><symbol id="icon-category-website-app" viewBox="0 0 24 24"><g><path d="M4.8,4.8h18V2.4H4.8A2.39,2.39,0,0,0,2.4,4.8V18H0v3.6H12V18H4.8Z"></path><path d="M23.66,7.54a1.23,1.23,0,0,0-.86-.34H15.6a1.16,1.16,0,0,0-1.2,1.2v12a1.16,1.16,0,0,0,1.2,1.2h7.2a1.23,1.23,0,0,0,.86-.34A1.18,1.18,0,0,0,24,20.4V8.4A1.18,1.18,0,0,0,23.66,7.54ZM21.6,9.66V18H16.8V9.6h4.8Z"></path></g></symbol><symbol id="icon-category-it-services" viewBox="0 0 24 24"><g><path d="M1.84,1.72a1.84,1.84,0,0,0-1.42.67l-.1.15a1.3,1.3,0,0,0-.1.15l-.07.16a.59.59,0,0,0,0,.08A1.9,1.9,0,0,0,0,3.56v13a1.85,1.85,0,0,0,1.84,1.84H8.78v2.48h-3a.71.71,0,0,0,0,1.41H18.2a.71.71,0,0,0,0-1.41h-3V18.39h6.94A1.85,1.85,0,0,0,24,16.55V3.47A2.11,2.11,0,0,0,23.92,3a.87.87,0,0,0-.07-.17l0-.08-.09-.16a1.3,1.3,0,0,0-.1-.15,2,2,0,0,0-.24-.26A1.46,1.46,0,0,0,23.11,2L23,1.94l-.24-.11a1.9,1.9,0,0,0-.63-.11Zm0,1.41H22.16a.46.46,0,0,1,.21.05.43.43,0,0,1,.22.38v13a.41.41,0,0,1-.43.43H1.84a.41.41,0,0,1-.43-.43v-13l0-.13s0,0,0,0a.86.86,0,0,1,.07-.1l.07,0,.07,0A.47.47,0,0,1,1.84,3.13ZM10,6.52a.68.68,0,0,0-.7.7v.91c-.17.07-.33.13-.49.21l-.65-.65a.7.7,0,0,0-.5-.2.74.74,0,0,0-.5.2L4.27,10.56a.63.63,0,0,0-.16.23.76.76,0,0,0-.05.27.86.86,0,0,0,.05.27.87.87,0,0,0,.16.23l.64.64c-.07.16-.14.32-.2.49H3.8a.7.7,0,0,0-.71.7v2.24a.7.7,0,0,0,.71.7.86.86,0,0,0,.27,0,1.14,1.14,0,0,0,.23-.15,1.14,1.14,0,0,0,.15-.23.86.86,0,0,0,0-.27V14.1h.71A.71.71,0,0,0,5.63,14a.78.78,0,0,0,.26-.36,5.74,5.74,0,0,1,.5-1.2A.75.75,0,0,0,6.47,12a.7.7,0,0,0-.2-.4l-.51-.5L7.63,9.19l.51.5a.64.64,0,0,0,.39.2A.66.66,0,0,0,9,9.81a7.52,7.52,0,0,1,1.21-.5.7.7,0,0,0,.36-.25.71.71,0,0,0,.14-.42V7.93h2.64v.71a.71.71,0,0,0,.14.42.68.68,0,0,0,.37.25,6.61,6.61,0,0,1,1.2.5.75.75,0,0,0,.44.08.7.7,0,0,0,.4-.2l.5-.5,1.87,1.87-.5.5a.64.64,0,0,0-.2.39.67.67,0,0,0,.07.44,5.82,5.82,0,0,1,.5,1.21.78.78,0,0,0,.26.36.71.71,0,0,0,.42.14h.71v1.53a.68.68,0,0,0,.7.7.7.7,0,0,0,.71-.7V13.39a.7.7,0,0,0-.71-.7h-.91c-.06-.17-.13-.33-.2-.49l.64-.64a.87.87,0,0,0,.16-.23.86.86,0,0,0,.05-.27.76.76,0,0,0-.05-.27.63.63,0,0,0-.16-.23L16.87,7.69a.74.74,0,0,0-.5-.2.7.7,0,0,0-.5.2l-.65.64-.49-.2V7.22a.68.68,0,0,0-.7-.7Zm2,5.24a3.67,3.67,0,0,0-3.66,3.66,2.26,2.26,0,0,0,0,.26.59.59,0,0,0,.07.26.62.62,0,0,0,.17.22.72.72,0,0,0,.24.14.63.63,0,0,0,.27,0,.68.68,0,0,0,.27-.07.68.68,0,0,0,.21-.17.58.58,0,0,0,.14-.24.84.84,0,0,0,0-.27.86.86,0,0,1,0-.16,2.25,2.25,0,0,1,4.5,0,.86.86,0,0,1,0,.16.84.84,0,0,0,0,.27.7.7,0,0,0,.13.24.72.72,0,0,0,.22.17.6.6,0,0,0,.27.07.63.63,0,0,0,.27,0,.72.72,0,0,0,.24-.14.62.62,0,0,0,.17-.22.77.77,0,0,0,.07-.26,2.26,2.26,0,0,0,0-.26A3.67,3.67,0,0,0,12,11.76Zm-1.81,6.63h3.62v2.48H10.19Z"></path></g></symbol><symbol id="icon-service-branding-creative" viewBox="0 0 24 24"><g><path d="M24,5.62a.48.48,0,0,0-.14-.34l-5-5a.47.47,0,0,0-.67,0L12.06,6.5l-.41-.41A21.21,21.21,0,0,0,10,4.53s0,0,0,0,0,0,0,0C5.23.33.69.26.47.26A.46.46,0,0,0,.13.42.46.46,0,0,0,0,.78c.4,4.89,4.35,10.3,4.53,10.55l1.25,1.51L.62,18.05a.47.47,0,0,0-.14.33.53.53,0,0,0,.15.34l5,5a.47.47,0,0,0,.34.14H6a.47.47,0,0,0,.33-.14L11.9,18l4.47,4.5a4.12,4.12,0,0,0,2.95,1.22h0a4.12,4.12,0,0,0,2.95-1.22,4.17,4.17,0,0,0,0-5.9l-4.5-4.53L23.86,6A.47.47,0,0,0,24,5.62ZM1.9,4.54A7.13,7.13,0,0,0,4.55,2.2,17.13,17.13,0,0,1,9,4.9,38.12,38.12,0,0,1,4.29,9.26,29.31,29.31,0,0,1,1.9,4.54ZM3.64,1.86A6.52,6.52,0,0,1,1.58,3.64,13.82,13.82,0,0,1,1,1.25,13,13,0,0,1,3.64,1.86Zm1.64,8.89s-.19-.26-.47-.68A39.8,39.8,0,0,0,9.73,5.53c.41.37.82.77,1.23,1.22l.43.42-4.94,5ZM21.6,21.87a3.2,3.2,0,0,1-3.32.76l4.06-4.15A3.21,3.21,0,0,1,21.6,21.87Zm.25-4.25L17.4,22.17a3.26,3.26,0,0,1-.36-.29l-1-1,4.51-4.61,1.06,1.06A3.4,3.4,0,0,1,21.85,17.62Zm-2-2.05-4.5,4.62-2.8-2.82.68-.7L15,18.4a.46.46,0,0,0,.33.13.5.5,0,0,0,.34-.13.48.48,0,0,0,0-.67L13.92,16l1.23-1.24,1.66,1.66a.46.46,0,0,0,.33.13.47.47,0,0,0,.34-.13.48.48,0,0,0,0-.67l-1.67-1.67,1.29-1.3ZM6,22.68l-4.34-4.3,1.55-1.57,1.35,1.34a.47.47,0,0,0,.33.14.51.51,0,0,0,.34-.14.47.47,0,0,0,0-.67L3.84,16.14l1.41-1.42L6.6,16.06a.47.47,0,0,0,.33.14.46.46,0,0,0,.34-.15.48.48,0,0,0,0-.67L5.91,14.05l1.41-1.42L8.67,14A.46.46,0,0,0,9,14.1H9A.45.45,0,0,0,9.34,14a.48.48,0,0,0,0-.67L8,12l1.41-1.42,1.35,1.33a.47.47,0,0,0,.33.14h0a.48.48,0,0,0,.34-.14.48.48,0,0,0,0-.67L10.06,9.86l1.4-1.42,1.35,1.34a.47.47,0,0,0,.33.14.48.48,0,0,0,.34-.81L12.13,7.77l1.4-1.42,1.35,1.34a.51.51,0,0,0,.34.14h0a.47.47,0,0,0,.33-.14.46.46,0,0,0,0-.67L14.2,5.68l1.4-1.42L17,5.6a.5.5,0,0,0,.34.13h0a.43.43,0,0,0,.33-.14.46.46,0,0,0,0-.67L16.27,3.59l2.24-2.27,4.35,4.3Z"></path></g></symbol><symbol id="icon-service-website-app" viewBox="0 0 24 24"><g><path d="M.49,3A.55.55,0,0,0,0,3.55V17.48A.55.55,0,0,0,.55,18H6.66v1.88H5.81a.57.57,0,0,0-.38.18.58.58,0,0,0-.14.39.57.57,0,0,0,.18.38.52.52,0,0,0,.39.14h7.26a.59.59,0,0,0,.4-.16.55.55,0,0,0,.16-.39.55.55,0,0,0-.56-.54h-.78v-.65a.55.55,0,0,0-.18-.41.55.55,0,0,0-.91.41v.65H7.75V18H15v2.42a.54.54,0,0,0,.54.55h6.68a.55.55,0,0,0,.39-.16.52.52,0,0,0,.17-.39.56.56,0,0,0-.56-.54H16.06V9.65h6.85v9.13a.56.56,0,0,0,.54.56.52.52,0,0,0,.39-.17.51.51,0,0,0,.16-.39V9.1a.54.54,0,0,0-.55-.54H19V5.23a.52.52,0,0,0-.18-.41.55.55,0,0,0-.44-.14.54.54,0,0,0-.47.55V8.56h-2.4A.54.54,0,0,0,15,9.1v7.83H1.09v-1.2H13.34a.58.58,0,0,0,.39-.15.59.59,0,0,0,.16-.39.55.55,0,0,0-.16-.39.59.59,0,0,0-.39-.16H1.09V4.09H18.45A.56.56,0,0,0,19,3.55a.52.52,0,0,0-.17-.39A.55.55,0,0,0,18.45,3H.49Z"></path><path d="M18.73,17.88a.57.57,0,0,0-.38.18.62.62,0,0,0-.14.39.55.55,0,0,0,.18.38.52.52,0,0,0,.39.14h1.4a.56.56,0,0,0,.56-.54.52.52,0,0,0-.17-.39.51.51,0,0,0-.39-.16H18.73Z"></path></g></symbol><symbol id="icon-service-marketing" viewBox="0 0 24 24"><g><path d="M18.4,9.76a2.21,2.21,0,0,0,1-1.28,2.17,2.17,0,0,0-.22-1.65,2.25,2.25,0,0,0-3-.83l-2-3.38A1.94,1.94,0,0,0,13,1.72a2,2,0,0,0-1.5.19,1.95,1.95,0,0,0-.89,2.31A16.85,16.85,0,0,1,4.9,11a.59.59,0,0,0-.14-.06.47.47,0,0,0-.35,0L1.86,12.38A3.64,3.64,0,0,0,.13,14.59,3.52,3.52,0,0,0,.5,17.35a3.73,3.73,0,0,0,3.22,1.81,3.79,3.79,0,0,0,1.86-.48l.14-.09,2.81,3.59a1.11,1.11,0,0,0,.79.42h.1a1.07,1.07,0,0,0,.74-.28l.78-.68a1.07,1.07,0,0,0,.14-1.47L8.43,16.78a17.51,17.51,0,0,1,8.75-1.4,2,2,0,0,0,1.5.66,2,2,0,0,0,1-.26,1.9,1.9,0,0,0,.72-2.64Zm-.07-2.47A1.25,1.25,0,0,1,17.93,9L16.65,6.79A1.31,1.31,0,0,1,18.33,7.29ZM5.11,17.88a2.81,2.81,0,0,1-1.39.37h0a2.79,2.79,0,0,1-2.41-1.36A2.66,2.66,0,0,1,1,14.83a2.72,2.72,0,0,1,1.3-1.65L4.47,12l2.78,4.71Zm5.22,2.85a.16.16,0,0,1,0,.23h0l-.78.68a.16.16,0,0,1-.25,0L6.54,18.13l1.23-.69ZM7.93,16h0L5.41,11.73a18.53,18.53,0,0,0,5.74-6.49l5.4,9.15A19.32,19.32,0,0,0,7.93,16ZM19.2,15h0a1.07,1.07,0,0,1-1.43-.37L11.55,4.1a1,1,0,0,1,.39-1.4,1.06,1.06,0,0,1,.52-.13,1.24,1.24,0,0,1,.27,0,1,1,0,0,1,.64.48l6.21,10.51A1,1,0,0,1,19.2,15Z"></path><path d="M20.12,6.74a.46.46,0,0,0,.23-.06l1.88-1.06A.45.45,0,0,0,22.4,5a.47.47,0,0,0-.64-.16L19.88,5.89a.45.45,0,0,0-.17.62A.47.47,0,0,0,20.12,6.74Z"></path><path d="M17.71,4.19a.53.53,0,0,0,.24.06.46.46,0,0,0,.4-.23L19.5,2.08a.45.45,0,0,0-.17-.62.48.48,0,0,0-.64.16L17.54,3.56A.46.46,0,0,0,17.71,4.19Z"></path><path d="M23.53,8.91H21.24a.46.46,0,1,0,0,.91h2.29a.46.46,0,1,0,0-.91Z"></path></g></symbol><symbol id="icon-service-technology" viewBox="0 0 24 24"><g><path d="M24,3.66a2,2,0,0,0-.08-.44,1.22,1.22,0,0,0-.07-.17l0-.08-.09-.15a1.3,1.3,0,0,0-.1-.15,1.88,1.88,0,0,0-.24-.25,1.46,1.46,0,0,0-.28-.21.2.2,0,0,0-.08,0,1.28,1.28,0,0,0-.24-.11A1.67,1.67,0,0,0,22.16,2H1.84a1.83,1.83,0,0,0-1.42.66l-.1.14a.71.71,0,0,0-.1.14c0,.06,0,.11-.07.16a.59.59,0,0,1,0,.08A1.84,1.84,0,0,0,0,3.75v12.7a1.83,1.83,0,0,0,1.84,1.8H8.78v2.42h-3a.69.69,0,1,0,0,1.38H18.2a.69.69,0,1,0,0-1.38h-3V18.25h6.94A1.83,1.83,0,0,0,24,16.45V3.66Zm-10.19,17H10.19V18.25h3.62Zm8.78-4.22a.41.41,0,0,1-.43.42H1.84a.41.41,0,0,1-.43-.42V3.7l0-.12s0,0,0,0l.07-.09A.18.18,0,0,1,1.6,3.4l.07,0a.47.47,0,0,1,.17,0H22.16a.46.46,0,0,1,.21,0,.4.4,0,0,1,.22.37Z"></path><path d="M20.2,12.67h-.91c-.06-.16-.13-.32-.2-.48l.64-.62a.67.67,0,0,0,.21-.49.65.65,0,0,0-.21-.49l-2.86-2.8a.72.72,0,0,0-1,0l-.65.63a4.19,4.19,0,0,0-.49-.2V7.33h0a.69.69,0,0,0-.7-.69H10a.69.69,0,0,0-.7.69v.89l-.49.2-.65-.63h0a.72.72,0,0,0-1,0l-2.86,2.8a.65.65,0,0,0-.21.49.67.67,0,0,0,.21.49l.64.63c-.07.15-.14.31-.2.47H3.8a.7.7,0,0,0-.71.69v2.19a.7.7,0,0,0,.71.69A.75.75,0,0,0,4.3,16a.67.67,0,0,0,.2-.48v-1.5h.71a.71.71,0,0,0,.68-.49,5.5,5.5,0,0,1,.5-1.17h0a.68.68,0,0,0-.12-.82l-.51-.49L7.63,9.25l.51.49h0A.7.7,0,0,0,9,9.86a7.47,7.47,0,0,1,1.21-.49.7.7,0,0,0,.5-.66V8h2.64v.69a.69.69,0,0,0,.51.66,6.57,6.57,0,0,1,1.2.49.73.73,0,0,0,.84-.12l.5-.49,1.87,1.83-.5.49h0a.66.66,0,0,0-.13.81,5.81,5.81,0,0,1,.5,1.18h0a.71.71,0,0,0,.68.49h.71v1.5a.69.69,0,0,0,.7.69.7.7,0,0,0,.71-.69V13.36A.7.7,0,0,0,20.2,12.67Z"></path><path d="M12,11.77a3.63,3.63,0,0,0-3.66,3.57,2.26,2.26,0,0,0,0,.26.68.68,0,0,0,.24.47.7.7,0,0,0,1-.07.68.68,0,0,0,.18-.5.81.81,0,0,1,0-.16,2.25,2.25,0,0,1,4.5,0,.81.81,0,0,1,0,.16.71.71,0,0,0,.17.5.76.76,0,0,0,.49.24.73.73,0,0,0,.51-.17.68.68,0,0,0,.24-.47,2.26,2.26,0,0,0,0-.26A3.63,3.63,0,0,0,12,11.77Z"></path></g></symbol><symbol id="icon-service-business-services" viewBox="0 0 24 24"><g><path d="M21.44,5.45h-3V2.82A2.53,2.53,0,0,0,15.84.32H8.16A2.53,2.53,0,0,0,5.6,2.82V5.45h-3A2.53,2.53,0,0,0,0,7.94V21.18a2.53,2.53,0,0,0,2.56,2.5H21.44A2.53,2.53,0,0,0,24,21.18V7.94a2.53,2.53,0,0,0-2.56-2.49ZM7.07,2.81A1.08,1.08,0,0,1,8.16,1.75h7.68a1.08,1.08,0,0,1,1.09,1.06V5.45H7.07ZM22.54,21.18a1.08,1.08,0,0,1-1.1,1.07H2.56a1.08,1.08,0,0,1-1.1-1.07V7.94a1.08,1.08,0,0,1,1.1-1.07H21.44a1.08,1.08,0,0,1,1.1,1.07Z"></path></g></symbol><symbol id="icon-service-it-services" viewBox="0 0 24 24"><g><path d="M23.29,12.7a.69.69,0,1,0,0-1.38h-3V7.63h3a.69.69,0,1,0,0-1.37h-3V4.67A.69.69,0,0,0,19.55,4H17.93V1a.71.71,0,0,0-1.42,0V4H12.72V1A.69.69,0,0,0,12,.32a.71.71,0,0,0-.7.7V4H7.52V1A.7.7,0,0,0,6.8.32a.69.69,0,0,0-.69.7V4H4.48a.69.69,0,0,0-.7.68V6.26H.67A.69.69,0,1,0,.74,7.63h3v3.69h-3a.69.69,0,1,0,0,1.38h3v3.69h-3a.69.69,0,1,0,0,1.37h3v1.59a.69.69,0,0,0,.7.68H6.11v3a.71.71,0,0,0,1.41,0V20h3.79v3a.71.71,0,0,0,1.41,0V20h3.79v3a.71.71,0,0,0,1.42,0V20h1.62a.69.69,0,0,0,.71-.68V17.76h3a.69.69,0,1,0,0-1.37h-3V12.7Zm-4.44,6H5.19V5.36H18.85Z"></path><path d="M8.88,11h6.28a.69.69,0,1,0,0-1.38H8.88a.69.69,0,1,0,0,1.38Z"></path><path d="M7.93,14.36h8.18a.69.69,0,0,0,.7-.68.69.69,0,0,0-.7-.69H7.85a.69.69,0,0,0-.67.72A.7.7,0,0,0,7.93,14.36Z"></path></g></symbol><symbol id="icon-best-app-designs" viewBox="0 0 24 24"><g><path d="M18,0H6A2,2,0,0,0,4,2V22a2,2,0,0,0,2,2H18a2,2,0,0,0,2-2V2A2,2,0,0,0,18,0ZM13.5,22h-3a.5.5,0,0,1,0-1h3a.5.5,0,0,1,0,1ZM18,19H6V2H18ZM12.5,4h-1a.5.5,0,0,1,0-1h1a.5.5,0,0,1,0,1Zm-5,6h3a.5.5,0,0,0,.5-.5v-3a.5.5,0,0,0-.5-.5h-3a.5.5,0,0,0-.5.5v3A.5.5,0,0,0,7.5,10ZM13,9.5a.5.5,0,0,0,.5.5h3a.5.5,0,0,0,.5-.5v-3a.5.5,0,0,0-.5-.5h-3a.5.5,0,0,0-.5.5ZM10.5,16h-3a.5.5,0,0,1-.5-.5v-3a.5.5,0,0,1,.5-.5h3a.5.5,0,0,1,.5.5v3A.5.5,0,0,1,10.5,16Zm6-4h-3a.5.5,0,0,0-.5.5v3a.5.5,0,0,0,.5.5h3a.5.5,0,0,0,.5-.5v-3A.5.5,0,0,0,16.5,12ZM17,3.5a.5.5,0,1,1-.5-.5A.5.5,0,0,1,17,3.5Z"></path></g></symbol><symbol id="icon-best-logo-designs" viewBox="0 0 24 24"><g><path d="M24,8.67V23.06a.94.94,0,0,1-.94.94H.94A.94.94,0,0,1,0,23.06V.94A.94.94,0,0,1,.94,0H15.33a.94.94,0,0,1,0,1.87H1.87V22.12H22.12V8.67A.94.94,0,0,1,24,8.67Zm-12.35-.3L19.2.82a2.81,2.81,0,0,1,4,4l-7.55,7.55c-.42,4.91-3.83,6.81-7.33,7H5.62a.93.93,0,0,1-.93-.93V15.7C4.84,12.21,6.75,8.78,11.65,8.37Zm2.1,3.94-2.06-2.06a5.21,5.21,0,0,0-4.16,2.26,6.3,6.3,0,0,0-1,3.19v1.74H8.3a6.3,6.3,0,0,0,3.19-1A5.21,5.21,0,0,0,13.75,12.31ZM16,6.72l1.33,1.33,4.57-4.57a.94.94,0,1,0-1.33-1.33ZM13.38,9.29l1.33,1.33L16,9.37,14.63,8.05Z"></path></g></symbol><symbol id="icon-best-package-designs" viewBox="0 0 24 24"><g><path d="M0,5.92a.75.75,0,0,1,.43-.6L11.68.07a.79.79,0,0,1,.64,0L23.57,5.32a.75.75,0,0,1,.43.6V18.75a.76.76,0,0,1-.47.7L12.28,24a.81.81,0,0,1-.56,0L.47,19.45a.76.76,0,0,1-.47-.7V5.92ZM12,1.58,2.64,6l3.6,1.44,9.54-4ZM17.61,4.2l-9.39,4L12,9.69,21.36,6ZM22.5,7.11,12.75,11V22.14l9.75-3.9Zm-11.25,15V11L1.5,7.11V18.24Z"></path></g></symbol><symbol id="icon-best-print-designs" viewBox="0 0 24 24"><g><path d="M18.86,6h4.28a.85.85,0,0,1,.86.86V18a.86.86,0,0,1-.86.86H18.86v4.28A.86.86,0,0,1,18,24H6a.86.86,0,0,1-.86-.86V18.86H.86A.86.86,0,0,1,0,18V6.86A.85.85,0,0,1,.86,6H5.14V.86A.86.86,0,0,1,6,0H18a.86.86,0,0,1,.86.86ZM17.14,1.71H6.86V6H17.14Zm0,12.86h2.57a.86.86,0,1,0,0-1.71H4.29a.86.86,0,1,0,0,1.71H6.86v7.72H17.14Zm2.57-3.43h.86a.86.86,0,1,0,0-1.71h-.86a.86.86,0,0,0,0,1.71Zm-5.14,5.15H9.43a.86.86,0,1,0,0,1.71h5.14a.86.86,0,1,0,0-1.71Zm0,2.57H9.43a.86.86,0,1,0,0,1.71h5.14a.86.86,0,1,0,0-1.71Z"></path></g></symbol><symbol id="icon-best-videos" viewBox="0 0 24 24"><g><path d="M23.59,6.13a.85.85,0,0,0-.83,0L17.14,8.9v-2a2.57,2.57,0,0,0-2.57-2.57h-12A2.57,2.57,0,0,0,0,6.86V17.14a2.57,2.57,0,0,0,2.57,2.57h12a2.57,2.57,0,0,0,2.57-2.57v-2l5.62,2.81A.85.85,0,0,0,24,17.14V6.86A.83.83,0,0,0,23.59,6.13Zm-15,9.3A3.43,3.43,0,1,1,12,12,3.44,3.44,0,0,1,8.57,15.43Z"></path></g></symbol><symbol id="icon-best-website-designs" viewBox="0 0 24 24"><g><path d="M21.82.91H2.18A2.2,2.2,0,0,0,0,3.12V16.44a2.21,2.21,0,0,0,2.18,2.22H9.82v2.22H7.64v2.21h8.72V20.88H14.18V18.66h7.64A2.21,2.21,0,0,0,24,16.44V3.12A2.2,2.2,0,0,0,21.82.91Zm0,15.53H2.18V3.12H21.82Z"></path></g></symbol><symbol id="icon-bd-winners" viewBox="0 0 18 18"><g><path d="M4 18V16H8V12.9C7.18333 12.7167 6.45417 12.3708 5.8125 11.8625C5.17083 11.3542 4.7 10.7167 4.4 9.95C3.15 9.8 2.10417 9.25417 1.2625 8.3125C0.420833 7.37083 0 6.26667 0 5V4C0 3.45 0.195833 2.97917 0.5875 2.5875C0.979167 2.19583 1.45 2 2 2H4V0H14V2H16C16.55 2 17.0208 2.19583 17.4125 2.5875C17.8042 2.97917 18 3.45 18 4V5C18 6.26667 17.5792 7.37083 16.7375 8.3125C15.8958 9.25417 14.85 9.8 13.6 9.95C13.3 10.7167 12.8292 11.3542 12.1875 11.8625C11.5458 12.3708 10.8167 12.7167 10 12.9V16H14V18H4ZM4 7.8V4H2V5C2 5.63333 2.18333 6.20417 2.55 6.7125C2.91667 7.22083 3.4 7.58333 4 7.8ZM14 7.8C14.6 7.58333 15.0833 7.22083 15.45 6.7125C15.8167 6.20417 16 5.63333 16 5V4H14V7.8Z"></path><path d="M4 18V16H8V12.9C7.18333 12.7167 6.45417 12.3708 5.8125 11.8625C5.17083 11.3542 4.7 10.7167 4.4 9.95C3.15 9.8 2.10417 9.25417 1.2625 8.3125C0.420833 7.37083 0 6.26667 0 5V4C0 3.45 0.195833 2.97917 0.5875 2.5875C0.979167 2.19583 1.45 2 2 2H4V0H14V2H16C16.55 2 17.0208 2.19583 17.4125 2.5875C17.8042 2.97917 18 3.45 18 4V5C18 6.26667 17.5792 7.37083 16.7375 8.3125C15.8958 9.25417 14.85 9.8 13.6 9.95C13.3 10.7167 12.8292 11.3542 12.1875 11.8625C11.5458 12.3708 10.8167 12.7167 10 12.9V16H14V18H4ZM4 7.8V4H2V5C2 5.63333 2.18333 6.20417 2.55 6.7125C2.91667 7.22083 3.4 7.58333 4 7.8ZM14 7.8C14.6 7.58333 15.0833 7.22083 15.45 6.7125C15.8167 6.20417 16 5.63333 16 5V4H14V7.8Z"></path></g></symbol><symbol id="icon-bd-websites" viewBox="0 0 22 22"><g><path xmlns="http://www.w3.org/2000/svg" d="M3.3,16.42a2.15,2.15,0,0,1-1.55-.64,2.06,2.06,0,0,1-.65-1.53V4.5A2.06,2.06,0,0,1,1.75,3,2.15,2.15,0,0,1,3.3,2.33H18.7A2.15,2.15,0,0,1,20.25,3,2.06,2.06,0,0,1,20.9,4.5h-6a3.74,3.74,0,0,0-2.72,1.11A3.63,3.63,0,0,0,11,8.29v8.13Zm11.55,3.25a1.59,1.59,0,0,1-1.17-.48A1.55,1.55,0,0,1,13.2,18V8.29a1.56,1.56,0,0,1,.48-1.15,1.58,1.58,0,0,1,1.17-.47h5.5a1.58,1.58,0,0,1,1.17.47A1.56,1.56,0,0,1,22,8.29V18a1.55,1.55,0,0,1-.48,1.15,1.59,1.59,0,0,1-1.17.48ZM0,19.67V17.5H11v2.17Zm17.6-8.13a.8.8,0,0,0,.82-.81.75.75,0,0,0-.23-.58.77.77,0,0,0-.59-.23.81.81,0,0,0-.58.23.76.76,0,0,0-.25.58.79.79,0,0,0,.25.57A.82.82,0,0,0,17.6,11.54Z"></path></g></symbol><symbol id="icon-bd-logo" viewBox="0 0 22 22"><g><path xmlns="http://www.w3.org/2000/svg" d="M3.67,22a3.55,3.55,0,0,1-2.6-1.07A3.55,3.55,0,0,1,0,18.33V11A3.59,3.59,0,0,1,1.07,8.4L8.4,1.07A3.15,3.15,0,0,1,9.61.26,4,4,0,0,1,11,0a3.88,3.88,0,0,1,1.38.26,3.52,3.52,0,0,1,1.22.81l.91.92L4.89,11.61v5.5H17.11v-5.5l-4.4-4.4,3.51-3.48L20.93,8.4A3.7,3.7,0,0,1,22,11v7.33A3.65,3.65,0,0,1,18.33,22Z"></path></g></symbol><symbol id="icon-bd-apps" viewBox="0 0 22 22"><g><path xmlns="http://www.w3.org/2000/svg" d="M4.43,22A2,2,0,0,1,3,21.41,1.89,1.89,0,0,1,2.41,20V2A1.89,1.89,0,0,1,3,.59,2,2,0,0,1,4.43,0H14.54A2,2,0,0,1,16,.59,1.93,1.93,0,0,1,16.56,2V8H11.45l-.8,3.17A6.61,6.61,0,0,0,9,13.35,6.31,6.31,0,0,0,8.47,16a6.34,6.34,0,0,0,2.18,4.82L11,22ZM13,22l-.58-2.3A4.69,4.69,0,0,1,11,18.09a4.46,4.46,0,0,1,0-4.18,4.69,4.69,0,0,1,1.43-1.61L13,10h4.05l.58,2.3a4.8,4.8,0,0,1,1.43,1.61,4.54,4.54,0,0,1,0,4.18,4.8,4.8,0,0,1-1.43,1.61L17.07,22Zm2-3.5a2.44,2.44,0,0,0,1.8-.73A2.38,2.38,0,0,0,17.57,16a2.41,2.41,0,0,0-.73-1.78,2.6,2.6,0,0,0-3.59,0A2.41,2.41,0,0,0,12.52,16a2.38,2.38,0,0,0,.73,1.77A2.44,2.44,0,0,0,15,18.5ZM9.48,5a1,1,0,0,0,.72-.29A.94.94,0,0,0,10.49,4a.94.94,0,0,0-.29-.71A1,1,0,0,0,9.48,3a1,1,0,0,0-.72.29,1,1,0,0,0,0,1.42A1,1,0,0,0,9.48,5Z"></path></g></symbol><symbol id="icon-bd-print" viewBox="0 0 22 22"><g><path xmlns="http://www.w3.org/2000/svg" d="M14.67,22,7.33,19.43l-5.68,2.2A1.1,1.1,0,0,1,.52,21.5a1.21,1.21,0,0,1-.52-1V3.36a1.15,1.15,0,0,1,.23-.7A1.3,1.3,0,0,1,.86,2.2L7.33,0l7.34,2.57L20.35.37A1.1,1.1,0,0,1,21.48.5a1.21,1.21,0,0,1,.52,1V18.64a1.15,1.15,0,0,1-.23.7,1.3,1.3,0,0,1-.63.46Zm-1.23-3V4.71L8.56,3v14.3Z"></path></g></symbol><symbol id="icon-bd-packaging" viewBox="0 0 22 22"><g><path xmlns="http://www.w3.org/2000/svg" d="M9.89,21.7,2.14,17.27a2.25,2.25,0,0,1-.82-.8A2.15,2.15,0,0,1,1,15.37V6.63a2.15,2.15,0,0,1,.29-1.1,2.25,2.25,0,0,1,.82-.8L9.89.3a2.2,2.2,0,0,1,2.22,0l7.75,4.43a2.25,2.25,0,0,1,.82.8A2.15,2.15,0,0,1,21,6.63v8.74a2.15,2.15,0,0,1-.29,1.1,2.25,2.25,0,0,1-.82.8L12.11,21.7a2.2,2.2,0,0,1-2.22,0Zm0-10.07v7.54L11,19.8l1.11-.63V11.63l6.64-3.82V6.66L17.56,6,11,9.73,4.44,6l-1.19.69V7.81Z"></path></g></symbol><symbol id="icon-bd-video" viewBox="0 0 22 22"><g><path xmlns="http://www.w3.org/2000/svg" d="M10.45,13.75l7.7-4.95-7.7-5ZM6.6,17.6A2.12,2.12,0,0,1,5.05,17,2.11,2.11,0,0,1,4.4,15.4V2.2A2.11,2.11,0,0,1,5.05.65,2.12,2.12,0,0,1,6.6,0H19.8a2.11,2.11,0,0,1,1.55.65A2.11,2.11,0,0,1,22,2.2V15.4a2.22,2.22,0,0,1-2.2,2.2ZM2.2,22a2.11,2.11,0,0,1-1.55-.65A2.11,2.11,0,0,1,0,19.8V4.4H2.2V19.8H17.6V22Z"></path></g></symbol><symbol id="icon-spotlight-trends" viewBox="0 0 24 24"><g><path d="M12,24A12,12,0,1,1,24,12,12,12,0,0,1,12,24ZM12,2A10,10,0,1,0,22,12,10,10,0,0,0,12,2Zm5,11.67a1,1,0,0,1-1-1V10H13.33a1,1,0,1,1,0-2H17a1,1,0,0,1,1,1v3.67A1,1,0,0,1,17,13.67ZM7,16a1,1,0,0,1-.71-.29,1,1,0,0,1,0-1.42l3-3a1,1,0,0,1,1.42,0L12,12.59l4.29-4.3a1,1,0,0,1,1.42,1.42l-5,5a1,1,0,0,1-1.42,0L10,13.41l-2.29,2.3A1,1,0,0,1,7,16Z"></path></g></symbol><symbol id="icon-spotlight-interviews" viewBox="0 0 24 24"><g><path d="M14.69.72A5.37,5.37,0,0,0,6.63,5.37v5.89A5.38,5.38,0,0,0,12,16.64h0a5.38,5.38,0,0,0,5.37-5.38V5.37A5.39,5.39,0,0,0,14.69.72Zm-3.64,7.6a1,1,0,0,0,.95.95h3.46v1H12a1,1,0,0,0,0,1.91h3.33A3.53,3.53,0,0,1,12,14.73a3.48,3.48,0,0,1-3.46-3.46V5.36A3.46,3.46,0,0,1,12,1.77a3.53,3.53,0,0,1,1.39.29,3.48,3.48,0,0,1,2,2.36H12a.95.95,0,1,0,0,1.9h3.46v1H12A1,1,0,0,0,11.05,8.32Z"></path><path d="M18.12,16.88a8.31,8.31,0,0,0,2.2-5.62,1,1,0,0,0-1.91,0,6.41,6.41,0,1,1-12.82,0,1,1,0,0,0-1.91,0,8.32,8.32,0,0,0,7.37,8.26v2.57H8.32a1,1,0,1,0,0,1.91h7.36a1,1,0,1,0,0-1.91H13V19.52A8.26,8.26,0,0,0,18.12,16.88Z"></path></g></symbol><symbol id="icon-spotlight-news" viewBox="0 0 24 24"><g><path d="M13.85,12.12H14a1.57,1.57,0,0,0,1-.41,1.52,1.52,0,0,0,.45-1,.57.57,0,0,0,0-.13v-4a1.52,1.52,0,0,0-.78-1.31A1.71,1.71,0,0,0,13.92,5h-4A1.5,1.5,0,0,0,8.38,6.54v4a1.75,1.75,0,0,0,.17.75,1.49,1.49,0,0,0,1.32.81c.4,0,.8,0,1.2,0h2.78Zm-.43-2v-3h-3v3Z"></path><path d="M9.4,15.55H19.46a1,1,0,0,0,0-2.05H9.4a1,1,0,0,0,0,2.05Z"></path><path d="M9.4 18.72a1 1 0 0 1 0 -2H19.46a1 1 0 0 1 0 2c-.27 0-.54 0-.81 0H9.4"></path><path d="M4.88,6.14H1a1,1,0,0,0-1,1V18.55a4.76,4.76,0,0,0,.11,1.13,3.51,3.51,0,0,0,2.46,2.46,3.48,3.48,0,0,0,1,.11H22.23A1.8,1.8,0,0,0,24,20.48v-17a.66.66,0,0,0,0-.14,1.72,1.72,0,0,0-.21-.7,1.78,1.78,0,0,0-1.55-.92H6.7a1.83,1.83,0,0,0-1.31.52,1.81,1.81,0,0,0-.51,1.28ZM21,3.78h1V19.11c0,.37,0,.73,0,1.1H6.62a2.76,2.76,0,0,0,.19-.55,4.59,4.59,0,0,0,.11-1.22V5.05h0V3.78H21ZM4.88,8.18V18.73a2.09,2.09,0,0,1,0,.25,2,2,0,0,1-.09.35,1.81,1.81,0,0,1-.2.33,2.83,2.83,0,0,1-.24.25,3.79,3.79,0,0,1-.34.2,2.11,2.11,0,0,1-.36.09H3.28a2.42,2.42,0,0,1-.36-.1,2.07,2.07,0,0,1-.32-.19,2.13,2.13,0,0,1-.26-.26,1.5,1.5,0,0,1-.19-.32,2.42,2.42,0,0,1-.1-.36,8,8,0,0,1,0-.85V8.63c0-.15,0-.3,0-.45Z"></path></g></symbol><symbol id="icon-featured-star" viewBox="0 0 35 33"><g><path d="M17.1189 0L21.1601 12.4377H34.2379L23.6578 20.1246L27.699 32.5623L17.1189 24.8754L6.53876 32.5623L10.58 20.1246L-0.000120163 12.4377H13.0776L17.1189 0Z" fill="#EDC74B"></path></g></symbol><symbol id="icon-sharing" viewBox="0 0 24 24"><g><path d="M20,16c-1.4,0-2.5,0.7-3.3,1.7L8,14.4c0-0.1,0-0.3,0-0.4c0-0.6-0.1-1.1-0.3-1.6l6.9-5.3C15.2,7.7,16.1,8,17,8 c2.2,0,4-1.8,4-4c0-2.2-1.8-4-4-4c-2.2,0-4,1.8-4,4c0,0.6,0.1,1.1,0.3,1.6l-6.9,5.3C5.8,10.3,4.9,10,4,10c-2.2,0-4,1.8-4,4 c0,2.2,1.8,4,4,4c1.4,0,2.5-0.7,3.3-1.7l8.8,3.3c0,0.1,0,0.3,0,0.4c0,2.2,1.8,4,4,4c2.2,0,4-1.8,4-4C24,17.8,22.2,16,20,16z M17,2 c1.1,0,2,0.9,2,2s-0.9,2-2,2c-1.1,0-2-0.9-2-2S15.9,2,17,2z M4,16c-1.1,0-2-0.9-2-2s0.9-2,2-2c1.1,0,2,0.9,2,2S5.1,16,4,16z M20,22 c-1.1,0-2-0.9-2-2c0-1.1,0.9-2,2-2c1.1,0,2,0.9,2,2C22,21.1,21.1,22,20,22z"></path></g></symbol><symbol id="share-facebook" viewBox="0 0 24 24"><g><path d="M14.1,24V13h3.4l0.7-4.1h-4.1V6.2c0-1.4,0-2.1,2.1-2.1h2.1V0c0,0-1.4,0-3.4,0C12,0,9.3,2.1,9.3,5.5v3.4H5.8V13h3.4v11H14.1z"></path></g></symbol><symbol id="share-instagram" viewBox="0 0 24 24"><g><path d="M12,5.8c-3.4,0-6.2,2.8-6.2,6.2s2.8,6.2,6.2,6.2s6.2-2.8,6.2-6.2S15.4,5.8,12,5.8 M12,15.9c-2.2,0-4-1.8-4-4s1.8-4,4-4 s4,1.8,4,4S14.2,15.9,12,15.9"></path><circle cx="18.4" cy="5.6" r="1.4"></circle><path d="M22.1,2c-1.3-1.3-3-2-5.1-2H7C2.8,0,0,2.8,0,7v9.9c0,2.1,0.7,3.9,2,5.2c1.3,1.3,3,1.9,5,1.9h9.9c2.1,0,3.8-0.7,5.1-1.9 c1.3-1.3,2-3,2-5.1V7C24,5,23.3,3.2,22.1,2 M21.9,17c0,1.5-0.5,2.7-1.4,3.5c-0.9,0.8-2.1,1.3-3.5,1.3H7.1c-1.5,0-2.7-0.4-3.5-1.3 c-0.9-0.9-1.3-2.1-1.3-3.6V7c0-1.5,0.4-2.7,1.3-3.5c0.8-0.8,2.1-1.3,3.5-1.3h10c1.5,0,2.7,0.4,3.5,1.3c0.8,0.9,1.3,2.1,1.3,3.5V17"></path></g></symbol><symbol id="share-linkedin" viewBox="0 0 24 24"><g><path d="M24,14.2v9.5h-5.1v-8.7c0-1.5-0.7-3.6-2.9-3.6c-1.5,0-2.2,0.7-2.2,2.2c0,0.7,0,0.7,0,1.5v8.7H8.7c0,0,0-14.5,0-15.3h5.1 v1.5l0,0l0,0l0,0c0-0.7,1.5-2.9,4.4-2.9S24,9.8,24,14.2L24,14.2z M2.9,0.4C0.7,0.4,0,1.1,0,3.3c0,1.5,0.7,2.2,2.9,2.2l0,0 c1.5,0,2.9-0.7,2.9-2.2C5.8,1.1,4.4,0.4,2.9,0.4z M0,23.6h5.1V8.4H0V23.6z"></path></g></symbol><symbol id="share-twitter" viewBox="0 0 24 24"><g><path d="M14.3,10.2L23,0h-2.1l-7.6,8.8L7.3,0h-7l9.2,13.3L0.3,24h2.1l8-9.3l6.4,9.3h7L14.3,10.2z M11.4,13.5l-0.9-1.3L3.1,1.6h3.2 l6,8.5l0.9,1.3l7.8,11.1h-3.2L11.4,13.5L11.4,13.5z"></path></g></symbol><symbol id="share-youtube" viewBox="0 0 24 24"><g><path d="M23.8,7c0-2.1-1.6-3.8-3.5-3.8C17.8,3,15.1,3,12.4,3h-0.8c-2.7,0-5.4,0-8,0.2C1.7,3.2,0.2,4.9,0.2,7C0,8.7,0,10.3,0,12 c0,1.7,0,3.3,0.2,5c0,2.1,1.6,3.8,3.5,3.8C6.4,20.9,9.2,21,12,21c2.9,0,5.6-0.1,8.4-0.2c1.9,0,3.5-1.7,3.5-3.8 c0.1-1.7,0.2-3.3,0.2-5C24,10.3,24,8.6,23.8,7z M9.7,16.6V7.4l6.8,4.6L9.7,16.6z"></path></g></symbol><symbol id="share-email" viewBox="0 0 24 24"><path d="M23,6.6l-6.8,4.2L14,12.3l-2,1.2l-2.8-1.7l-1.6-1L1.5,7L0,6v3.2v5.6v5.1C0,20.6,0,21,0.7,21h22.5c0.7,0,0.7-0.4,0.7-1.1 v-5.1V9.2V6L23,6.6z"></path><path d="M23.3,3H0.7C0,3,0,3.4,0,4.1v0.4l3.9,2.4l5,3.1L12,12l3-1.8l5.7-3.5L24,4.5V4.1C24,3.4,24,3,23.3,3z"></path></symbol><symbol id="share-whatsapp" viewBox="0 0 16 16"><path d="M13.601 2.326A7.85 7.85 0 0 0 7.994 0C3.627 0 .068 3.558.064 7.926c0 1.399.366 2.76 1.057 3.965L0 16l4.204-1.102a7.9 7.9 0 0 0 3.79.965h.004c4.368 0 7.926-3.558 7.93-7.93A7.9 7.9 0 0 0 13.6 2.326zM7.994 14.521a6.6 6.6 0 0 1-3.356-.92l-.24-.144-2.494.654.666-2.433-.156-.251a6.56 6.56 0 0 1-1.007-3.505c0-3.626 2.957-6.584 6.591-6.584a6.56 6.56 0 0 1 4.66 1.931 6.56 6.56 0 0 1 1.928 4.66c-.004 3.639-2.961 6.592-6.592 6.592m3.615-4.934c-.197-.099-1.17-.578-1.353-.646-.182-.065-.315-.099-.445.099-.133.197-.513.646-.627.775-.114.133-.232.148-.43.05-.197-.1-.836-.308-1.592-.985-.59-.525-.985-1.175-1.103-1.372-.114-.198-.011-.304.088-.403.087-.088.197-.232.296-.346.1-.114.133-.198.198-.33.065-.134.034-.248-.015-.347-.05-.099-.445-1.076-.612-1.47-.16-.389-.323-.335-.445-.34-.114-.007-.247-.007-.38-.007a.73.73 0 0 0-.529.247c-.182.198-.691.677-.691 1.654s.71 1.916.81 2.049c.098.133 1.394 2.132 3.383 2.992.47.205.84.326 1.129.418.475.152.904.129 1.246.08.38-.058 1.171-.48 1.338-.943.164-.464.164-.86.114-.943-.049-.084-.182-.133-.38-.232"></path></symbol><symbol id="icon-filled-logo" viewBox="0 0 40.31 70"><g fill="currentColor"><path d="M23.21,8.56c0,5.62-9.29,8.56-9.29,14.56a7.89,7.89,0,0,0,.85,4.09s-3.54-3.58-3.54-7.41,3.42-9.58,3.42-9.58c0,2.55,1,3.32,2,3.45h.12c1.1,0,1.71-.9,1.71-2.17s-1.35-2.56-1.35-5.11S20,0,20,0A13.44,13.44,0,0,1,23.21,8.56Z"></path><path d="M20.65,29a5.21,5.21,0,0,1-5.14-5.37V23.5c0-6.51,8.68-7.15,8.68-16,.25.38,2.57,3.7,2.57,7.28,0,4.47-4,5.62-4,7.79,0,.89.37,1.53,1.59,1.53a.43.43,0,0,0,.37-.13,6.84,6.84,0,0,0,4-6C28.71,18.14,29.94,29,20.65,29Z"></path><path d="M18.32,66.68l-2.69-1.92h3.3L20,61.31l1,3.45h3.3l-2.69,1.92,1,3.32-2.69-2L17.1,70Z"></path><path d="M32.38,66.68l-2.69-1.92H33l1.1-3.45,1,3.45h3.3l-2.69,1.92,1,3.32L34,68l-2.81,2Z"></path><path d="M4.39,66.68,1.7,64.76H5l1.1-3.45,1,3.45h3.3L7.69,66.68l1,3.32L6,68,3.29,70Z"></path><polygon points="20.77 31.81 20.16 31.93 20.16 31.93 20.15 31.93 19.54 31.81 14.89 30.66 19.54 37.88 20.15 38.83 20.16 38.82 20.16 38.83 20.77 37.88 25.42 30.66 20.77 31.81"></polygon><path d="M40.3,28.89l-6,.87L32,30.15a6.64,6.64,0,0,0-4.64,2.93L20.29,43.67h0l-.05.07h0l-.06.11-.07-.11h0L20,43.68h0L12.94,33.08A6.64,6.64,0,0,0,8.3,30.15L6,29.76l-6-.87H0L.1,29l0,0L19.57,57.51l.21.31.38.55.37-.55.21-.31L40.2,29.06v0l.1-.15Z"></path></g></symbol><symbol id="icon-external-link" viewBox="0 0 511.6 511.6"><g><path d="m392.9 292.4h-18.3c-2.7 0-4.9.9-6.6 2.6-1.7 1.7-2.6 3.9-2.6 6.6v91.4c0 12.6-4.5 23.3-13.4 32.3-8.9 8.9-19.7 13.4-32.3 13.4h-237.5c-12.6 0-23.3-4.5-32.3-13.4-8.9-8.9-13.4-19.7-13.4-32.3v-237.7c0-12.6 4.5-23.3 13.4-32.3 8.9-8.9 19.7-13.4 32.3-13.4h201c2.7 0 4.9-.9 6.6-2.6 1.7-1.7 2.6-3.9 2.6-6.6v-18.2c0-2.7-.9-4.9-2.6-6.6-1.7-1.7-3.9-2.6-6.6-2.6h-201c-22.6 0-42 8-58.1 24.1-16.1 16.2-24.1 35.6-24.1 58.2v237.5c0 22.6 8 42 24.1 58.1 16.1 16.1 35.5 24.1 58.1 24.1h237.5c22.6 0 42-8 58.1-24.1 16.1-16.1 24.1-35.4 24.1-58.1v-91.4c0-2.7-.9-4.9-2.6-6.6-1.6-1.6-3.8-2.4-6.4-2.4"></path><path d="m506.2 42c-3.6-3.6-7.9-5.4-12.9-5.4h-146.1c-4.9 0-9.2 1.8-12.8 5.4-3.6 3.6-5.4 7.9-5.4 12.8s1.8 9.2 5.4 12.8l50.2 50.2-186.2 186.3c-1.9 1.9-2.9 4.1-2.9 6.6 0 2.5 1 4.7 2.9 6.6l32.5 32.5c1.9 1.9 4.1 2.9 6.6 2.9s4.7-.9 6.6-2.9l186.1-186.1 50.3 50.2c3.6 3.6 7.9 5.4 12.8 5.4s9.2-1.8 12.9-5.4c3.6-3.6 5.4-7.9 5.4-12.8v-146.3c0-4.9-1.8-9.2-5.4-12.8"></path></g></symbol><symbol id="icon-view" viewBox="0 0 24.59 14"><g><path d="M12.29,14C5.82,14,.73,7.89.52,7.63L0,7l.52-.63C.73,6.11,5.82,0,12.29,0S23.85,6.11,24.07,6.37l.52.63-.52.63C23.85,7.89,18.77,14,12.29,14ZM2.64,7c1.41,1.47,5.26,5,9.65,5s8.24-3.53,9.65-5c-1.41-1.47-5.26-5-9.65-5S4.05,5.52,2.64,7Z"></path><path d="M12.29 14a7 7 0 1 1 7 -7A7 7 0 0 1 12.29 14m0-12a5 5 0 1 0 5 5A5 5 0 0 0 12.29 2"></path><path d="M12.29 9a2 2 0 1 1 2 -2A2 2 0 0 1 12.29 9m0-2"></path></g></symbol><symbol id="btn-arrow-right" viewBox="0 0 13.11 28"><g><polygon points="0 0 6.02 14 0 28 13.11 14 0 0"></polygon></g></symbol><symbol id="btn-arrow-right-wide" viewBox="0 0 13 20"><g fill="currentColor"><path d="M0.589356 19.1312L12.7643 10.0385L0.589355 0.868774L6.67681 10.0004L0.589356 19.1312Z"></path></g></symbol><symbol id="icon-search" viewBox="0 0 18 18"><g fill="currentColor"><path d="M7.0718 0C3.17884 0 0 3.17885 0 7.0718C0 10.9647 3.17884 14.1436 7.0718 14.1436C8.63246 14.1436 10.0783 13.6338 11.2506 12.7708L16.1727 17.6862C16.5911 18.1046 17.2678 18.1046 17.6862 17.6862C18.1046 17.2678 18.1046 16.5912 17.6862 16.1727L12.7708 11.2506C13.6337 10.0783 14.1436 8.63246 14.1436 7.0718C14.1436 3.17885 10.9647 0 7.0718 0ZM7.0718 2.14297C9.80655 2.14297 12.0006 4.33702 12.0006 7.0718C12.0006 9.80655 9.80655 12.0006 7.0718 12.0006C4.33703 12.0006 2.14297 9.80655 2.14297 7.0718C2.14297 4.33701 4.33703 2.14297 7.0718 2.14297Z"></path></g></symbol><symbol id="review-star-colored-full" viewBox="0 0 22 20"><g fill="#edc74b"><path d="M10.43.72a.6.6,0,0,1,1.14,0l2,6.12a.6.6,0,0,0,.57.41h6.44a.6.6,0,0,1,.35,1.09l-5.21,3.78a.6.6,0,0,0-.22.67l2,6.12a.6.6,0,0,1-.92.67L11.35,15.8a.6.6,0,0,0-.7,0L5.44,19.58a.6.6,0,0,1-.92-.67l2-6.12a.6.6,0,0,0-.22-.67L1.08,8.34a.6.6,0,0,1,.35-1.09H7.87a.6.6,0,0,0,.57-.41Z"></path></g></symbol><symbol id="btn-arrow-categories" viewBox="0 0 23 23"><circle cx="11.5" cy="11.5" r="11.5" fill="currentColor"></circle><path d="M5 8L11.4726 16L18 8L11.4997 12L5 8Z" fill="#2AF4FF"></path></symbol><symbol id="featured-agency-location" viewBox="0 0 16 20"><path d="M8 10C6.9 10 6 9.1 6 8C6 6.9 6.9 6 8 6C9.1 6 10 6.9 10 8C10 9.1 9.1 10 8 10ZM14 8.2C14 4.57 11.35 2 8 2C4.65 2 2 4.57 2 8.2C2 10.54 3.95 13.64 8 17.34C12.05 13.64 14 10.54 14 8.2ZM8 0C12.2 0 16 3.22 16 8.2C16 11.52 13.33 15.45 8 20C2.67 15.45 0 11.52 0 8.2C0 3.22 3.8 0 8 0Z" fill="#0181dd"></path></symbol><symbol id="featured-agency-category" viewBox="0 0 23 20"><path d="M18.8888 3.33333H15.5554C15.5554 1.44438 14.111 0 12.2221 0H9.99981C8.11105 0 6.66667 1.44438 6.66667 3.33333H3.33333C1.44438 3.33333 0 4.77771 0 6.66667V16.6667C0 18.5556 1.44438 20 3.33333 20H18.889C20.778 20 22.2224 18.5556 22.2224 16.6667L22.2222 6.66667C22.2222 4.77771 20.7778 3.33333 18.8889 3.33333H18.8888ZM10.0002 2.22229H12.2225C12.8891 2.22229 13.3335 2.66667 13.3335 3.33333H8.88914C8.88896 2.66667 9.33353 2.22229 10.0002 2.22229ZM3.33352 5.55562H18.8892C19.5559 5.55562 20.0003 6 20.0003 6.66667C20.0003 7.88895 19.0003 8.88895 17.778 8.88895H4.44467C3.22238 8.88895 2.22238 7.88895 2.22238 6.66667C2.22238 6 2.66695 5.55562 3.33362 5.55562H3.33352ZM18.8888 17.7775H3.33352C2.66686 17.7775 2.22248 17.3331 2.22248 16.6665V10.4441C2.88895 10.8887 3.66686 11.1108 4.44457 11.1108H17.7779C18.5556 11.1108 19.3335 10.8885 20.0002 10.4441V16.6665C20.0002 17.3331 19.5556 17.7775 18.889 17.7775H18.8888Z" fill="#0181dd"></path></symbol><symbol id="marketplace-project-status" viewBox="0 0 25 20"><path d="M7.97 14.23C11.04 9.08 19.45 3.09 23.77 0L25 .82c-5.54 4.75-12.52 10.52-14.36 16.91A20.5 20.5 0 0 0 6.33 20C4.89 16.9 2.06 12.53 0 11.28c3.9-4.64 6.79.52 7.97 2.95Z"></path></symbol><symbol id="icon-website-design-development--vp" viewBox="0 0 24 24"><g><path d="M23.4,16.8h-.6V5.4a3,3,0,0,0-3-3H4.2a3,3,0,0,0-3,3V16.8H.6a.6.6,0,0,0-.6.6v1.2a3,3,0,0,0,3,3H21a3,3,0,0,0,3-3V17.4a.62.62,0,0,0-.6-.6ZM3,5.4A1.2,1.2,0,0,1,4.2,4.2H19.8A1.2,1.2,0,0,1,21,5.4V16.8H15a.63.63,0,0,0-.43.17l-.42.43H9.85L9.43,17A.63.63,0,0,0,9,16.8H3Z"></path><path d="M11.5,8.66l-3,4.8a.63.63,0,0,0,0,.62A.59.59,0,0,0,9,14.4a1.2,1.2,0,0,1,1.2,1.2.62.62,0,0,0,.6.6h2.4a.62.62,0,0,0,.6-.6A1.2,1.2,0,0,1,15,14.4a.61.61,0,0,0,.53-.31.61.61,0,0,0,0-.61l-3-4.8-.1-.11a.61.61,0,0,0-.8,0l-.11.09Zm1.1,2.4V12.6a.6.6,0,0,1-1.2,0V11.09l.6-1Z"></path><path d="M5.4,15.6H6.6a.62.62,0,0,0,.6-.6V13.8a.62.62,0,0,0-.6-.6,5.41,5.41,0,0,1,4.2-5.27.59.59,0,0,0,.6.47h1.2a.59.59,0,0,0,.6-.47,5.41,5.41,0,0,1,4.2,5.27.6.6,0,0,0-.6.6V15a.62.62,0,0,0,.6.6h1.2a.62.62,0,0,0,.6-.6V13.8a.62.62,0,0,0-.6-.6,6.61,6.61,0,0,0-5.4-6.49V6.6a.62.62,0,0,0-.6-.6H11.4a.6.6,0,0,0-.6.6v.11A6.61,6.61,0,0,0,5.4,13.2a.6.6,0,0,0-.6.6V15a.62.62,0,0,0,.6.6Z"></path></g></symbol><symbol id="icon-mobile-app-design-development--vp" viewBox="0 0 24 24"><g><path d="M12 19.14a1.47 1.47 0 1 0 1.38 1.47A1.44 1.44 0 0 0 12 19.14"></path><ellipse cx="10.27" cy="2.65" rx=".53" ry=".56"></ellipse><path d="M11.81,3.17h2.44a.52.52,0,0,0,.5-.54.52.52,0,0,0-.5-.54H11.81a.52.52,0,0,0-.49.54.52.52,0,0,0,.49.54"></path><path d="M7.2,18.3h9.61a.49.49,0,0,0,.47-.51V4.69a.48.48,0,0,0-.47-.5H7.2a.49.49,0,0,0-.47.5v13.1a.49.49,0,0,0,.47.51"></path><path d="M4.56,1.7V22.3A1.65,1.65,0,0,0,6.15,24h11.7a1.65,1.65,0,0,0,1.59-1.7V1.7A1.65,1.65,0,0,0,17.85,0H6.15A1.65,1.65,0,0,0,4.56,1.7m13.82,0V22.3a.56.56,0,0,1-.53.57H6.15a.55.55,0,0,1-.53-.57V1.7a.56.56,0,0,1,.53-.57h11.7a.55.55,0,0,1,.53.57"></path></g></symbol><symbol id="icon-ecommerce-development--vp" viewBox="0 0 24 24"><g><path d="M16,17.94a1.7,1.7,0,0,1,1.74,1.74A1.64,1.64,0,0,1,16,21.29a1.68,1.68,0,0,1,0-3.35"></path><path d="M8.59,17.94a1.7,1.7,0,0,1,1.74,1.74,1.64,1.64,0,0,1-1.74,1.61A1.61,1.61,0,0,1,7,19.68a1.64,1.64,0,0,1,1.62-1.74"></path><path d="M19.08,13.38l-.84,2.7a.46.46,0,0,1-.48.42H6.61a.46.46,0,0,1-.48-.42c-.9-3.42-1.86-6.78-2.76-10.2H.49a.48.48,0,1,1,0-1H3.73a.51.51,0,0,1,.48.42l.66,2.28h8.4v.06c0,.3.06.66.06,1H5.17L7,15.42H17.4l.66-2.1c.3,0,.66.06,1,.06h.06"></path><path d="M19,2.71a5,5,0,1,0,5,5A5,5,0,0,0,19,2.71Zm2.52,5.15-1.2,1.26c-.06.06-.06.06-.12.06H20.1a.22.22,0,0,1-.18-.06c-.06-.06-.12-.12-.12-.18s-.06-.12,0-.18.06-.12.12-.18l1-1-1.08-1c-.06-.06-.06-.06-.06-.12a.21.21,0,0,0-.06-.12V6.24c0-.06.06-.06.06-.12s.06-.06.12-.06H20c.06,0,.12,0,.12.06.18-.06.18-.06.24,0l1.2,1.26a.45.45,0,0,1,.12.24A.45.45,0,0,1,21.54,7.86Zm-3.36.84c.06.06.12.12.12.18s0,.12,0,.18-.06.12-.12.18A.22.22,0,0,1,18,9.3h-.12c-.06,0-.06,0-.12-.06L16.56,8a.31.31,0,0,1-.12-.24.45.45,0,0,1,.12-.24l1.2-1.26c.06-.06.06-.12.12-.12s.06-.06.12-.06h.12c.06,0,.06,0,.12.06s.06.06.06.12v.12a.21.21,0,0,0-.06.12c0,.06,0,.06-.06.12l-1,1Z"></path></g></symbol><symbol id="icon-software-development--vp" viewBox="0 0 24 24"><g><path d="M12.26,23.84l1.21-.51a1.28,1.28,0,0,0,.7-1.64l-.3-.75a8.1,8.1,0,0,0,1.57-1.58l.75.3a1.25,1.25,0,0,0,1,0,1.38,1.38,0,0,0,.7-.69l.51-1.21a1.21,1.21,0,0,0-.69-1.63l-1.15-.49a.51.51,0,0,0-.64.27.48.48,0,0,0,.27.64l1.12.45a.3.3,0,0,1,.15.4l-.51,1.21a.36.36,0,0,1-.15.15.26.26,0,0,1-.21,0l-1.12-.46a.54.54,0,0,0-.61.18A7.16,7.16,0,0,1,13,20.36a.52.52,0,0,0-.18.61l.45,1.12a.3.3,0,0,1-.15.39L11.9,23a.26.26,0,0,1-.21,0,.36.36,0,0,1-.15-.15l-.46-1.12a.5.5,0,0,0-.54-.3,6.47,6.47,0,0,1-2.63,0,.49.49,0,0,0-.55.3l-.45,1.12a.31.31,0,0,1-.4.15L5.3,22.48a.36.36,0,0,1-.15-.15.26.26,0,0,1,0-.21L5.61,21a.53.53,0,0,0-.19-.61,6.82,6.82,0,0,1-1.84-1.87A.51.51,0,0,0,3,18.33l-1.06.43a.26.26,0,0,1-.21,0,.36.36,0,0,1-.15-.15L1.07,17.4a.28.28,0,0,1,0-.22A.36.36,0,0,1,1.22,17l1.12-.45a.53.53,0,0,0,.3-.55,6.62,6.62,0,0,1,0-2.66.5.5,0,0,0-.3-.54l-1.12-.4A.3.3,0,0,1,1.07,12l.51-1.21a.31.31,0,0,1,.4-.15l1,.39a.5.5,0,0,0,.61-.18A6.69,6.69,0,0,1,5.48,9a.52.52,0,0,0,.19-.61L5.21,7.29a.26.26,0,0,1,0-.21.36.36,0,0,1,.15-.15l1.21-.52a.28.28,0,0,1,.22,0,.33.33,0,0,1,.15.16l.45,1.11A.5.5,0,0,0,8,8a.51.51,0,0,0,.27-.64L7.84,6.2a1.2,1.2,0,0,0-.69-.69,1.35,1.35,0,0,0-1,0L5,6a1.44,1.44,0,0,0-.7.7,1.33,1.33,0,0,0,0,1l.31.76A7.84,7.84,0,0,0,3,10l-.75-.3a1.24,1.24,0,0,0-1.64.7L.1,11.62a1.22,1.22,0,0,0,.7,1.63l.75.3a7,7,0,0,0,0,2.24l-.75.3a1.44,1.44,0,0,0-.7.7,1.35,1.35,0,0,0,0,1L.58,19a1.22,1.22,0,0,0,.7.69,1.26,1.26,0,0,0,1,0l.75-.3a7.75,7.75,0,0,0,1.55,1.58l-.31.75a1.35,1.35,0,0,0,0,1,1.3,1.3,0,0,0,.7.7l1.21.51a1.23,1.23,0,0,0,1.63-.7l.31-.75a6.83,6.83,0,0,0,2.21,0l.3.75a1.19,1.19,0,0,0,.69.7,1.53,1.53,0,0,0,1,0"></path><path d="M5.3,14.73a3.93,3.93,0,0,0,3.91,3.94h0A3.83,3.83,0,0,0,12,17.46a3.94,3.94,0,0,0,1.15-2.82.49.49,0,0,0-1,0,2.9,2.9,0,0,1-.88,2.12,2.86,2.86,0,0,1-2.08.91h0a3,3,0,0,1-3-3,3,3,0,0,1,2.94-3,.49.49,0,0,0,0-1,4,4,0,0,0-3.88,4"></path><path d="M19.55,3.15a.49.49,0,0,0,.28.09.48.48,0,0,0,.33-.15l.6-.64s0,0,.06,0a.09.09,0,0,1,.06,0l.67.67a.09.09,0,0,1,0,.12l-.61.63a.55.55,0,0,0-.06.64,4.64,4.64,0,0,1,.73,1.72.47.47,0,0,0,.48.4H23a.1.1,0,0,1,.09.09v1s0,.1-.09.1h-.88a.48.48,0,0,0-.48.39,4.25,4.25,0,0,1-.73,1.72.56.56,0,0,0,.06.64l.61.63a.09.09,0,0,1,0,.12l-.67.67s0,0-.06,0a.09.09,0,0,1-.06,0l-.6-.64a.51.51,0,0,0-.61-.06,4.51,4.51,0,0,1-1.69.73.46.46,0,0,0-.39.48v.88a.11.11,0,0,1-.1.09h-1a.1.1,0,0,1-.09-.09v-.88a.47.47,0,0,0-.4-.48,4,4,0,0,1-1.69-.73.51.51,0,0,0-.61.06L13,12s0,0-.06,0a.09.09,0,0,1-.06,0l-.64-.73s0,0,0-.06a.09.09,0,0,1,0-.06l.61-.63a.55.55,0,0,0,.06-.64,4.64,4.64,0,0,1-.73-1.72.47.47,0,0,0-.48-.4h-.88a.1.1,0,0,1-.09-.09V6.69a.1.1,0,0,1,.09-.09h.88a.49.49,0,0,0,.48-.4,4.25,4.25,0,0,1,.73-1.72.56.56,0,0,0-.06-.64l-.61-.63s0,0,0-.06a.09.09,0,0,1,0-.06l.67-.64h0a.09.09,0,0,1,.06,0l.6.64a.51.51,0,0,0,.61.06,4.51,4.51,0,0,1,1.69-.73.49.49,0,0,0,.4-.48V1.06A.1.1,0,0,1,16.41,1h1s.1,0,.1.09v.88a.48.48,0,0,0,.39.48,5.74,5.74,0,0,1,1.69.73M17.37,0h-1a1.07,1.07,0,0,0-1.06,1.06v.45A4.71,4.71,0,0,0,14,2.12l-.34-.37a1,1,0,0,0-.75-.3,1.13,1.13,0,0,0-.76.3l-.66.67a1,1,0,0,0-.31.76,1.14,1.14,0,0,0,.31.75l.33.37a7.14,7.14,0,0,0-.58,1.33h-.48A1.07,1.07,0,0,0,9.72,6.69v1a1.07,1.07,0,0,0,1.06,1.06h.51A4,4,0,0,0,11.87,10l-.33.37a1,1,0,0,0-.31.75,1.15,1.15,0,0,0,.31.76l.66.67a1,1,0,0,0,.76.3,1.12,1.12,0,0,0,.75-.3l.34-.37a7.14,7.14,0,0,0,1.33.58v.48a1.07,1.07,0,0,0,1.06,1.06h1a1.07,1.07,0,0,0,1.06-1.06v-.54a4.71,4.71,0,0,0,1.33-.58l.34.36a1,1,0,0,0,.75.31,1.09,1.09,0,0,0,.76-.31l.67-.66a1,1,0,0,0,0-1.48L21.88,10a7.14,7.14,0,0,0,.58-1.33h.48A1.07,1.07,0,0,0,24,7.65v-1a1.07,1.07,0,0,0-1.06-1.06h-.48a4,4,0,0,0-.58-1.33l.34-.37a1,1,0,0,0,0-1.48l-.64-.67a1,1,0,0,0-.76-.3,1.12,1.12,0,0,0-.75.3l-.31.34a7.14,7.14,0,0,0-1.33-.58V1.09A1.11,1.11,0,0,0,17.37,0"></path><path d="M18.8,7.17a1.92,1.92,0,0,1-1.91,1.91,1.91,1.91,0,0,1,0-3.82A1.88,1.88,0,0,1,18.8,7.17M14,7.17a2.87,2.87,0,1,0,2.87-2.9A2.9,2.9,0,0,0,14,7.17"></path></g></symbol><symbol id="icon-enterprise-software-development--vp" viewBox="0 0 24 24"><g><path d="M7.08,3.91H11V3H12.5V0H13V2.93h1V1.49h.49V2.94h1.43v1h1V12a.51.51,0,0,0,.17.41c.21.19.39.41.6.6a.63.63,0,0,1,.22.55c0,2.84,0,5.67,0,8.51v.42h1.46v1h1.16V24H3.53v-.49h1v-1H6.06v-.29q0-7.18,0-14.36a.72.72,0,0,1,.31-.65c.26-.18.58-.36.69-.63a2.28,2.28,0,0,0,0-.91ZM11,12.66h1.92V10.73H11Zm4.84,0V10.74H13.93v1.93ZM11,4.92V6.85H13V4.92Zm2.91,0V6.85h1.92V4.92ZM11,7.83V9.76h1.92V7.83Zm2.91,0V9.76h1.92V7.84Zm-1,5.78h-1.8c-.05,0-.13.09-.14.12,0,.6,0,1.2,0,1.81H13Zm1,0v1.93h1.92V13.62Zm-1,3H11v1.92h1.92Zm1,0v1.92h1.92V16.64Zm-1,4.87V19.58H11v1.93Zm2.93-1.93H13.94v1.94h1.78a.2.2,0,0,0,.14-.13C15.87,20.79,15.87,20.2,15.87,19.58ZM10,4.91H8.67c-.64,0-.64,0-.64.64V6.84H10ZM8.05,9.76H10V7.84H8.05Zm1.93,1H8.05v1.92H10ZM8,15.55H10c0-.61,0-1.19,0-1.77a.22.22,0,0,0-.15-.16H8.19s-.15.09-.15.13Zm0,3H9.29c.22,0,.53.07.63,0s.06-.43.06-.65c0-.41,0-.82,0-1.24H8.05Zm0,1v1.78c0,.13.06.16.18.16H10V19.59Z"></path></g></symbol><symbol id="icon-b2b-website-design-companies--vp" viewBox="0 0 24 24"><g><path d="M13.68,18.52v.24a.28.28,0,0,1-.25.25H10.57a.25.25,0,0,1-.25-.25v-.24H0V19a.7.7,0,0,0,.73.7H23.27A.7.7,0,0,0,24,19v-.49H13.68"></path><path d="M21.62,4.3H2.35a.83.83,0,0,0-.83.83V16.66a.82.82,0,0,0,.83.82H21.59a.82.82,0,0,0,.83-.82V5.12A.81.81,0,0,0,21.62,4.3ZM13.86,6.67v.76H10.05V6.67a.24.24,0,0,1,.24-.24h3.32A.24.24,0,0,1,13.86,6.67ZM6.7,9.08h0A1.16,1.16,0,0,1,7.89,7.92h8.19a1.16,1.16,0,0,1,1.16,1.16V10.2a10.65,10.65,0,0,1-4.54,1.16.82.82,0,0,0-.73-.49.81.81,0,0,0-.73.49A10.9,10.9,0,0,1,6.7,10.2Zm10.51,1.7v3.41a1.16,1.16,0,0,1-1.16,1.16H7.89a1.14,1.14,0,0,1-1.16-1.13h0V10.78a11.64,11.64,0,0,0,4.51,1.1.76.76,0,0,0,.73.52.77.77,0,0,0,.73-.52A11.51,11.51,0,0,0,17.21,10.78Z"></path></g></symbol><symbol id="icon-responsive-web-design-companies--vp" viewBox="0 0 24 24"><g><path d="M20.4,13.92V9h-5V5.2H0V16H6.56v1.44H5V18.8h5.6V17.36H8.88V15.92H12V18.8H24v-5H20.4Zm-8.4.64H1.44v-8H14.16V8.88H12v5.68Zm5,2.88h-3.6v-7H19v3.52H16.88v3.52Zm5.6,0H18.4V15.36h4.24v2.08Z"></path></g></symbol><symbol id="icon-small-business-web-design-companies--vp" viewBox="0 0 24 24"><g><path d="M24,5.76,22.27.58A.91.91,0,0,0,21.41,0H2.59a.91.91,0,0,0-.86.58L0,5.76v.29H0v.86a4.51,4.51,0,0,0,1.73,3.46h0V21.5A2.56,2.56,0,0,0,4.32,24H19.78a2.58,2.58,0,0,0,2.59-2.59V10.27h0A4.57,4.57,0,0,0,24,6.82V6.05h0Zm-5.95-4h2.78L22,5.18H18.05Zm-5.19,0h3.46V5.18H12.86Zm-5.18,0h3.46V5.18H7.68Zm-4.51,0H6V5.18H2ZM13.73,22.27H10.27V15.46h3.46v6.81Zm6.81-.86a.85.85,0,0,1-.86.86H15.36V14.59a.85.85,0,0,0-.86-.86H9.41a.86.86,0,0,0-.87.86v7.68H4.32a.85.85,0,0,1-.86-.86V11a4,4,0,0,0,3.45-.77,4.34,4.34,0,0,0,5.19,0,4.32,4.32,0,0,0,5.18,0,4,4,0,0,0,3.46.77l-.2,10.37Zm-.86-12a2.41,2.41,0,0,1-1.92-.87.9.9,0,0,0-1.25-.09l-.09.09a2.58,2.58,0,0,1-3.65.2c0-.1-.1-.1-.1-.2a.83.83,0,0,0-1.25,0h0a2.57,2.57,0,0,1-3.64.2c-.1-.1-.2-.1-.29-.2a.83.83,0,0,0-1.25,0h0A2.58,2.58,0,0,1,1.73,6.82H22.27A2.58,2.58,0,0,1,19.68,9.41Z"></path></g></symbol><symbol id="icon-nearshore-software-development-companies--vp" viewBox="0 0 24 24"><g><path d="M20.24,13,18,11.64c-.22.43-.43.86-.64,1.26l1.69,1,2.35,6.93-3.35-2-1-5.26-.52,1,.91,4.57-5.08,3V14.39l.39-.23c-.21-.38-.43-.8-.66-1.25L12,13,7.88,10.5,3.76,13,0,24l6-3.58L12,24l6-3.58L24,24,20.24,13M6,18.79l-3.41,2L4.93,13.9l2.3-1.37L6,18.79m5.67,3.36-5-3L8,12.21l3.64,2.18v7.76M19.37,4.64a4.64,4.64,0,0,0-9.28,0c0,2.57,4.64,10.72,4.64,10.72s4.64-8.15,4.64-10.72m-2.5,0h.41a.35.35,0,0,1,.24.1.37.37,0,0,1,.1.24v.35a.37.37,0,0,1-.1.24.35.35,0,0,1-.24.1h-.41a2,2,0,0,1-.22.52l.29.29L17,6.6a.35.35,0,0,1,0,.14.35.35,0,0,1,0,.13.41.41,0,0,1-.07.11l-.24.24a.41.41,0,0,1-.11.07.31.31,0,0,1-.13,0,.28.28,0,0,1-.13,0,.41.41,0,0,1-.11-.07l-.29-.29a2.2,2.2,0,0,1-.53.22v.41a.34.34,0,0,1-.34.34h-.34a.39.39,0,0,1-.25-.1.35.35,0,0,1-.1-.24V7.15a2,2,0,0,1-.52-.22l-.29.29a.41.41,0,0,1-.11.07.31.31,0,0,1-.13,0,.28.28,0,0,1-.13,0l-.12-.07L12.84,7a.28.28,0,0,1-.08-.11.3.3,0,0,1,0-.13.27.27,0,0,1,0-.13.32.32,0,0,1,.08-.12l.28-.28a2.2,2.2,0,0,1-.22-.53h-.41a.34.34,0,0,1-.34-.34V5a.34.34,0,0,1,.34-.34h.41a2.39,2.39,0,0,1,.22-.52l-.28-.29a.28.28,0,0,1-.08-.11.32.32,0,0,1,0-.13.34.34,0,0,1,0-.14.28.28,0,0,1,.08-.11l.23-.24A.41.41,0,0,1,13.18,3l.13,0a.35.35,0,0,1,.14,0,.41.41,0,0,1,.11.07l.29.29a2,2,0,0,1,.52-.22V2.77a.37.37,0,0,1,.1-.24.37.37,0,0,1,.25-.1h.34a.34.34,0,0,1,.34.34v.41a2.7,2.7,0,0,1,.53.22l.28-.29L16.33,3a.28.28,0,0,1,.13,0,.31.31,0,0,1,.13,0,.41.41,0,0,1,.11.07l.24.24a.41.41,0,0,1,.07.11.31.31,0,0,1,0,.13.28.28,0,0,1,0,.13.47.47,0,0,1-.07.12l-.29.29a2,2,0,0,1,.22.52M14.41,5.88a.9.9,0,0,0,.48.14.85.85,0,0,0,.85-.85.9.9,0,0,0-.14-.48.85.85,0,0,0-.39-.31A.85.85,0,0,0,14.1,5.49a.85.85,0,0,0,.31.39"></path></g></symbol><symbol id="icon-fintech-software-development--vp" viewBox="0 0 24 24"><g><path d="M2.8,13.88V12.81H.92a.8.8,0,0,1-.83-.61.81.81,0,0,1,.75-1c.24,0,.49,0,.73,0H2.82V10.1H.89a.82.82,0,1,1,0-1.64H2.82V7.4H.88a.81.81,0,0,1-.8-.69.81.81,0,0,1,.79-1h2A3.63,3.63,0,0,1,5.8,2.82v-2a.82.82,0,1,1,1.64,0V2.77H8.51V.84A.82.82,0,0,1,9.16,0a.8.8,0,0,1,1,.77c0,.63,0,1.24,0,1.87v.1h1.07V.85A.82.82,0,0,1,12.85.77c0,.13,0,.26,0,.38V2.77h1.07V.84a.82.82,0,0,1,1.63-.1.71.71,0,0,1,0,.2V2.77h1.06V.85A.83.83,0,0,1,17.3,0a.82.82,0,0,1,1,.82v2a3.61,3.61,0,0,1,2.91,2.92h2a.82.82,0,0,1,0,1.64H21.25V8.46h1.89A.84.84,0,0,1,24,9a.82.82,0,0,1-.61,1.08l-.22,0H21.23v1.07h1.9a.84.84,0,0,1,.81.53.83.83,0,0,1-.7,1.12h-2v1.07h1.92a.82.82,0,1,1,0,1.64H21.23v1.07h1.92a.82.82,0,0,1,.83.83.81.81,0,0,1-.81.81h-2a3.5,3.5,0,0,1-1,1.91,3.73,3.73,0,0,1-1.92,1v1.95a.8.8,0,0,1-.69.83.82.82,0,0,1-.95-.66,1.34,1.34,0,0,1,0-.2V21.21H15.54v1.91a.83.83,0,1,1-1.65,0c0-.62,0-1.24,0-1.85v-.1H12.83v1.9a.84.84,0,0,1-.56.82.82.82,0,0,1-1.08-.74c0-.63,0-1.24,0-1.87v-.11H10.11v1.93a.83.83,0,1,1-1.65,0V21.24H7.39v1.9a.82.82,0,0,1-1.63.19,1.34,1.34,0,0,1,0-.2V21.2a3.63,3.63,0,0,1-2.93-2.93h-2a.78.78,0,0,1-.71-.43.78.78,0,0,1,0-.83.82.82,0,0,1,.7-.39H2.76V15.55H.86a.82.82,0,1,1,0-1.64c.62,0,1.23,0,1.86,0A.24.24,0,0,1,2.8,13.88Zm14.93,5.93a2.14,2.14,0,0,0,1.32-.5,2,2,0,0,0,.78-1.47,5.93,5.93,0,0,0,0-.73V6.79c0-.11,0-.2,0-.31a1.82,1.82,0,0,0,0-.33A2.18,2.18,0,0,0,18.09,4.2a5,5,0,0,0-.87,0H6.37a2,2,0,0,0-.91.2A2.17,2.17,0,0,0,4.2,6.09a5.61,5.61,0,0,0,0,.71V17.2c0,.1,0,.2,0,.3a2.8,2.8,0,0,0,0,.5A2.14,2.14,0,0,0,6,19.79a7.13,7.13,0,0,0,.8,0H17.73Z"></path><path d="M5.14,12V6.39a1.25,1.25,0,0,1,.52-1.06,1.14,1.14,0,0,1,.75-.22H17.62a1.3,1.3,0,0,1,.87.3,1.28,1.28,0,0,1,.43.89V17.58a1.27,1.27,0,0,1-.52,1.07,1.15,1.15,0,0,1-.75.23H6.44a1.27,1.27,0,0,1-1.29-1.31v-5C5.14,12.35,5.14,12.17,5.14,12Zm7.73,3.92c.17-.05.33-.08.5-.14A2.28,2.28,0,0,0,14.51,15a2,2,0,0,0,.41-1.09,2.08,2.08,0,0,0-.27-1.31,1.74,1.74,0,0,0-.8-.72l-1.48-.64c-.35-.15-.71-.28-1-.43a.58.58,0,0,1-.36-.46.54.54,0,0,1,.36-.55,1.86,1.86,0,0,1,1.14-.09,5.16,5.16,0,0,1,1,.38,2.6,2.6,0,0,0,.44.16.56.56,0,0,0,.64-.22,1.19,1.19,0,0,0,.23-.48.64.64,0,0,0-.22-.62,3.35,3.35,0,0,0-1.52-.72l-.21,0V7.61A.61.61,0,0,0,12.27,7a2.27,2.27,0,0,0-.45,0,.59.59,0,0,0-.42.27.71.71,0,0,0-.09.38v.5L11,8.19a2.79,2.79,0,0,0-1,.47,2.1,2.1,0,0,0-.76,1.56,2,2,0,0,0,.58,1.49,2.6,2.6,0,0,0,.87.56c.54.22,1.09.44,1.64.68a3.62,3.62,0,0,1,.6.28A.55.55,0,0,1,13,14a.8.8,0,0,1-.45.31,2,2,0,0,1-1.39-.09c-.32-.14-.61-.31-.93-.45A.7.7,0,0,0,9.3,14a.78.78,0,0,0-.15.76,1,1,0,0,0,.34.45,3.35,3.35,0,0,0,1.34.62l.47.09v.48a.57.57,0,0,0,.45.57,3.29,3.29,0,0,0,.55,0,.59.59,0,0,0,.43-.25.72.72,0,0,0,.12-.4A3.31,3.31,0,0,0,12.87,15.9Z"></path></g></symbol><symbol id="icon-blaze" viewBox="0 0 39 39"><g><path d="M32.1656 23.4092C23.1279 26.3951 20.1184 29.4052 17.1324 38.4425C16.8867 39.1854 15.8361 39.1854 15.5905 38.4425C12.6046 29.4047 9.59446 26.3952 0.557228 23.4092C-0.185743 23.1636 -0.185743 22.113 0.557228 21.8673C9.59497 18.8814 12.6045 15.8713 15.5905 6.83408C15.8361 6.09111 16.8867 6.09111 17.1324 6.83408C20.1182 15.8718 23.1284 18.8813 32.1656 21.8673C32.9086 22.113 32.9086 23.1636 32.1656 23.4092Z"></path><path d="M38.7216 8.56721C34.2038 10.0592 32.6979 11.5651 31.2039 16.0849C31.0821 16.4563 30.5568 16.4563 30.433 16.0849C28.941 11.5671 27.4351 10.0612 22.9153 8.56721C22.5438 8.44537 22.5438 7.9201 22.9153 7.79627C27.4331 6.30429 28.939 4.79836 30.433 0.278618C30.5548 -0.0928726 31.0801 -0.0928726 31.2039 0.278618C32.6959 4.79642 34.2018 6.30225 38.7216 7.79627C39.0931 7.9181 39.0931 8.44337 38.7216 8.56721Z"></path></g></symbol><symbol id="icon-top-arrow" viewBox="0 0 12 13"><g><path d="M5 13V3.8L1.4 7.4L0 6L6 0L12 6L10.6 7.4L7 3.8V13H5Z"></path></g></symbol><symbol id="icon-voice" viewBox="0 0 14 19"><g><path d="M7 12C6.16667 12 5.45833 11.7083 4.875 11.125C4.29167 10.5417 4 9.83333 4 9V3C4 2.16667 4.29167 1.45833 4.875 0.875C5.45833 0.291667 6.16667 0 7 0C7.83333 0 8.54167 0.291667 9.125 0.875C9.70833 1.45833 10 2.16667 10 3V9C10 9.83333 9.70833 10.5417 9.125 11.125C8.54167 11.7083 7.83333 12 7 12ZM6 19V15.9C4.26667 15.6667 2.83333 14.8958 1.7 13.5875C0.566667 12.2792 0 10.75 0 9H2C2 10.3833 2.4875 11.5625 3.4625 12.5375C4.4375 13.5125 5.61667 14 7 14C8.38333 14 9.5625 13.5125 10.5375 12.5375C11.5125 11.5625 12 10.3833 12 9H14C14 10.75 13.4333 12.2792 12.3 13.5875C11.1667 14.8958 9.73333 15.6667 8 15.9V19H6ZM7 10C7.28333 10 7.52083 9.90417 7.7125 9.7125C7.90417 9.52083 8 9.28333 8 9V3C8 2.71667 7.90417 2.47917 7.7125 2.2875C7.52083 2.09583 7.28333 2 7 2C6.71667 2 6.47917 2.09583 6.2875 2.2875C6.09583 2.47917 6 2.71667 6 3V9C6 9.28333 6.09583 9.52083 6.2875 9.7125C6.47917 9.90417 6.71667 10 7 10Z"></path></g></symbol><symbol id="icon-play-video" viewBox="0 0 24 34"><g><path d="M22.7319 15.4L3.8875 1.2667C2.56903 0.277845 0.6875 1.2186 0.6875 2.86669V31.1334C0.6875 32.7815 2.56903 33.7222 3.8875 32.7334L22.7319 18.6C23.7986 17.8 23.7986 16.2 22.7319 15.4Z"></path></g></symbol></svg>