<svg width="20" height="20" class="fl-shrink icon" xmlns="http://www.w3.org/2000/svg"><defs><symbol id="icon-bd-websites" viewBox="0 0 22 22"><g><path xmlns="http://www.w3.org/2000/svg" d="M3.3,16.42a2.15,2.15,0,0,1-1.55-.64,2.06,2.06,0,0,1-.65-1.53V4.5A2.06,2.06,0,0,1,1.75,3,2.15,2.15,0,0,1,3.3,2.33H18.7A2.15,2.15,0,0,1,20.25,3,2.06,2.06,0,0,1,20.9,4.5h-6a3.74,3.74,0,0,0-2.72,1.11A3.63,3.63,0,0,0,11,8.29v8.13Zm11.55,3.25a1.59,1.59,0,0,1-1.17-.48A1.55,1.55,0,0,1,13.2,18V8.29a1.56,1.56,0,0,1,.48-1.15,1.58,1.58,0,0,1,1.17-.47h5.5a1.58,1.58,0,0,1,1.17.47A1.56,1.56,0,0,1,22,8.29V18a1.55,1.55,0,0,1-.48,1.15,1.59,1.59,0,0,1-1.17.48ZM0,19.67V17.5H11v2.17Zm17.6-8.13a.8.8,0,0,0,.82-.81.75.75,0,0,0-.23-.58.77.77,0,0,0-.59-.23.81.81,0,0,0-.58.23.76.76,0,0,0-.25.58.79.79,0,0,0,.25.57A.82.82,0,0,0,17.6,11.54Z"></path></g></symbol></defs><use href="#icon-bd-websites"></use></svg>