<svg width="20" height="20" class="fl-shrink icon" xmlns="http://www.w3.org/2000/svg"><defs><symbol id="icon-bd-video" viewBox="0 0 22 22"><g><path xmlns="http://www.w3.org/2000/svg" d="M10.45,13.75l7.7-4.95-7.7-5ZM6.6,17.6A2.12,2.12,0,0,1,5.05,17,2.11,2.11,0,0,1,4.4,15.4V2.2A2.11,2.11,0,0,1,5.05.65,2.12,2.12,0,0,1,6.6,0H19.8a2.11,2.11,0,0,1,1.55.65A2.11,2.11,0,0,1,22,2.2V15.4a2.22,2.22,0,0,1-2.2,2.2ZM2.2,22a2.11,2.11,0,0,1-1.55-.65A2.11,2.11,0,0,1,0,19.8V4.4H2.2V19.8H17.6V22Z"></path></g></symbol></defs><use href="#icon-bd-video"></use></svg>