<svg width="20" height="20" class="fl-shrink icon" xmlns="http://www.w3.org/2000/svg"><defs><symbol id="icon-bd-logo" viewBox="0 0 22 22"><g><path xmlns="http://www.w3.org/2000/svg" d="M3.67,22a3.55,3.55,0,0,1-2.6-1.07A3.55,3.55,0,0,1,0,18.33V11A3.59,3.59,0,0,1,1.07,8.4L8.4,1.07A3.15,3.15,0,0,1,9.61.26,4,4,0,0,1,11,0a3.88,3.88,0,0,1,1.38.26,3.52,3.52,0,0,1,1.22.81l.91.92L4.89,11.61v5.5H17.11v-5.5l-4.4-4.4,3.51-3.48L20.93,8.4A3.7,3.7,0,0,1,22,11v7.33A3.65,3.65,0,0,1,18.33,22Z"></path></g></symbol></defs><use href="#icon-bd-logo"></use></svg>