<svg xmlns="http://www.w3.org/2000/svg" xmlns:xlink="http://www.w3.org/1999/xlink"><symbol id="icon-app-development-cluster" viewBox="0 0 40 40"><g><path d="m24.1 20.7c-.7-.6-1.3-1.2-2-1.8-1.1-.9-2.1-1.9-3.2-2.8-.2-.2-.5-.4-.7-.6 0 .9 0 1.7 0 2.6.7-.6 1.3-1.2 2-1.8 1.1-.9 2.1-1.9 3.2-2.8.2-.2.5-.4.7-.6.7-.6.7-1.9 0-2.6-.8-.7-1.8-.7-2.6 0-.7.6-1.3 1.2-2 1.8-1.1.9-2.1 1.9-3.2 2.8-.2.2-.5.4-.7.6-.7.6-.7 2 0 2.6.7.6 1.3 1.2 2 1.8 1.1.9 2.1 1.9 3.2 2.8.2.2.5.4.7.6.4.3.8.5 1.3.5.4 0 1-.2 1.3-.5.3-.3.6-.8.5-1.3.1-.4-.1-.9-.5-1.3"></path><path d="m28.1 12.9c.7.6 1.3 1.2 2 1.8 1.1.9 2.1 1.9 3.2 2.8.2.2.5.4.7.6 0-.9 0-1.7 0-2.6-.7.6-1.3 1.2-2 1.8-1.1.9-2.1 1.9-3.2 2.8-.2.2-.5.4-.7.6-.7.6-.7 1.9 0 2.6.8.7 1.8.7 2.6 0 .7-.6 1.3-1.2 2-1.8 1.1-.9 2.1-1.9 3.2-2.8.2-.2.5-.4.7-.6.7-.6.7-2 0-2.6-.7-.6-1.3-1.2-2-1.8-1.1-.9-2.1-1.9-3.2-2.8-.2-.2-.5-.4-.7-.6-.4-.3-.8-.5-1.3-.5-.4 0-1 .2-1.3.5-.3.3-.6.8-.5 1.3 0 .4.1.9.5 1.3"></path><path d="m24.2 27.5c0 1.1 0 2.2 0 3.3 0 1.7 0 3.4 0 5.1 0 .4 0 .9 0 1.3 0-.2 0-.3.1-.5 0 .1 0 .2-.1.3.1-.1.1-.3.2-.4 0 .1-.1.2-.1.3.1-.1.2-.2.3-.4-.1.1-.1.1-.2.2.1-.1.2-.2.4-.3-.1.1-.2.1-.2.1.1-.1.3-.1.4-.2-.1 0-.2.1-.3.1.2 0 .3 0 .5-.1-.7.1-1.3 0-2 0-1.5 0-3 0-4.6 0-1.8 0-3.7 0-5.5 0-1.6 0-3.2 0-4.8 0-.8 0-1.5 0-2.3 0-.1 0-.1 0-.2 0 .2 0 .3 0 .5.1-.1 0-.2 0-.3-.1.1.1.3.1.4.2-.1-.1-.2-.1-.3-.2.1.1.2.2.4.3-.1-.1-.1-.1-.2-.2.1.1.2.2.3.4-.1-.1-.1-.2-.2-.3.1.1.1.3.2.4 0-.1-.1-.2-.1-.3 0 .2 0 .3.1.5 0-.3 0-.7 0-1 0-.8 0-1.6 0-2.5 0-1.2 0-2.4 0-3.7 0-1.5 0-3 0-4.5 0-1.6 0-3.3 0-4.9 0-1.7 0-3.3 0-5 0-1.5 0-3.1 0-4.6 0-1.3 0-2.6 0-3.9 0-.9 0-1.9 0-2.8 0-.4 0-.9 0-1.3 0-.1 0-.1 0-.2 0 .2 0 .3-.1.5 0-.1 0-.2.1-.3 0 .3-.1.4-.2.6 0-.1.1-.2.2-.3-.1.1-.2.3-.3.4.1-.1.1-.1.2-.2-.1.1-.2.2-.3.3.1-.1.2-.1.3-.2-.2.1-.4.1-.5.2.1 0 .2-.1.3-.1-.2 0-.3 0-.5.1.2 0 .4 0 .7 0 .5 0 .9 0 1.4 0 1.5 0 3 0 4.6 0 1.9 0 3.7 0 5.6 0 1.6 0 3.2 0 4.8 0 .8 0 1.5 0 2.3 0 .1 0 .1 0 .2 0-.2 0-.3 0-.5-.1.1 0 .2 0 .2.1-.1-.1-.3-.1-.4-.2.1 0 .2.1.2.1s-.2-.2-.4-.3c.1.1.1.1.2.2-.1-.1-.2-.2-.3-.4.1.1.1.2.1.2-.1-.1-.1-.3-.2-.4 0 .1.1.2.1.3 0-.2 0-.3-.1-.5.1.6 0 1.1 0 1.7 0 .5 0 1.1 0 1.6 0 1 .8 1.9 1.8 1.8 1 0 1.8-.8 1.8-1.8 0-.8 0-1.6 0-2.4 0-.5 0-.9-.1-1.4-.2-1.3-1.5-2.2-2.8-2.2-.9 0-1.8 0-2.6 0-1.9 0-3.9 0-5.8 0-2.1 0-4.2 0-6.3 0-1.3 0-2.6 0-4 0-.1 0-.2 0-.3 0-.2 0-.5 0-.7.1-.8.1-1.4.6-1.9 1.3-.4.5-.5 1.2-.5 1.8 0 .9 0 1.8 0 2.6 0 1.6 0 3.2 0 4.8 0 2 0 4 0 6 0 2.2 0 4.3 0 6.5 0 2 0 4 0 6.1 0 1.6 0 3.2 0 4.8 0 .9 0 1.8 0 2.7 0 .6.1 1.2.4 1.8.6.9 1.6 1.5 2.7 1.5.1 0 .2 0 .3 0 1.3 0 2.6 0 3.9 0 2.1 0 4.2 0 6.2 0 1.9 0 3.9 0 5.8 0 .9 0 1.8 0 2.7 0 1.3 0 2.5-.9 2.8-2.2.1-.3.1-.7.1-1 0-.7 0-1.4 0-2.1 0-2 0-4 0-6 0-.4 0-.8 0-1.2 0-1-.8-1.9-1.8-1.8-.9 0-1.8.7-1.8 1.8"></path><path d="m14.7 31.4c0 0 0 .1 0 .1 0-.2 0-.3.1-.5-.1.2-.1.3-.1.4 0-.2.1-.4.2-.5 0 .1-.1.2-.2.3.1-.1.2-.2.3-.4-.1.1-.1.1-.2.2.1-.1.2-.2.4-.3-.1.1-.2.1-.3.2.1-.1.3-.1.4-.2-.1 0-.2.1-.3.1.2 0 .3 0 .5-.1-.1 0-.2 0-.2 0 .2 0 .3 0 .5.1-.1 0-.2 0-.3-.1.1.1.3.1.4.2-.1 0-.2-.1-.3-.2.1.1.2.2.4.3-.1-.1-.1-.1-.2-.2.1.1.2.2.3.4-.1-.1-.1-.2-.2-.3.1.1.1.3.2.4 0-.1-.1-.2-.1-.3 0 .2 0 .3.1.5 0-.1 0-.2 0-.2 0 .2 0 .3-.1.5 0-.1 0-.2.1-.3-.1.1-.1.3-.2.4 0-.1.1-.2.2-.3-.1.1-.2.2-.3.4.2 0 .2 0 .3-.1-.1.1-.2.2-.4.3.1-.1.2-.1.3-.2-.1.1-.3.1-.4.2.1 0 .2-.1.3-.1-.2 0-.3 0-.5.1.1 0 .2 0 .2 0-.2 0-.3 0-.5-.1.1 0 .2 0 .3.1-.1-.1-.3-.1-.4-.2.1 0 .2.1.3.2-.1-.1-.2-.2-.4-.3.1.1.1.1.2.2-.1-.1-.2-.2-.3-.4.1.1.1.2.2.3-.2-.2-.3-.3-.3-.6 0 .2 0 .3.1.4 0-.2 0-.3-.1-.5 0 .1 0 .1 0 .1 0 .5.2 1 .5 1.3.3.3.8.6 1.3.5 1 0 1.9-.8 1.8-1.8 0-1.3-.8-2.3-2-2.8-1-.4-2.3 0-3 .8-.5.5-.7 1.1-.8 1.8 0 .5.1 1.1.4 1.6.7 1.1 1.9 1.6 3.2 1.3.5-.1 1.1-.4 1.4-.8.5-.6.8-1.2.8-2 0-1-.9-1.9-1.8-1.8-1 .2-1.8.9-1.8 1.9"></path></g></symbol><symbol id="icon-business-services-cluster" viewBox="0 0 40 40"><g><path d="m8 3.1c-.2 0-.4 0-.5.1-.2.1-.3.2-.5.3-.1.1-.2.3-.2.4-.1.2-.1.4-.1.6v2.2h-3.6c-1.7 0-3.1 1.4-3.1 3.1v24c0 1.7 1.4 3.1 3.1 3.1h33.8c1.7 0 3.1-1.4 3.1-3.1v-24c0-1.7-1.4-3.1-3.1-3.1h-3.6v-2.2c0-.2 0-.4-.1-.5-.1-.2-.2-.3-.3-.4-.1-.1-.3-.2-.4-.3-.2-.1-.3-.1-.5-.1-.2 0-.4 0-.5.1-.2.1-.3.2-.4.3-.1.1-.2.3-.3.4-.1.2-.1.3-.1.5v2.2h-21.4v-2.2c0-.2 0-.4-.1-.5 0-.2-.1-.4-.3-.5-.1-.1-.2-.2-.4-.3-.2-.1-.3-.1-.5-.1m-4.9 6.2h3.6v.4c0 .2 0 .4.1.5.1.2.2.3.3.4.1.3.2.4.4.4.2.1.3.1.5.1.2 0 .4 0 .5-.1.2-.1.3-.2.4-.3.1-.1.2-.3.3-.4.1-.2.1-.3.1-.5v-.5h21.3v.4c0 .2 0 .4.1.5.1.2.2.3.3.4.1.1.3.2.4.3.2.1.3.1.5.1s.4 0 .5-.1c.2-.1.3-.2.4-.3.1-.1.2-.3.3-.4.1-.2.1-.3.1-.5v-.4h3.6c.3 0 .4.2.4.4v24c0 .3-.2.4-.4.4h-33.7c-.3 0-.4-.2-.4-.4v-24c0-.2.1-.4.4-.4m24.3 1.8c-.3 0-.5.1-.7.3-.2.2-.4.4-.4.6-.1.3-.1.5 0 .8.1.3.2.5.4.6l.2.2c-9.7 1.4-16.5 8-18.4 17.2 0 .2 0 .3 0 .5s.1.3.2.5c0 .2.2.3.3.4.1.1.3.2.5.2.2 0 .3 0 .5 0 .2 0 .3-.1.5-.2.1-.1.3-.2.4-.4.1-.1.2-.3.2-.5 1.7-7.9 7-13.4 15.2-15-.1.3-.2.6-.1.9.1.3.3.6.5.8.3.2.6.3.9.2s.6-.2.8-.4l2.7-2.2c.1-.1.3-.3.4-.5.1-.2.1-.4.1-.6 0-.2 0-.4-.1-.6-.1-.2-.2-.3-.4-.5l-2.7-2.2c-.1-.1-.3-.2-.5-.3-.1.2-.3.2-.5.2m-15.4 0c-1.9 0-3.6 1.6-3.6 3.6 0 1.9 1.6 3.6 3.6 3.6s3.6-1.6 3.6-3.6c-.1-2-1.7-3.6-3.6-3.6m0 2.7c.5 0 .9.4.9.9 0 .5-.4.9-.9.9-.5 0-.9-.4-.9-.9 0-.5.4-.9.9-.9m14.2 5.8c-1.9 0-3.6 1.6-3.6 3.6 0 1.9 1.6 3.6 3.6 3.6s3.6-1.6 3.6-3.6c0-2-1.6-3.6-3.6-3.6m0 2.6c.5 0 .9.4.9.9 0 .5-.4.9-.9.9s-.9-.4-.9-.9c0-.5.4-.9.9-.9m-10.8 3.1c-.3 0-.5.1-.7.3-.2.2-.3.4-.4.6-.1.2-.1.5 0 .7.1.2.2.5.4.6l1.3 1.3-1.3 1.3c-.1.1-.2.3-.3.4-.1.2-.1.3-.1.5 0 .2 0 .4.1.5.1.2.2.3.3.5.1.1.3.2.5.3.2.1.4.1.5.1.2 0 .4-.1.5-.1.2-.1.3-.2.4-.3l1.3-1.3 1.3 1.3c.1.1.3.2.4.3.2.1.3.1.5.1.2 0 .4 0 .5-.1.2-.1.3-.2.5-.3.1-.1.2-.3.3-.5.1-.2.1-.4.1-.5 0-.2 0-.4-.1-.5s-.2-.3-.3-.4l-1.3-1.3 1.3-1.3c.2-.2.3-.4.4-.7 0-.3 0-.6-.1-.8-.1-.3-.3-.5-.6-.6-.2-.1-.5-.2-.8-.2-.3 0-.6.2-.8.4l-1.4 1.4-1.3-1.3c-.1-.1-.3-.3-.5-.3-.2-.1-.4-.1-.6-.1"></path></g></symbol><symbol id="icon-design-agencies-cluster" viewBox="0 0 40 40"><g><path d="m27 6c-1.7 0-3-1.3-3-3 0-1.7 1.3-3 3-3h6c1.7 0 3 1.3 3 3v13h1c1.7 0 3 1.3 3 3 0 1.7-1.3 3-3 3h-1v18h-2v-18h-8c0 1.1-.9 2-2 2v2h3c.6 0 1 .4 1 1 0 .6-.4 1-1 1h-3-2-1v1.7l6.8 8.7c.3.4.3 1.1-.2 1.4-.4.3-1.1.3-1.4-.2l-5.2-6.7v2.1c0 .6-.4 1-1 1s-1-.4-1-1v-2.1l-5.2 6.7c-.3.4-1 .5-1.4.2-.4-.3-.5-1-.2-1.4l6.8-8.7v-1.7h-1-2-3c-.6 0-1-.4-1-1 0-.6.4-1 1-1h3v-2c-1.1 0-2-.9-2-2h-8v17c0 .6-.4 1-1 1-.6 0-1-.4-1-1v-17h-1c-1.7 0-3-1.3-3-3 0-1.7 1.3-3 3-3h2c-.5 0-.9-.3-1-.8l-2-10c-.1-.5.3-1.1.8-1.2.5-.1 1.1.3 1.2.8l2 10c.1.5-.2 1.1-.8 1.2-.1 0-.1 0-.2 0h4c-.4 0-.8-.3-.9-.7l-2-6c-.2-.5.1-1.1.6-1.2.5-.2 1.1.1 1.3.6l2 6c.2.5-.1 1.1-.6 1.3-.2 0-.3 0-.4 0h5c0-3.3 2.7-6 6-6s6 2.7 6 6h8v-13c0-.6-.4-1-1-1h-3.2c.1.3.2.6.2 1 0 1.7-1.3 3-3 3m-22 14h9v-2h-11c-.6 0-1 .4-1 1 0 .6.4 1 1 1h2m17 6h-2-2v-2h4v2m0-4h2v-6c0-2.2-1.8-4-4-4s-4 1.8-4 4v6h2 4m12-2h2 1c.6 0 1-.4 1-1 0-.6-.4-1-1-1h-1-2-8v2h8m-7-18c-.6 0-1 .4-1 1s.4 1 1 1 1-.4 1-1-.4-1-1-1" fill-rule="evenodd"></path></g></symbol><symbol id="icon-digital-marketing-cluster" viewBox="0 0 40 40"><g><path d="m22.8 30.6v.4c0 .2-.2.4-.4.4h-4.8c-.2 0-.4-.2-.4-.4v-.4h-17.2v.8c0 0 0 1.2 1.2 1.2h37.6c1.2 0 1.2-1.2 1.2-1.2v-.8h-17.2"></path><path d="m36 6.9h-32.1c-.8 0-1.4.6-1.4 1.4v.5 18.8c0 .8.6 1.4 1.4 1.4h.5 31.2.4c.8 0 1.4-.6 1.4-1.4v-18.8-.5c0-.7-.6-1.4-1.4-1.4m-.4 20.2h-31.2v-18.3h31.2v18.3"></path><path d="m36 6.9h-32v20.7h32v-20.7m-10.4 11.1v-3.2c.7.2 1.1.9 1.1 1.6.1.8-.4 1.4-1.1 1.6m-1.2-6.8c-.1 0-.3 0-.4.1l-4.8 3.1c-.2.1-.3.4-.3.6v2.9c0 .2.1.5.3.6l4.8 3.1c.1.1.2.1.4.1.4 0 .7-.3.7-.7v-9.1c0-.4-.3-.7-.7-.7m-6.1 7.2h-.5l.7 4.5c0 .1 0 .3-.1.4-.1.1-.2.2-.4.2h-1.9c-.2 0-.4-.2-.5-.4l-.6-4.7h-.8c-.5 0-.9-.4-.9-.9v-2.1c0-.5.4-.9.9-.9h4.2v.5 2.9l-.1.5m-3.6-1.1c.2 0 .3-.1.3-.3v-1.1c0-.2-.1-.3-.3-.3-.2 0-.3.1-.3.3v1.1c0 .2.1.3.3.3m1.1 0c.2 0 .3-.1.3-.3v-1.1c0-.2-.1-.3-.3-.3s-.3.1-.3.3v1.1c0 .2.1.3.3.3" fill-rule="evenodd"></path></g></symbol><symbol id="icon-software-development-cluster" viewBox="0 0 40 40"><g><path d="m.8 1.1h38.4c.5 0 .8.4.8.8v5.9 22.9c0 .5-.4.8-.8.8h-5v-1.6h4.1v-21.3h-36.7v21.2h19.7v1.6h-20.5c-.5 0-.8-.4-.8-.8v-22.8-5.9c0-.4.4-.8.8-.8m37.6 1.6h-36.8v4.3h36.7v-4.3z" fill-rule="evenodd"></path><path d="m36.1 4h-5.4c-.5 0-.8.4-.8.8 0 .5.4.8.8.8h5.4c.5 0 .8-.4.8-.8 0-.4-.4-.8-.8-.8"></path><path d="m5.1 4h-1.2c-.4 0-.8.4-.8.9 0 .5.4.8.8.8h1.2c.5 0 .8-.4.8-.8 0-.5-.3-.9-.8-.9"></path><path d="m8.3 4h-1.2c-.4 0-.8.4-.8.9 0 .5.4.8.8.8h1.2c.5 0 .8-.4.8-.8 0-.5-.3-.9-.8-.9"></path><path d="m11.5 4h-1.2c-.4 0-.8.4-.8.9 0 .5.4.8.8.8h1.2c.5 0 .8-.4.8-.8 0-.5-.4-.9-.8-.9"></path><path d="m5.1 12.6h6.4c.5 0 .8-.4.8-.8 0-.5-.4-.8-.8-.8h-6.4c-.5 0-.8.4-.8.8 0 .4.4.8.8.8"></path><path d="m5.1 16.3h10.5c.5 0 .8-.4.8-.8s-.4-.8-.8-.8h-10.5c-.5 0-.8.4-.8.8s.4.8.8.8"></path><path d="m18.5 18.3h-13.4c-.5 0-.8.4-.8.8 0 .5.4.8.8.8h13.4c.5 0 .8-.4.8-.8 0-.4-.3-.8-.8-.8"></path><path d="m13.4 22h-8.3c-.5 0-.8.4-.8.8 0 .5.4.8.8.8h8.3c.5 0 .8-.4.8-.8 0-.4-.3-.8-.8-.8"></path><path d="m9.9 25.7h-4.8c-.5 0-.8.4-.8.8 0 .5.4.8.8.8h4.8c.5 0 .8-.4.8-.8 0-.5-.4-.8-.8-.8"></path><path d="m27.6 38.9c4.7 0 8.4-3.8 8.4-8.4 0-4.7-3.8-8.4-8.4-8.4s-8.4 3.8-8.4 8.4c-.1 4.6 3.7 8.4 8.4 8.4m-3.3-8.4l1.8-1.8c.1-.1.1-.1.2-.2 0-.1.1-.2.1-.3s0-.2-.1-.3c0-.1-.1-.2-.2-.2-.1-.1-.1-.1-.2-.1-.1 0-.2 0-.3 0-.1 0-.2 0-.3.1-.1 0-.2.1-.2.2l-2.2 2.1c-.1.1-.2.3-.2.4 0 .2.1.3.2.4l2.2 2.3c.1.1.1.1.2.2.1 0 .2.1.3.1.1 0 .3 0 .4-.1.1-.1.2-.2.2-.3 0-.1.1-.2 0-.4 0-.1-.1-.2-.2-.3l-1.7-1.8m5.7-2.7l2.2 2.3c.1.1.2.3.2.4 0 .2-.1.3-.2.4l-2.2 2.3c-.1.1-.1.1-.2.2-.1 0-.2.1-.3.1-.1 0-.3 0-.4-.1-.1-.1-.2-.2-.2-.3-.1-.1-.1-.2 0-.4 0-.1.1-.2.2-.3l1.7-1.8-1.8-2c-.1-.1-.1-.1-.2-.2 0-.1-.1-.2-.1-.3 0-.1 0-.2.1-.3 0-.1.1-.2.2-.2.1-.1.1-.1.2-.1.1 0 .2 0 .3 0 .1 0 .2 0 .3.1 0 0 .1.1.2.2" fill-rule="evenodd"></path></g></symbol><symbol id="icon-website-design-cluster" viewBox="0 0 34 35"><path d="M30.6142 28.0114C30.9815 28.0114 31.2792 27.7033 31.2792 27.3231C31.2792 26.9429 30.9815 26.6348 30.6142 26.6348C30.247 26.6348 29.9492 26.9429 29.9492 27.3231C29.9492 27.7033 30.247 28.0114 30.6142 28.0114Z"></path><path d="M16.7763 7.91036C17.1436 7.91036 17.4413 7.60218 17.4413 7.22202C17.4413 6.84187 17.1436 6.53369 16.7763 6.53369C16.4091 6.53369 16.1113 6.84187 16.1113 7.22202C16.1113 7.60218 16.4091 7.91036 16.7763 7.91036Z"></path><path d="M19.0741 23.6129V19.5062C19.0741 19.1329 18.7825 18.8179 18.4091 18.8179C18.0475 18.8179 17.7441 19.1212 17.7441 19.5062V23.6129C17.7441 23.9862 18.0358 24.3012 18.4091 24.3012C18.7825 24.2895 19.0741 23.9862 19.0741 23.6129Z"></path><path d="M8.60974 13.2888C8.97141 13.2888 9.27474 12.9854 9.27474 12.6004C9.27474 12.2271 8.98307 11.9121 8.60974 11.9121H5.85641C5.49474 11.9121 5.19141 12.2154 5.19141 12.6004V27.2071C5.19141 27.5804 5.48307 27.8954 5.85641 27.8954H27.9297C28.2914 27.8954 28.5947 27.5921 28.5947 27.2071V12.6004C28.5947 12.2271 28.3031 11.9121 27.9297 11.9121H24.6047C24.2431 11.9121 23.9397 12.2154 23.9397 12.6004C23.9397 12.9738 24.2314 13.2888 24.6047 13.2888H27.2647V26.5304H6.50974V13.2888H8.60974Z"></path><path d="M15.7148 22.4469V19.6585C15.7148 19.2852 15.4231 18.9702 15.0498 18.9702C14.6764 18.9702 14.3848 19.2735 14.3848 19.6585V22.4469C14.3848 22.8202 14.6764 23.1352 15.0498 23.1352C15.4231 23.1352 15.7148 22.8202 15.7148 22.4469Z"></path><path d="M3.745 35H29.82C31.885 35 33.5533 33.2617 33.5533 31.1267V30.065C33.5533 29.6917 33.2617 29.3767 32.8883 29.3767H19.6233C19.2617 29.3767 18.9583 29.68 18.9583 30.065C18.9583 30.695 18.4683 31.2083 17.8617 31.2083H15.6683C15.0617 31.2083 14.5717 30.695 14.5717 30.065C14.5717 29.6917 14.28 29.3767 13.9067 29.3767H3.605V11.8183C3.605 11.0367 4.22333 10.395 4.98167 10.395H13.2183L13.23 10.4533L11.8533 11.795L11.8417 11.8067C10.64 13.0433 9.975 14.7 9.975 16.45V19.5067C9.975 19.775 10.1267 20.02 10.3717 20.1367C10.4533 20.1717 10.5467 20.195 10.64 20.195C10.8033 20.195 10.955 20.1367 11.0833 20.02L13.9767 17.325C14.0583 17.4767 14.1983 17.5817 14.3617 17.64C15.1317 17.8733 15.9367 18.0017 16.7533 18.0017H16.7883C17.605 18.0017 18.4217 17.885 19.2033 17.64C19.3783 17.5933 19.5067 17.465 19.5883 17.3133L22.4933 20.0317C22.6217 20.1483 22.7733 20.2067 22.9367 20.2067C23.03 20.2067 23.1233 20.1833 23.205 20.1483C23.4383 20.0433 23.6017 19.7983 23.6017 19.5183V16.45C23.6017 14.7 22.9367 13.0433 21.7467 11.8067L20.475 10.4883L20.4867 10.3833H28.595C29.3533 10.3833 29.9717 11.025 29.9717 11.8067V24.3367C29.9717 24.71 30.2633 25.025 30.6367 25.025C30.9983 25.025 31.3017 24.7217 31.3017 24.3367V11.8183C31.3017 10.2783 30.0883 9.03 28.6067 9.03H20.65C20.8833 5.915 19.8683 2.84667 17.8383 0.525L17.7217 0.396667C17.4767 0.14 17.1733 0 16.8467 0H16.835C16.52 0 16.205 0.151667 15.995 0.396667L15.7733 0.653333C13.825 2.95167 12.845 5.985 13.0667 9.01833H4.98167C3.5 9.01833 2.28667 10.2667 2.28667 11.8067V29.3767H0.665C0.303333 29.3767 0 29.68 0 30.065V31.1267C0 33.2617 1.68 35 3.745 35ZM16.7767 1.55167L16.8583 1.45833C18.7367 3.61667 19.6117 6.51 19.2617 9.39167L19.11 10.64L18.48 15.855L18.41 16.415C17.8733 16.5433 17.325 16.6133 16.7767 16.6133H16.7533C16.2167 16.6133 15.68 16.5433 15.155 16.4267L14.63 11.2233L14.5717 10.64L14.4317 9.19333C14.14 6.42833 15.0033 3.64 16.7767 1.55167Z"></path></symbol><symbol id="icon-software-development-ht" viewBox="0 0 24 21"><path d="M19.268 1.54093C19.268 0.973131 18.7949 0.5 18.227 0.5H1.71476C1.14696 0.5 0.673828 0.973089 0.673828 1.54093V4.09584H19.2679L19.268 1.54093ZM9.19027 2.62905H3.22882C3.03955 2.62905 2.85028 2.43977 2.85028 2.2505C2.85028 2.06123 3.03955 1.87196 3.22882 1.87196H9.19027C9.37955 1.87196 9.56882 2.01388 9.56882 2.2505C9.52146 2.48714 9.37954 2.62905 9.19027 2.62905ZM12.6442 2.91304C12.313 2.91304 12.0764 2.67641 12.0764 2.34524C12.0764 2.01407 12.313 1.77744 12.6442 1.77744C12.9754 1.77744 13.212 2.01407 13.212 2.34524C13.2118 2.62907 12.9754 2.91304 12.6442 2.91304ZM14.4894 2.91304C14.1582 2.91304 13.9216 2.67641 13.9216 2.34524C13.9216 2.01407 14.1583 1.77744 14.4894 1.77744C14.8206 1.77744 15.0572 2.01407 15.0572 2.34524C15.0571 2.62907 14.8206 2.91304 14.4894 2.91304ZM16.3346 2.91304C16.0035 2.91304 15.7668 2.67641 15.7668 2.34524C15.7668 2.01407 16.0035 1.77744 16.3346 1.77744C16.6658 1.77744 16.9024 2.01407 16.9024 2.34524C16.9023 2.62907 16.6184 2.91304 16.3346 2.91304Z"></path><path d="M11.5556 16.9173C11.2244 16.7753 10.9406 16.4913 10.9406 16.113V14.173C10.9406 13.7945 11.1772 13.4633 11.5556 13.3688C11.9341 13.2742 12.1706 12.943 12.1706 12.5645C12.1706 12.4226 12.1233 12.2807 12.0761 12.1388C11.9815 11.9968 11.9815 11.8549 11.9815 11.713C11.9815 11.4764 12.0761 11.2873 12.2182 11.1452L13.5902 9.77314C13.8741 9.48931 14.2526 9.44196 14.5838 9.63123C15.0569 9.91505 15.6721 9.63123 15.814 9.11078C15.9086 8.73224 16.2397 8.49575 16.6183 8.49575H18.5108C18.8894 8.49575 19.2206 8.73239 19.3151 9.11078V4.75798L0.67334 4.75781V16.4915C0.67334 17.0593 1.14643 17.5324 1.71427 17.5324H12.1705C12.1233 17.2484 11.8866 17.0118 11.5554 16.9172L11.5556 16.9173ZM9.28449 14.1257H2.32947C1.95092 14.1257 1.66708 13.8419 1.66708 13.4633C1.66708 13.0848 1.95091 12.7536 2.32947 12.7536H9.28449C9.66304 12.7536 9.94688 13.0848 9.94688 13.4633C9.94671 13.7945 9.66288 14.1257 9.28432 14.1257H9.28449ZM9.28449 10.9084H2.32947C1.95092 10.9084 1.66708 10.5772 1.66708 10.246C1.66708 9.86748 1.95091 9.53628 2.32947 9.53628H9.28449C9.66304 9.53628 9.94688 9.82011 9.94688 10.246C9.94671 10.5772 9.66288 10.9084 9.28432 10.9084H9.28449ZM9.28449 7.69111H2.32947C1.95092 7.69111 1.66708 7.35993 1.66708 6.98137C1.66708 6.60283 1.95091 6.31899 2.32947 6.31899H9.28449C9.66304 6.31899 9.94688 6.65017 9.94688 6.98137C9.94671 7.40727 9.66288 7.69111 9.28432 7.69111H9.28449Z"></path><path d="M23.1 16.019V14.3158L21.5386 13.89C21.4441 13.6534 21.3493 13.4169 21.2548 13.1803L22.0591 11.8082L20.8289 10.578L19.4568 11.3823C19.2675 11.2878 18.9837 11.1457 18.7471 11.0985L18.3685 9.53711H16.618L16.2395 11.0985C16.0028 11.1458 15.7664 11.2878 15.5297 11.3823L14.1577 10.578L12.9275 11.8082L13.7318 13.1803C13.5898 13.4169 13.4951 13.6534 13.4479 13.89L11.8867 14.2684V15.9717L13.4007 16.3974C13.4953 16.634 13.59 16.8705 13.6846 17.1072C13.6372 17.1545 12.8329 18.5738 12.8803 18.4792L14.1105 19.7094L15.4825 18.9051C15.7192 19.0471 15.9556 19.1418 16.1923 19.189L16.5708 20.7503H18.2741L18.6526 19.189C18.8893 19.0944 19.1257 18.9997 19.3624 18.9051L20.7345 19.7094L21.9646 18.4792L21.1604 17.1072C21.3023 16.8705 21.397 16.6341 21.4442 16.3974L23.1 16.019ZM17.517 18.2902C15.8138 18.2902 14.3471 16.9181 14.3471 15.1202C14.3471 13.3696 15.7666 11.9503 17.517 11.9503C19.2677 11.9503 20.687 13.3698 20.687 15.1202C20.6396 16.8707 19.2675 18.2902 17.517 18.2902Z"></path></symbol><symbol id="icon-ecommerce-development-cluster" viewBox="0 0 24 24"><g><path d="M16,17.94a1.7,1.7,0,0,1,1.74,1.74A1.64,1.64,0,0,1,16,21.29a1.68,1.68,0,0,1,0-3.35"></path><path d="M8.59,17.94a1.7,1.7,0,0,1,1.74,1.74,1.64,1.64,0,0,1-1.74,1.61A1.61,1.61,0,0,1,7,19.68a1.64,1.64,0,0,1,1.62-1.74"></path><path d="M19.08,13.38l-.84,2.7a.46.46,0,0,1-.48.42H6.61a.46.46,0,0,1-.48-.42c-.9-3.42-1.86-6.78-2.76-10.2H.49a.48.48,0,1,1,0-1H3.73a.51.51,0,0,1,.48.42l.66,2.28h8.4v.06c0,.3.06.66.06,1H5.17L7,15.42H17.4l.66-2.1c.3,0,.66.06,1,.06h.06"></path><path d="M19,2.71a5,5,0,1,0,5,5A5,5,0,0,0,19,2.71Zm2.52,5.15-1.2,1.26c-.06.06-.06.06-.12.06H20.1a.22.22,0,0,1-.18-.06c-.06-.06-.12-.12-.12-.18s-.06-.12,0-.18.06-.12.12-.18l1-1-1.08-1c-.06-.06-.06-.06-.06-.12a.21.21,0,0,0-.06-.12V6.24c0-.06.06-.06.06-.12s.06-.06.12-.06H20c.06,0,.12,0,.12.06.18-.06.18-.06.24,0l1.2,1.26a.45.45,0,0,1,.12.24A.45.45,0,0,1,21.54,7.86Zm-3.36.84c.06.06.12.12.12.18s0,.12,0,.18-.06.12-.12.18A.22.22,0,0,1,18,9.3h-.12c-.06,0-.06,0-.12-.06L16.56,8a.31.31,0,0,1-.12-.24.45.45,0,0,1,.12-.24l1.2-1.26c.06-.06.06-.12.12-.12s.06-.06.12-.06h.12c.06,0,.06,0,.12.06s.06.06.06.12v.12a.21.21,0,0,0-.06.12c0,.06,0,.06-.06.12l-1,1Z"></path></g></symbol></svg>