<svg width="20" height="20" class="fl-shrink icon" xmlns="http://www.w3.org/2000/svg"><defs><symbol id="icon-bd-print" viewBox="0 0 22 22"><g><path xmlns="http://www.w3.org/2000/svg" d="M14.67,22,7.33,19.43l-5.68,2.2A1.1,1.1,0,0,1,.52,21.5a1.21,1.21,0,0,1-.52-1V3.36a1.15,1.15,0,0,1,.23-.7A1.3,1.3,0,0,1,.86,2.2L7.33,0l7.34,2.57L20.35.37A1.1,1.1,0,0,1,21.48.5a1.21,1.21,0,0,1,.52,1V18.64a1.15,1.15,0,0,1-.23.7,1.3,1.3,0,0,1-.63.46Zm-1.23-3V4.71L8.56,3v14.3Z"></path></g></symbol></defs><use href="#icon-bd-print"></use></svg>