<svg class="icon" width="20" height="20" xmlns="http://www.w3.org/2000/svg"><defs><symbol id="icon-search" viewBox="0 0 18 18"><g fill="currentColor"><path d="M7.0718 0C3.17884 0 0 3.17885 0 7.0718C0 10.9647 3.17884 14.1436 7.0718 14.1436C8.63246 14.1436 10.0783 13.6338 11.2506 12.7708L16.1727 17.6862C16.5911 18.1046 17.2678 18.1046 17.6862 17.6862C18.1046 17.2678 18.1046 16.5912 17.6862 16.1727L12.7708 11.2506C13.6337 10.0783 14.1436 8.63246 14.1436 7.0718C14.1436 3.17885 10.9647 0 7.0718 0ZM7.0718 2.14297C9.80655 2.14297 12.0006 4.33702 12.0006 7.0718C12.0006 9.80655 9.80655 12.0006 7.0718 12.0006C4.33703 12.0006 2.14297 9.80655 2.14297 7.0718C2.14297 4.33701 4.33703 2.14297 7.0718 2.14297Z"></path></g></symbol></defs><use href="#icon-search"></use></svg>