<svg class="icon" width="55" height="55" xmlns="http://www.w3.org/2000/svg"><defs><symbol id="icon-digital-design-agencies" viewBox="0 0 24 24"><g><path d="M1.46,4.38H19.28V7.15h1.49V3.8a1,1,0,0,0-.94-.94H.94a1,1,0,0,0-.94,1V16.67a.93.93,0,0,0,.94.94H8.55v1.71H6.87a.46.46,0,0,0-.45.45v.88a.46.46,0,0,0,.45.46H14a.47.47,0,0,0,.46-.46v-.88a.47.47,0,0,0-.46-.45h-1.7V17.61h3.5V14.33H1.46V4.38M10.4,15.3a.67.67,0,0,1,0,1.34.67.67,0,0,1,0-1.34"></path><path d="M23,8.24H17.79a1,1,0,0,0-1,1V20.14a1,1,0,0,0,1,1H23a1,1,0,0,0,1-1V9.22a1,1,0,0,0-1-1M19.59,9h1.64a.21.21,0,0,1,.21.22.23.23,0,0,1-.21.24H19.59a.21.21,0,0,1-.21-.21c0-.12.06-.25.21-.25m.82,11.41a.67.67,0,1,1,0-1.34.67.67,0,1,1,0,1.34m2.52-2.07H17.88V10.16H23l0,8.15"></path></g></symbol></defs><use href="#icon-digital-design-agencies"></use></svg>