<svg class="icon" width="55" height="55" xmlns="http://www.w3.org/2000/svg"><defs><symbol id="icon-category-branding-creative" viewBox="0 0 24 24"><g><path d="M10.71,24h2.58A1.72,1.72,0,0,0,15,22.29v-.86h.43a.86.86,0,0,0,0-1.72H8.57a.86.86,0,0,0,0,1.72H9v.86A1.72,1.72,0,0,0,10.71,24Zm0-2.57h2.58v.86H10.71Z"></path><path d="M15.43,17.14H8.57a.86.86,0,0,0,0,1.72h6.86a.86.86,0,0,0,0-1.72Z"></path><path d="M16.71,15.43v-.66A8.14,8.14,0,1,0,3.86,8.14a8.08,8.08,0,0,0,3.43,6.63v.66a.86.86,0,0,0,.85.86h7.72a.86.86,0,0,0,.85-.86ZM15.4,13.59a.86.86,0,0,0-.4.73v.25H9v-.25a.86.86,0,0,0-.4-.73,6.43,6.43,0,1,1,6.8,0Z"></path></g></symbol></defs><use href="#icon-category-branding-creative"></use></svg>