<svg width="20" height="20" class="icon icon-in" xmlns="http://www.w3.org/2000/svg"><defs><symbol id="share-linkedin" viewBox="0 0 24 24"><g><path d="M24,14.2v9.5h-5.1v-8.7c0-1.5-0.7-3.6-2.9-3.6c-1.5,0-2.2,0.7-2.2,2.2c0,0.7,0,0.7,0,1.5v8.7H8.7c0,0,0-14.5,0-15.3h5.1 v1.5l0,0l0,0l0,0c0-0.7,1.5-2.9,4.4-2.9S24,9.8,24,14.2L24,14.2z M2.9,0.4C0.7,0.4,0,1.1,0,3.3c0,1.5,0.7,2.2,2.9,2.2l0,0 c1.5,0,2.9-0.7,2.9-2.2C5.8,1.1,4.4,0.4,2.9,0.4z M0,23.6h5.1V8.4H0V23.6z"></path></g></symbol></defs><use href="#share-linkedin"></use></svg>