<?xml version="1.0" encoding="UTF-8" standalone="no"?>
<svg 
    role="img" 
    xmlns="http://www.w3.org/2000/svg" 
    width="1000mm"
    height="1000mm"
    viewBox="0 0 1000 1000"
    style="max-width:1.6em; height: auto;">
    
    <path 
        id="path" 
        style="opacity:1;vector-effect:none;fill:#000000;fill-opacity:1;"
        d="M 500 0C 224 0 0 224 0 500C 0 776 224 1000 500 1000C 776 1000 1000 776 1000 500C 1000 224 776 0 500 0C 500 0 500 0 500 0 M 503 104C 639 105 749 216 749 352C 749 489 638 600 501 600C 364 600 253 489 253 352C 253 215 364 104 501 104C 502 104 502 104 503 104C 503 104 503 104 503 104M 303 352C 303 461 392 550 501 550C 610 550 699 461 699 352C 699 243 610 154 501 154C 392 154 303 243 303 352C 303 352 303 352 303 352M 354 600C 355 600 357 601 358 601C 454 626 451 624 501 624C 550 624 549 626 648 601C 650 600 652 600 654 600C 707 600 747 605 779 624C 811 643 833 673 853 714C 858 722 857 732 851 740C 752 879 614 927 500 925C 359 926 223 853 152 744C 147 736 147 727 151 719C 171 678 192 647 224 627C 256 607 295 600 347 600C 348 600 348 600 349 600C 349 600 349 600 349 600C 350 600 352 600 354 600C 354 600 354 600 354 600M 501 674C 452 674 443 674 347 650C 300 650 271 657 251 669C 232 681 218 699 202 728C 265 815 382 876 500 875C 500 875 500 875 500 875C 597 877 712 839 801 723C 786 694 772 678 754 667C 734 656 705 650 657 650C 561 674 549 674 501 674C 501 674 501 674 501 674"
        transform="">
    </path>    
</svg>